<?xml version="1.0" encoding="UTF-8"?><svg id="Layer_1" xmlns="http://www.w3.org/2000/svg" viewBox="0 0 893.6 895.69"><defs><style>.cls-1{opacity:.5;}.cls-1,.cls-2,.cls-3,.cls-4,.cls-5,.cls-6,.cls-7,.cls-8,.cls-9,.cls-10{stroke-miterlimit:10;}.cls-1,.cls-4,.cls-6,.cls-10{fill:#fc3;stroke:#fc3;stroke-width:12px;}.cls-11,.cls-9{fill:#036;}.cls-2{fill:#39c;}.cls-2,.cls-8{stroke-width:10px;}.cls-2,.cls-9{stroke:#1a1a1a;}.cls-12{fill:#699;}.cls-3{stroke:#ff9;}.cls-3,.cls-5,.cls-7{stroke-width:3px;}.cls-3,.cls-5,.cls-13{fill:#fc6;}.cls-4{opacity:.43;}.cls-5{stroke:#f93;}.cls-14{fill:#696;}.cls-6{opacity:.94;}.cls-7{fill:#ff9;stroke:#fc6;}.cls-15{fill:#fbfbfc;}.cls-16{fill:#ffc;}.cls-17{fill:#369;}.cls-8{fill:none;stroke:#000;}.cls-18{fill:#ff6;}.cls-19{fill:#1d2432;}.cls-9{stroke-width:8px;}.cls-20{fill:#fce399;}.cls-21{fill:#333;}.cls-22{fill:#577084;}.cls-23{fill:#d1cec8;}.cls-24{fill:#999;}.cls-10{opacity:.28;}</style></defs><path class="cls-2" d="M447,5C202.89,5,5,202.89,5,447c0,203.98,138.18,375.69,326.04,426.63L709.6,93.24C636.71,40.25,544.01,5,447,5Z"/><path class="cls-14" d="M40,608s26.71,11.65,60,31,61.7,36.91,61.7,36.91l45.04,62.09-83.74.9c-4.32.02-67.38-75.9-83-130.9Z"/><path class="cls-9" d="M706.6,90.24l-375.57,784.39c36.96,10.02,75.83,15.37,115.96,15.37,244.11,0,442-197.89,442-442,0-147.1-71.86-277.42-182.4-357.76Z"/><polygon class="cls-23" points="722 70 725.29 74.28 702.97 125.54 699 118 722 70"/><path class="cls-23" d="M628.82,259.71l48.18-88.71c3.67-7.66,13.73-13.66,18-21,25-43-.58-32.54,3-40-1.56.68,2.11-.9,0,0-1.79.76-7.97,20.12-9,22l-63,122,2.82,5.71Z"/><path class="cls-23" d="M607.77,311.84l-81.57,165.5-18.2,35.67c-1,1-5.31,8.18-5.31,8.18-2.02.94-6.22,8.94-5.22,10.25,15.44-7.26,41.51-10.27,56.64-1.21,2.55,1.53,5.87,3.95.78,4.23-4.32.23-11.56-.8-16.47-1.03-.48-.02-2.19-1.1-4.46-1.1-12.63.02-26.36,4.24-38.78,6.32-4.49,1.56-4.45,10.02-5.71,12.77-1.39,3-4.7,7.2-6.52,10.96-6.21,12.86-12.46,25.8-17.97,38.96,48.49-14.24,96.5-37.88,137.69-67.1,22.14-15.71,46.57-35.38,62.44-57.44,7.12-9.89,13.44-20.63,17.18-32.28,2.57-.39,2.08.41,1.98,2.48-.18,3.9-2.33,9.31-3,13.5-2.61-.55-2.02,1.3-2.71,2.74-9.63,20.17-22.24,29.36-33.26,46.22-4.29,1.68-3.07,1.64-5,5-.6.34-4.74,1.24-2.99,2.99s2.65-2.39,2.99-2.99c1.12-.64,2.23-.41,3.59-1.92,1.15-1.28,1-2.45,1.41-3.07.78-.31,6.02-2.28,4.98.48-.64,1.7-12.17,14.09-14.32,16.15-16.72,16.04-46.45,36.37-66.92,47.47-2.68,1.45-9.65,5.05-12.18,5.81-2.74.82-1.32-5.1-.55-6.31,1.69-2.66,11.21-3.38,12.05-7.18.33-1.5,0-1.72-1.46-1.47-31.07,18.48-65.21,34.34-100.41,42.95-2.36,2.17,6.27,3.96,7.55,3.89,3.01-.18,8.67-5.67,9.89-5.91,2.52-.49,7.67-.02,10.14.91,1.37.51,1.7-.32,1.38,2.09-9.53,4.82-21.23,6.33-30.64,10.83-1.51.72-12.51,6.91-13.04,7.43-.86.85-1.43,3.38-2.27,4.73-5.22,8.45-9.29,17.28-13.99,25.97-2.14,3.96-3.91,8.09-5.99,11.99-4.13,7.73-8.62,16.15-12.99,23.98-.91,1.62-1.39,3.97-2,5-1.25,2.08-5.87,4.51-6.79,8.71-.99,4.51,2.14,8.83-.15,12.58-.64,1.04-2.94,1.64-4.07,3.16-13.38,17.94-18.14,46.86-35.94,60.47l-1-2c2.18-2.44,6.67-11.46,8.51-14.96,17.47-33.23,30.59-67.71,47.91-100.94,8.17-15.68,17.24-31.58,25.09-46.8,17.89-34.72,35.18-69.85,51.49-105.4,3.52-4.67,4.38.93,5.87,1.9,8.54,5.54,16.95-20.43,19.55-25.44,2.35-4.53,7.48-5.08,2.27-12.4-3.15-4.44-6.97-1.7-5.6-7.89l82.16-164.62,6.5-9.96c1.27,6.14-2.39,11.21-2.49,16.97M636.32,518.45c-1.09-1.09-3.08.9-1.99,1.99s3.08-.9,1.99-1.99Z"/><path class="cls-17" d="M646.24,747.41c13.65-1.68,23.36-11.4,35.27-17.16,12.35-5.98,25.32-9,39.13-7.79,1.06.09,6.26.78,6.51.99,2.22,1.88-2.57,1.72-1.99,2.98,4.77,1.6,14.77,4.53,15.08,10.49.17,3.21-1.46,7.6-.09,11.5l2.25-1.24,1.73-9.74c3.24,6.49,4.87,20.57-8.48,21.03-3.9,0-3.77-2.79-4.5-3.05,3.87-2.42,5.53-13.78,3.79-16.78-.64-1.09-12.75-6.36-14.71-6.76-12.42-2.51-29.74,3.58-38.92,12.15-1.87,1.75-8.58,9.8-9.76,11.7-1.58,2.55-7.29,18.31-8.84,18.66-1.31.29-2.94-1.61-3.27-2.71-2.55-8.36,10.43-18.64,10.78-27.26-1.69-1.82-14.02,11.41-15.49,12.97-1.45,1.53-4.12,6.46-5.18,7.06-2.36,1.34-5.43.12-7.3,1.94-17.87-5.12-38.24,2.59-53.95,10.99l-2.3,2.61c1-4,0-4,17.3-13.08,7.04-3.7,26.02-5.27,30.61-10.85"/><path class="cls-24" d="M429.45,669.49c2.08-3.9,3.85-8.03,5.99-11.99,7.81-1.31,16.4-3.25,23.97-5.5,70.41-20.93,146.27-57.64,196.33-112.37,4.98-5.44,8.77-12.87,14.98-16.98-2.11,5.42-3.71,11.44-6.33,16.64-2.83,5.62-9.66,13.04-11.43,18.64-.65,2.06.28,3.57-.45,5.36-5.92,14.41-44.48,40.11-58.56,48.43-35.49,20.98-72.83,35.43-112.56,46.28-16.79,4.59-34.79,9.53-51.95,11.49Z"/><path class="cls-24" d="M681.2,460.69c-2.52,15.98-2.49,24.5-11.58,38.87-35.13,55.59-150.8,117.74-214,132.65-2.3.54-5.23,2.2-6.2-.69.83-1.35,1.41-3.88,2.27-4.73.53-.53,11.53-6.71,13.04-7.43,9.41-4.5,21.11-6.01,30.64-10.83.32-2.41,0-1.58-1.38-2.09-2.47-.92-7.62-1.39-10.14-.91-1.22.24-6.87,5.73-9.89,5.91-1.28.08-9.91-1.72-7.55-3.89,35.2-8.62,69.34-24.47,100.41-42.95,1.47-.25,1.79-.04,1.46,1.47-.84,3.8-10.35,4.52-12.05,7.18-.77,1.21-2.19,7.12.55,6.31,2.53-.75,9.5-4.35,12.18-5.81,20.46-11.11,50.19-31.43,66.92-47.47,2.15-2.07,13.69-14.46,14.32-16.15,1.04-2.77-4.2-.79-4.98-.48-.41.62-.25,1.79-1.41,3.07-1.36,1.51-2.47,1.28-3.59,1.92-.34.6-1.24,4.74-2.99,2.99s2.39-2.65,2.99-2.99c1.92-3.35.71-3.32,5-5,11.02-16.85,23.62-26.04,33.26-46.22.69-1.44.1-3.29,2.71-2.74Z"/><path class="cls-24" d="M510.37,671.49c-.85,4.12,4.85-.13,4,4-12.89,3.94-22.25,5.4-34.98,8.48-21.53,5.21-42.07,13.99-64.93,14.5.61-1.02,1.09-3.37,2-5,31.72-4.94,63.51-11.68,93.91-21.98Z"/><path class="cls-24" d="M367.51,783.38c-4.24,3.24-6.28,5.58-11.96,7.52-1.32.45-3.7,1.33-3.01-1.01.93-3.16,4.88-8.83,6.46-12.52,7.63-17.81,14.13-36.15,24-52.96.33-.56.93-3.84,2.48-1.97.75.9-7.39,19.56-8.6,21.85-1.31,2.49-3.88,3.88-4.34,4.91-3.68,8.19-4.36,20.73-7.27,29.44-.68,2.03-3.47,3.51-4.76,5.23,1.49,1.61,5.02-1.41,5.99-2.5l1,2Z"/><path class="cls-24" d="M538.34,533.62c-7.39,2.43-15.62,2.88-22.96,5.52-8.62,3.1-17.04,9.76-26,12.47,1.27-2.74,1.22-11.21,5.71-12.77,12.42-2.07,26.15-6.3,38.78-6.32,2.26,0,3.97,1.08,4.46,1.1Z"/><path class="cls-24" d="M651.23,395.76c.11-.07-.31-1.51.16-1.8,11.82-7.48,27.39-6.97,38.05,1.78,2.48,2.04,4.88,7.25,6.74,10.02l-5,1c-1.16-1.96-3.68-7.25-4.43-8.05-7.23-7.74-27.18-6.67-35.53-.94v-2Z"/><path d="M629.74,225.9l2.51-3.98c11.5-25.24,25.91-48.54,40.76-71.63,5.74-8.92,10.08-20.02,15.99-28.99l.15-2.23,8.53-17.05c5.07-5.72,15.14-33.99,22.03-34.98,2.69-.39,5.29,1.07,7.01,3.03-4.6,14.89-14.23,28.2-20.04,42.96-4.04,10.28-5.8,26.61-11.99,33.96-3.45,4.1-5.3,5.9-8.66,10.33-4.29,5.66-4.18,4.02-8.34,6.55-5.33,3.25-41.13,71.07-45.63,81.35-1.74,3.98-3.1,8.16-4.84,12.15,8.23,1.6,9.77,8.18,8.56,15.54-1,6.03-6.98,20.48-10.98,24.99-4.14,4.66-12.68,8.91-17.04,13.93.1-5.76,3.76-10.83,2.49-16.97l-6.5,9.96-82.16,164.62c-1.37,6.19,2.44,3.46,5.6,7.89,5.21,7.33.08,7.88-2.27,12.4-2.6,5-11.01,30.98-19.55,25.44-1.49-.97-2.35-6.57-5.87-1.9-16.31,35.55-33.6,70.67-51.49,105.4-7.84,15.23-16.91,31.13-25.09,46.8-17.32,33.23-30.45,67.72-47.91,100.94-1.84,3.5-6.33,12.52-8.51,14.96-.97,1.09-4.5,4.11-5.99,2.5,1.29-1.72,4.08-3.2,4.76-5.23,2.91-8.72,3.59-21.26,7.27-29.44.46-1.03,3.03-2.42,4.34-4.91,1.21-2.3,9.35-20.95,8.6-21.85-1.55-1.87-2.15,1.41-2.48,1.97-9.87,16.81-16.38,35.15-24,52.96-1.58,3.69-5.53,9.36-6.46,12.52-.69,2.35,1.69,1.46,3.01,1.01,5.68-1.95,7.72-4.28,11.96-7.52,17.8-13.62,22.56-42.54,35.94-60.47,1.13-1.52,3.43-2.12,4.07-3.16,2.29-3.75-.84-8.07.15-12.58.92-4.2,5.54-6.63,6.79-8.71,22.86-.5,43.4-9.28,64.93-14.5,12.72-3.08,22.08-4.54,34.98-8.48,49.98-15.28,97.34-38.74,133.87-76.93,1.48-1.55,15.85-15.26,13.98-16.98-2.43-2.24-13.95,12.16-15.98,13.98-38.16,34.27-87.48,59.52-135.87,75.93-30.4,10.3-62.18,17.04-93.91,21.98,4.37-7.82,8.86-16.25,12.99-23.98,17.16-1.96,35.16-6.9,51.95-11.49,39.73-10.85,77.07-25.3,112.56-46.28,14.08-8.32,52.64-34.02,58.56-48.43.73-1.79-.19-3.3.45-5.36,1.76-5.6,8.59-13.01,11.43-18.64,2.62-5.2,4.22-11.22,6.33-16.64-6.22,4.11-10,11.54-14.98,16.98-50.06,54.73-125.91,91.44-196.33,112.37-7.57,2.25-16.16,4.19-23.97,5.5,4.7-8.69,8.77-17.53,13.99-25.97.97,2.89,3.89,1.24,6.19.69,63.2-14.91,178.87-77.06,214-132.65,9.09-14.38,9.05-22.89,11.58-38.87.66-4.19,2.82-9.6,3-13.5.1-2.07.59-2.87-1.98-2.48-3.74,11.66-10.07,22.39-17.18,32.28-15.87,22.07-40.3,41.74-62.44,57.44-41.19,29.21-89.2,52.86-137.69,67.1,5.51-13.16,11.76-26.11,17.97-38.96,1.82-3.76,5.13-7.97,6.52-10.96,8.96-2.71,17.38-9.37,26-12.47,7.33-2.64,15.57-3.08,22.96-5.52,4.91.23,12.15,1.26,16.47,1.03,5.09-.27,1.77-2.7-.78-4.23-15.13-9.07-41.2-6.06-56.64,1.21-1-1.31,3.2-9.31,5.22-10.25,1.53-.71,13.5-1.69,16.21-1.78,22.44-.71,25.96,2.78,43.79,13.24,5.05,2.96,11.58,3.19,14.18,9.77,30.17-18.38,59.81-40.14,81.41-68.44,7.9-10.35,24.68-34.81,16.95-47.62-.21-.35-5.04-5.66-5.37-5.88-4.78-3.18-14.73.22-13.55,7.07,13.37-11.27,23.55,9.59,11.48,18.98-14.23,11.07-34.72.12-36.46-17.47-1.79-18.16,7.14-24.79,19.98-33.48v2c-.64.44-1.3,2.43-2,3-8.65,7.01-9.21,6.09-10.99,17.98-.65,4.33-1.74,7.02-.57,12.06,2.68,11.54,17.62,19.37,26.54,8.92.76-.89.68-2.53,1-3,.07-.1,1.74.45,2.02-.65.38-1.49-.25-3.68-.03-5.34l-7.99,1c-.38,1.22.9,2.32,1,2.99.14.94-.09,2.03,0,3-6.66-2.7-7.6-10.75-7-16.98-8.16,2.87-2.93,15.56,3.51,18.09,2.04.8,3.03-.18,3.5-.11,1.13.16,1.57.87,2,1-6.66,5.46-18.43-2.2-20.53-8.95-.56-1.79-.29-5.79-.45-6.04,1.35-7.62,4.29-10.29,9.03-15.49.74-.81.76-2.29.96-2.49,7.38-7.53,23.5-6.93,30.96.5,2.44,2.43,4.49,6.7,6,9.49-1.52,1.56-.21,5.34.07,7.43,4.23,31.92,5.06,60.32,1.93,92.47-1.09,11.15-2.95,24.96-5,35.96-11.7,63.04-38.13,109.17-73.01,161.27-1,1.49-2.37,2.32-1.92,4.57-21.82,22.17-50.35,48.05-78.24,62.12-3.39,1.71-20.84,7.98-21.65,8.83-1.41,1.47.11,1.81,1.48,1.99,9.45,1.25,27.03-7.84,35.17-12.8,114.52-69.83,164.28-188.29,158.19-320.43-1-21.63-3.08-32.88-14.03-51.41l5-1c13.76,20.41,14.12,34.12,15.03,58.4,4.55,121.88-32.55,226.34-131.99,299.67-3.97,2.93-27.03,17.05-27.88,19.08-.86,2.04,1.39,1.4,2.47,1.48,10.69.82,23.02-3.29,32.49-7.99l2,1c-.34.18-.66,1.82-1,2-18.88,10.02-37.16,18.3-57.94,23.99-.18,1.46,2.62,1.79,3.58,1.89,15.25,1.64,33.98-4.01,47.08-11.68,5.84-3.42,10.63-10.25,18.26-11.2.35,1.75-.9,2.47-1.98,3.51-8.29,7.99-19.51,16.96-29.78,22.17-5.9,2.99-12.62,4.67-18.64,7.3-.94.41.35,1.96.45,1.98-20.42-9.35-50.06-24.58-58.13-47.27-4.55-12.77-.53-29.91,11.5-36.83l9.66-3.81c-19.19-2.74-27.31,11.25-29.97,27.96-5.75-1.45-4.48,4.32-5.3,8.19-.23,1.07-1.5,2.07-1.7,3.39-.61,3.97,7.23,16.3,10.02,19.87,4.49,5.77,14.13,12.5,17.61,17.84,4,6.14-.98,4.2-1.65,4.66-8.22-5.26-16.42-11.23-23.01-18.45-3.88-4.26-10.3-12.45-11.96-17.51-6.95-21.15,1.58-45.46,23.3-53.13l16.66-4.81h-15.48c-40.01,0-62.5,63.01-31.99,89.94l14.5,9.96c-13.71,2.49-20.17,2.52-28.79-8.65-29.26-37.91,3.7-106.15,54.81-94.77,11.25,2.5,25.46,11.06,25.97,24.06.24,6.05-4.31,13.18-10.02,15.44-.24-.19-2.02.15-2.93-.52-8.4-6.17-1.01-18.37,1.93-15.46,1.07,1.06-2.96,7.98.48,6.97,4.84-1.42,7.76-8.88,2.01-9.99-12.39-2.39-19.66,19.91-2.47,26.47,22.13,8.45,33.08-15.94,31.95-34.45,19.67-13.03,45.25-22.56,62.95-38.45.92-.82,7.08-6.43,5.98-7.5l-38.66,25.77-31.27,16.19c-2.49-17.06-14.68-26.5-30.45-31.98-33.08-11.5-66.55,3.27-88.94,27.97-24.95,27.53-36.8,79.24-80.16,84.68-7.94,1-24.75-1.42-30.55.42-4.48,1.42,2.23,8.3,4.39,9.31,1.55.73,2.52.39,3.94.52,3.7,6.28-.09,2.62-2,6.99-5.86-.07-11.47-1.66-16.96-3.52-15.99-5.43-34.9-24.48-32.99-42.43.8-7.5,4.4-13.17,9.99-17.97-12.36-1.85-19.25,19.35-18.07,28.51.04.3,2.76,5.2,4.08,4.44.42,2.65,3.99,8.39,5.58,10.9,11.72,18.53,25.85,24.16,47.37,25.06,38.22,1.6,61.92-4.64,82.74-37.64.74-1.17,6.9-15.9,9.16-13.31.57,6.92-.18,12.35-2.71,18.73-.44,1.11-1.77,1.02-2.43,2.63-2.74,6.61-8.18,29,3.15,29.6.27.26-.54,1.29-.98,1.5-4.61,2.27-30.06,5.67-36.6,6.35-24.42,2.57-66.82-.76-89.65-10.01-33.79-13.68-49.31-60.14-8.63-74.8.4-2.67-.48-1.98-2.52-2.03-12.1-.29-25.73,8.82-29.94,20.03-19.91,53.13,64.57,78.57,102.9,79.9,64.34,2.23,107.5-39.34,175.32-20.97,4.71,1.28,9.96,3.49,14.99,5,.45,3.09-1.13,1.94-3.06,1.57-6.8-1.3-15.12-2.94-21.92-3.57-31.5-2.92-60.72,2.49-90.16,13.24-3.63,1.33-7.48,2.6-10.74,4.75-22.94,4.15-41.6,8.41-65.48,7.03-24.22-1.39-76.29-18.16-95.59-33.05-12.91-9.96-23.38-33.45-17.79-49.45,8.18-23.42,31.91-36.79,55.97-27.92,7.91,2.92,10.84,9.51,15,11.47,7.2,18.92-13.88,30.94-12.99,5.99h2.99c-1.22,7.7,6.26,12.38,6.1,2.49-.09-5.39-6.69-8.16-8.6-5.46-.65.92-.26,2.6-.49,2.97-.06.09-1.55-.23-2.03.67-11.5,21.44,24.19,29.37,34.71,7.54,8.44-17.53-.92-35.24-16.69-44.17,9.65,1.61,50.2-3.38,62.31-5.12,5.23-.75,15.8-.88,15.61-7.86,5-1.43,13.62-3.69,13.47-10-5.58,1.57-13.96,2.77-14.47,10-10.07,2.47-17.66,1.83-27.46,3.01-16.96,2.04-33.81,5.17-50.92,5.98l.46,4c-7.27-1.97-12.62-7.18-22.44-8.03-41.9-3.63-64.93,20.72-92.43,46.5-3.04,2.85-7.35,6.32-10.87,8.6-1.72,3.03,3.68,4.81,4.87,5.87,1.42,1.27,7.1,7.33,8.46,6.99,6.17-9.39,14.56-16.58,22.1-24.88,1.01-1.11,1.48-2.51,3.4-2.09,1.68,6.46-17,30.95-16.8,33.48.05.62,8.12,7.55,9.76,6.43.98-.67,6.67-19,8.17-22.31,1.22-2.69,3.01-5.72,4.43-8.61.7-1.43-.21-2.5,2.44-2,2.57,10.04-6.99,18.08-8.01,26.44-.79,6.44-.92,13.32,5.06,16.97,24.93,15.24,51.19,30.15,79.1,39.78,18.65,6.44,50.08,16.56,69.18,17.74,30.54,1.88,53.16-13.3,81.46-20.52,24.67-6.29,59.07-4.6,84.17-.25,9.84,1.71,19.71,6.28,29.34,7.62,17.98,2.51,54.1.26,70.7-7.03,1.5-.66,3.1-.56,2.61-2.84,6.68-.85,19.36-6,23.98-10.98-36.13,7.81-72.95,3.75-106.86-10.53-2.36-.99-4.28-2.66-6.03-3.46,2.28.59,5.73-1.52,8.49-1.06,2.6.43,1.7,2.97,3.99,3.18,27.11,2.42,45.33-43.17,73.7-38.84,3.52.54,14.35,4.95,15.52,8.45,1.31,3.93-.11,2.82-1.8,3.29.15.22-.18.87.04,1.31.51.98,3.2,1.08,1.96,4.68-.31.12-.51,1.93-3.46,2.09-4.67.26-6.18-2.51-3.11-6.18,1.77-2.11,2.76-1.4,4.57-1.91-.7-1.06.06-2.79-2.96-3.57-6.76-1.75-9.43,9.27-4.56,13.59,2.51,2.22,9.2,3.73,12.29,2.24.38-.18,5.87-5.29,6.24-5.75,9.8-12.33-4.89-29.01-17-32.48,1.87-1.82,4.94-.59,7.3-1.94,1.06-.6,3.73-5.53,5.18-7.06,1.47-1.56,13.8-14.79,15.49-12.97-.34,8.62-13.33,18.9-10.78,27.26.33,1.09,1.96,3,3.27,2.71,1.56-.35,7.26-16.11,8.84-18.66,1.18-1.9,7.89-9.96,9.76-11.7,9.18-8.57,26.5-14.66,38.92-12.15,1.96.4,14.08,5.67,14.71,6.76,1.75,3,.08,14.36-3.79,16.78-3.58-1.26-4.16-.41-7.99-6.99-.16-2.42,9.84,9.58,8.03-4.5-.87-6.76-17.08,2.69-20.02,4.49-1.08.66-1.99.45-3.55,1.93-1.85,1.76-1.57,2.57-2.45,4.07-3.76,6.41-4.63,12.44-2.31,19.8,1.32,4.19,8.19,15.93,13.25,13.69.55-.24,4.52-2.96,4.04-4-2.51-1.75-4.73-3.42-6.99-5.51.73-1.79,3.52-.43,5,0,1.81.53,9.32,6.99,10.83,6.62l-15.58,11.23-22.45,16.59-21.97,13.18-21.56,13.61-29.32,12.85-12.33,5.85-29.8,8.68-31.66,9.02-32.34,5.98-38.45,3.65-31.55,1.35-29-2-31.5-4.17-29.08-5.14-24.42-6.7-15.29-4.83-13.71-5.17-16-6-16.69-7.03-18.31-8.97-17-9-17-10-19-13-16-12-16-13-18-15-37.37-41.68.37-.32c3.11,3.95,7.13,7.97,12,10,2.79,10.65,28.18,6.96,37.68,8.95,14.45,3.03,28.29,2.64,43,2.46,3.24-3.35-9.23-5.88-10.73-6.67-.25-.13-3.9-3-4.26-3.31-24.79-21.08-48.05-69.8-59.94-99.9,8,1.43,14.82,9.31,21.97,12.5,34.45,15.35,90.83,17.37,128.43,16.52,1.45-.03,5.23-1.22,5.44-1.05,2.52,2.13-4.56,2.97-5.44,3.04-14.97,1.23-37.79.76-53.04,0-2.47-.12-13.95-2.57-14.44-2.04-.2.22.09,2.16,0,2.96,20.67,2.54,41.59,3.87,62.47,3.07,43.29-1.66,96.08-9.94,137.09-23.75,6.65-2.24,16.19-4.84,20.1-10.9,1.05-1.63.78-3.77,1.12-4.35.19-.33,1.49-1.03,2.19-2.26,3.4-5.9,6.7-12.41,9.31-18.7-35.52,13.97-73.5,23.37-111.22,29.63-45.95,7.63-138.12,14.26-179.7-6.49-6.64-3.31-11.24-6.8-16.3-12.17.44-.84,1.1-2.08,1-3,4.44,2.29,8.24,6.36,13.46,7.01,2.5.31,5.43-.16,8.01-.03,19.95-2.67,40.29-2.8,60.45-2.99l9.44.05c10.23,1.2,22.24-.97,32.53-1.54,4.85-10.13,10.8-18.33,18.96-26,3.61-3.4,21.3-15.48,19.99-19.94-.23-.8-1.61-1.55-2.52-1.57l-23.44,3.04c-1.81-1.83,10.57-19.43,12.58-21.87,10.47-12.73,22.45-18.41,35.26-27.68,3.24-2.35,23.56-17.45,23.98-19.08.57-2.23-18.39-33.32-20.58-41.04-3.02-10.65-.89-19.78-2.53-29.44-.73-4.31-4.16-8.35-5.48-12.5-6.69-21.05,2.78-42.45,22.32-52.05l12.36-5.1c-7.11-2.71-17.65-7.71-24.97-3.01l-1-1c10.03-11.01,11.11-5.87,23.49-5.01,19.64,1.36,30.41-12.33,35.25-29.66.41-1.47.78-2.68-1.28-2.28-7.13,9.25-13.54,26.19-26.94,28-14.1,1.91-28.71-10.35-33.51,11.95-.19.88-1.74,2.3-1,4-.29.52.31,2.69,0,3-.84.8-3.82-1.76-4.99-2-1.2-1.24-.1-2.14,0-3,.81-7.18,1.71-13.89,7.65-18.83,3.32-2.77,7.1-3.42,11.05-3.25,9.99.41,21.02,6.01,28.23-4.42l12.01-16.45c-12.18-1-13.51,15.73-22.93,18.52-8.18,2.42-16.83-1.89-23.77-2.3-1.14-.07-2.23-.03-3.27.16-8.29,1.52-12.27,13.06-14.57,13.55-2.15.02-2.86-2.74-4.41-3.44-3.69-1.68-6.08-1.4-10-4.97-.7-.64-2.84-2.69-1.96-3.52,1.68-1.61,9.7,6.23,12.42,6.05,3.86-5.38,8.05-15.35,15.29-16.82,1.08-.22,2.16-.28,3.22-.22,7.48.43,14.68,6.74,23.04,4.51,7.4-1.97,11.82-17.06,21.54-18.41,9.35-1.3,16.86,1.45,22.39-9.07-4.32.66-6.05,3.6-10.74,4.73-5.51,1.33-14.7.27-18.97,2.01-5.3,2.16-8.45,11.15-12.73,14.24-7.08,5.1-13.77,1.48-20.53-.6-3.74-1.15-7.49-1.83-11.34-.3-9.12,3.62-7.45,9.27-20.27,3.08-4.46-2.15-13.03-9.49-5.31-12.18-.89,5.15,5.16,8.64,9.49,9.03,3.12.28,6.17-1.38,8.56-2.72,3.18-1.77,3.7-3.02,6.91-4.52,0,0,2.99-1.89,6.54-1.84,5.9.07,12.36,7.27,18.92,6.03,5.18-.97,10.64-14.73,16.78-17.22,6.21-2.52,12.66,1.06,18.99,0,9.1-1.52,18.89-12.58,20.23-21.72-6.51,4.25-9.32,14.34-16.95,17.01-10.91,3.82-19.86-6.37-29.5,4.47-7.14,8.03-7.98,19.74-21.99,11.45.85-1.97,3.46-.92,5.44-3.03.33-.35,1.53-2.31,1.52-2.45-.12-2-11.7-2.24-14.69.83-.47.48-1.06,1.93-1.93,2.72-1.42,1.29-2.76,1.05-4.05,1.4-4.2,1.13-7.8-2.14-11.26-5.95,3.41-1.44,6.3,1.33,10.04.09,2.56-.85,5.35-6.32,8.6-8.42,3.7-2.38,10.11-2.63,11.16-3.32.69-.45,2.71-8.95,3.65-10.84,1.2-2.41,5.85-7.62,8.22-8.76,2.76-1.33,9.89-1.54,11.06-2.42.67-.49,2.47-8.88,3.47-11.02,5.84-12.43,24.27-20.37,37.32-21.63,12.75-1.23,41.47,1.81,44.09,17.6.68,4.11-.8,6.18-.74,8.65.01.46,4.55,3.18,4.88,4.25.52,1.71-.86,3.64-.65,5.58.41,3.84,3.04,8.94,2.84,12.26-.19,3.04-2.89,4.43-3.07,7.04-.23,3.34,3.17,7.61,3.06,10.98-.06,2.04-1.74,3.33-1.75,3.97-.01.65,5.82,8.17,6.44,11.2.74,3.62-.65,13.44.66,15.32,1.67,2.4,17.08-.02,20.83.92.88.22,1.2,2.33,2.94,3.26,10.74,5.71,16.92-4.65,27.08-7.4,6.46-1.75,24.44-1.46,27.64-3.33.56-.33,5.31-8.9,7.01-10.98,13.31-16.3,36.48-25.26,48.46-45.45,6.06-10.21,6.9-25.42,21.18-27.77,2.54-.42,7.97.57,8.31.33.79-.54,5.78-13.3,6.94-15.56.12-.24,1.53-1.01,2.2-2.25.71-1.32,4.3-8.13,3.79-8.73M382.5,260.89c-.27-1.12.82-2.51-1.4-1.91-3.06.82-12.46,6.57-13.38,9.61-.65,2.16.11,4.42-.96,7.03-1.32,3.22-5.44,3.63-6.24,7.24,8.25-.56,10.92-10.31,17.44-14.02,2.5-1.42,20.51-7.89,23.46-8.51,10.49-2.2,15.02,2.23,24.03,5.55.02-12.06-19.37-15.16-28.23-13.74-1.03.17-8.88,2.81-8.72,3.25.76,2.14,11-.52,13.39.6l3.58,1.9-21.97,4.01c-.44-.16-.89-.56-1-1ZM431.45,269.88c8.04-2.65,2.82-13.42-4-13.97-.37,1.61,1.37.41,1.95,1.73,1.44,3.29,2.29,8.66,2.05,12.25ZM592.29,282.87c-.07.35-.92,1.04-1.04,2.41-.54,6.28,1.49,11.53,5.04,3.58,2.84-6.36,5.82-25.81,14.31-25.64,6.37.13,6.19,4.12,9.62,7.2,3.2,2.87,7.29,5.53,10.53,8.45,1.36-2.34.04-5.55-.5-7.99,6.75.14,1.46-2.93,1.33-3.19-.31-.63.79-2.54-.25-4.15-.66-1.02-1.95-.52-2.08-.65-6.36-6.03-9.93-7.88-19.23-5.74-12.36,2.85-15.55,14.51-17.73,25.72ZM421.46,270.87c-3.89-5.26-15.42-7.58-21.27-6-.49.13-1.78,2.5-3.63,3.58-4.6,2.69-11.49,3.06-16.02,5.97-3.79,2.43-7.23,8.14-10.49,11.49-1.56,1.6-6.67,3.37-.79,3.3,11.59-.12,24.99-1.01,32.21-11.33-5.89.18-10.89,4.01-16.57,4.9-5.33.83-6.27-.93-1.66-3.66,1.65-.98,16.25-8.5,17.18-8.8,6.3-2.02,14.55.91,21.04.55ZM622.64,276.48c-.53-.43-.76-1.53-1.45-1.99-1.54-1.02-9.64-4.87-10.91-3.61-2.32,2.32,2.92,3.77,3.92,4.55,2.39,1.87,11.96,11.52,14.06,9.43,2.52-2.52-4.07-7.13-5.61-8.38ZM418.46,318.83c4.83-1.39,9.04-6.43,10.68-6.84,1.66-.41,11.98,2.1,13.29.84,1.01-4.18-9.54-18.45-7-20.97.41-.41,6.31,1.04,6.94-1.57.16-.67-4.31-11.63-5.06-12.79-6.7-10.33-16.01-1.47-25.19-.71-2.59,5.5-6.02,10.59-8.65,16.07-1.06,2.21-3.67,6.41-3.75,8.66-.11,3.43,9.71,16.41,12.76,17.81,2.74,1.26,3.72.15,5.97-.5ZM619.38,294.74c2.17,1.27,5.16-1.74,4.93-4.32-.29-3.21-11.75-11.61-16.05-10.06-2.69.97-.26,1.27.26,1.76,2.59,2.44,5.37,4.55,7.72,7.27,1.13,1.31,2.87,5.19,3.14,5.35ZM534.35,346.81h-1c-.43-1.53,1.38-3.81-1.47-4-9.05-.61-22.8,1.34-31.18,4.82-3.72,1.54-11.45,7.74-13.05,8.02-2.77.48-6.19-1.6-9.25-.84-.64.6,3.45,12.12,3.99,13.98.99,3.42.42,7.73,2.99,10.55,2.05,1.26,22.2-6.78,25.66-8.37,8.1-3.75,14.1-9,22.3-13.17,1.65-.84,1.59-.28,4-2,5.27-3.77,9.64-9.24,13.99-13.99,13.39-14.63,23.8-30.62,33.7-47.72l.28-7.22c-10.9,25.97-43.9,31.66-50.96,59.93ZM338.54,307.84c2.13-2.16,10.76-12.51,11.69-12.78,6.76-1.98,18.24,2.88,26.79,1.79,1.46-.19,3.11-.78,1.48-1.99-12.8,2.09-24.91-12.3-34.96.5-1.85,2.36-3.83,7.48-6,9.49-1.06.98-6.41,2.55-5.99,4.48.35,1.63,3.93,1.87,5.38,1.4,1.75-.58,1.33-2.61,1.6-2.88ZM386.49,391.76l-1.99-2.99c1.63,9.4-16.67,18.18-17.84,24.71-.24,1.34-.04,5.13,1.84,5.25-.46-9.18,10.96-7.15,14-13.98,6.3-2.42,9.44-9.86,8.76-16.21-.61-5.67-5.55-13.14-5.41-18.1.22-7.78,9.06-12.28,9.69-19.13.68-7.39-5.03-13.51-4.07-22.01.51-4.47,3.89-7.85,5.24-11.74,1.52-4.41.71-7.26-2.25-2.25-4.29,7.27-6.72,12.21-5.95,21.01.38,4.29,3.3,9.79,2.81,13.73-.52,4.14-6.29,10.53-7.99,15.06-4.02,10.7,3.73,15.72,3.18,26.66ZM397.47,342.8c-1.78-9.29,5-16.19,5-24.97-4.51,4.65-7.14,11.93-6.86,18.35.05,1.09.61,6.23,1.87,6.62ZM415.45,340.8c.26-.23,2.09-4.39,3.51-6,2.56-2.9,14.37-12.7,15.02-13.96,2.11-4.09-5.09-2.97-7.25-2.24-4.31,1.45-12.53,8.14-13.16,12.81-.24,1.79-.99,11.84,1.88,9.39ZM447.42,334.81c2.66-3.48-5.89-19.18-8.98-15.97l.97,4.52,8.01,11.46ZM410.47,322.84c-2.01-.51-3.5,2.68-4.4,4.08-6.12,9.54-2.52,12.12-2.51,21.39.01,11.74-19.28,18.38-9.06,31.46l2.57-10.9c4.74-6.12,13.44-8.24,13.14-17.3-.11-3.4-2.26-7.18-2.65-10.33-.87-7.07,1.58-11.74,2.91-18.4ZM426.45,336.82c-.93,1.76-1.92,2.82-1.59,5.02,1.94,13.17,17.53,31.14,14.11,43.97-1.64,6.14-11.05,12.89-8.29,21.21l5.76,18.71c4.21-7.5-2.98-16.88-1.8-23.21.93-5,6.33-7.55,8.55-11.5,8.01-14.27-4.23-24.49-6.73-38.2,1.6-1.71,7.58,9.21,8.16,10.31,1.27,2.41,2.53,4.88,3.61,7.38.34.79,2.63,11.18,4.08,5.64.94-3.58.2-9.86-1.47-13.25-1.85-3.76-7.39-8.16-8.91-12.07-1.07-2.75-1.77-14.2-2.58-14.9-.98-.83-7.14.52-8.89-.11-1.74-.63-.84-4.95-4,1ZM450.42,356.79l-.55-6.93-8.43-12.04c-.02,6.33,3.15,11.92,6.51,16.99.76,1.15-.25,2.59,2.47,1.98ZM413.2,425.47c.77-.77,1.65-3.32,1.98-4.5,3.97-14.29-8.99-22.35-.91-40.89,4.22-9.67,9.35-13.7,8.23-26.74-.97-1.96,1.64-11.17-.56-11.53-3.75-.62-5.31,12.14-6.2,14.76-4.8,14.18-19.39,16.12-18.87,37.52.27,11.03,10.33,17.16.61,28.13-1.22,1.38-3.04,1.92-4.43,3.56-5.4,6.36-5.83,14.02.43,19.92-6.1-14.17,5.97-14.12,11.38-22.06,8.47-12.43-4.45-20.35-4.27-31.28.07-4.15,7.48-22.93,11.88-18.58.82.81-6.8,13.93-6.81,18.47-.02,9.37,14.49,22.77,4.83,33.98.36.53,2.61-.67,2.71-.77ZM373.5,377.78c-2.82-.92-12.16,5.95-14.02,8.45-2.44,3.28,1.58,4.19,4.33,3.35,1.03-.31,6.35-4.99,8.8-6.24,1.2-.62,3.3-.32,3.77-.72.56-.47-.07-2.16.12-2.84,1.86-6.61-.67-10.5,1.29-17.2,1.97-6.76,8.24-10.83,7.7-17.76-5.53,5.2-12.87,14.68-13.01,22.53-.06,3.28,1.79,6.88,1.03,10.44ZM446.43,442.71c2.26-1.15,3.55-3.6,4.8-5.69,9.27-15.52,21.27-57.85,21.26-75.72,0-4.47-1.07-11.85-7.07-10.48,1.44,4.6,2.3,9.41,1.74,14.22-3.63,31.02-22.67,66.48-43.67,89.19-3.99,4.31-18.91,16.39-20.51,19.45-2.29,4.39,1.33,2.44,3.5,3,5.09,1.3,9.44,4.02,14.51.02,3.89-3.07,17.55-20.31,20.88-25.08,1.66-2.38,4.34-6.02,4.58-8.91ZM458.43,365.79c2.06-.52,1.6-1.47,1.57-2.98-.02-1.12-.71-14.36-3.57-11-2.1,6.26,2.38,8.67,2,13.98ZM406.48,430.71c5.18.27,13.32-2.85,16.42-7.04,6.82-9.21-.14-17.05,1.61-26.37.63-3.34,5.51-7.34,7.11-10.86,4.04-8.87.4-17.15-4.68-24.64-2.95-1.44-.46,5.62-.45,6.53.06,6.77-7.26,15.88-8.03,23.93-1.06,11.05,9.45,23.19-.48,32.49l-11.5,5.97ZM357.52,372.77c4.67.49,8.22-2.08,7.98-6.98l-7.98,6.98ZM436.44,481.66c5.3.36,6.67,2.72,10.42-2.06,10.58-13.46,21.04-37.24,25.05-53.87,4.43-18.35,7.26-38.19,4.47-56.95l-5.28,39.16c-6.11,26.61-17.42,52.55-34.67,73.71ZM559.32,368.79c-5.78,2.95-12.54,4.48-18.35,7.11-12.49,5.66-22.94,14.67-35.61,19.34-7.37,2.71-15.1,3.87-22.47,6.5-2.99,3.91-2.02,33.83-2.5,40.45-.93,12.7-5.98,25.71-5.97,38.48.8,1.12,22.22-10.83,24.94-11.52,3.43-.86,8.44.41,10.53-1.46l49.43-98.91ZM321.56,406.75c.11,7.12,5.3,18.56,10.35,23.62,1.76,1.76,6.82,3.9,7.48,6.05,1.22,3.95-2.92,6.1-2.93,10.78-.04,12.49,5.9,19.24,10.81,29.24,1.74,3.55,2.1,7.38,4.43,11.55,7.11,12.69,12,13.91,25.59,16.37,25.45,4.61,59.39,4.63,85.02.64,1.31-.2,2.68-1.3,3.1-1.35,3.12-.39,8.97,1.22,13.48.98,4.08-.21,18.17-4.07,19.86-3.75,2.13.41,11.49,11.05,12.61,9.75,1.24-9.56-12.62-9.81-10.98-18.97.73-.86,7.19,4.61,8.02,5.46,2.02,2.04,4.64,7.23,4.98,7.52,2.2,1.85,3.42-4.17,2.82-6.26-.98-3.44-16.38-13.13-13.82-15.7,2.04-2.05,15.8,10.71,16,13.97,1.86-.11,2.07-3.91,1.83-5.24-.86-4.78-16.23-13.92-15.83-16.21.39-2.24,2.25-.81,3.27-.3,1.94.97,5.31,2.8,7.02,3.98,2.02,1.39,8.59,7.81,9.19,7.77,3.6-.24.32-6.64-1.47-8.5-13.14-13.6-29.72,1.08-43.01,6.01-14.48,5.38-33.93,4.04-49.42,2.5-20.63-2.05-41.93-10.07-62.46-2.98.09-.63-.06-1.35,0-2,2.79-1.27,3.28-4.09,4.27-4.72,1.51-.96,4.74.02,5.71-2.02,1.16-2.45,1.19-9.83,1.04-12.78-.93-18.26-12.48-31.71-27.01-41.42-.01-2.05-1.11-3.92-.99-5.99,2.44-.18,5.92,2.09,8.05.56.48-.35,3.71-10.66,3.77-11.25.1-1.01-4.54-6.13-5.63-8-1.51-2.58-2.17-4.61-3.2-7.29-.62-1.63-.12-3.97-1.57-5.93-1.86-2.51-5.91-1.81-3.43-7.05-16.31,3.09-27.23,13.64-26.97,30.96ZM440.43,408.74l2-9.98c-1.01.27-3.72,4.25-3.82,4.69-.17.73.25,5.34,1.82,5.29ZM473.41,438.72c-1.88,7.3-3.51,14.52-5.73,21.74-1.8,5.85-6.57,15.54-7.24,20.75-.33,2.58,4.94,1.72,6.02,1.01,1.25-.82,3.13-10.11,3.64-12.34,2.43-10.56,5.01-23.51,6.31-34.15.14-1.16.92-2.46,1.04-4.43.07-1.08.69-4.74-1.03-4.56-.4,4.14-1.98,8-3.01,11.98ZM419.42,442.68c.17-.22.39-2.08-.46-1.96-5.11,6.43-14.36,12.59-19.03,18.93-.69.94-2.37,3-1.45,4.04.51.57,5.41-3.84,6.02-4.44,4.47-4.33,10.1-11.1,13.34-16.19.3-.48,1.5-.28,1.57-.38ZM391.5,471.68c2.34-1.44,5.27-4.09,5.5-6.97-2.55,1.84-6,3.1-5.5,6.97ZM487.39,513.64h-19.48c-.95,0-5.3,1.7-5.97,3.03l-5.01,15.97,23.85-7.12c2-.59,7.2-11.35,6.6-11.88ZM422.46,562.6c-.64.83-.8,1.74-1,2-11.78,15.31-28.04,31.56-43.49,44.93-6.06,5.24-13.88,8.81-18.45,16,3.56,0,7.47-1.36,10.67-2.81,6.17-2.79,19.8-12.26,25.23-16.73,9.31-7.65,15.22-17.87,24.91-24,6.86-4.33,12.36-10.15,18.11-14.4,8.92-6.6,19.25-12.55,28.35-19.15,2.35-1.7,4.74-2.95,6.32-4.12.77-.57,4.91-8.13,4.28-8.69-17.41,2.9-30.32,16.71-42.95,27.97-4.13,3.68-8.41,7.23-12.5,10.97.39-2.6,1.35-5.61,2.51-7.97,2.27-4.64,8.98-9.77,12.5-13.97,9-10.73,17.95-21.01,21.46-34.97-8.87,1.84-11.46,12.83-16.56,19.89-5.78,7.99-13.33,17.23-19.4,25.06ZM290.59,557.6c-2.57,1.15-9.09,8.93-4.61,7.89,11.6-5,24-9,35.25-14.71,12.97-6.59,23.72-15.98,36-22.95,1.2-.68,12.48-5.36,11.28-6.19-3.42-.52-7.71-.47-10.99-1.01-1.88-.31-3.11-1.85-4.55-2-3.17-.34-8.47,5.23-11.76,7.17-14.28,8.39-34.7,15.53-46.63,26.3-1.66,1.5-3.77,3.08-3.99,5.5ZM407.47,556.6c5.91-5.75,12.64-11.7,18.5-17.97l14.47-16.99c-5.1-.78-9.55,1.68-14.45,2.03-12.14.85-25.25-.71-37.49-.03-.16,1.86,2.75.8,3.99.99-22.51,23.68-52.13,37.05-79.28,54.13-.9.57-1.34,1.63-1.64,1.82-11.62,7.35-17.6,10.17-27.97,19.98-11.88,11.24-20.85,22.05-24.99,38.45,6.43,1.92,7.08-5.2,9.14-7.88,30.46-39.64,86.92-58.6,123.22-93.53l12.51-11.96c6.73.06,13.31-.24,19.98-.99,2.16,2.13-7.61,13.76-9.48,15.99-2.14,2.56-7.69,9.22-9.5,10.98-23.21,22.44-52.94,38.33-78.82,57.55-10.36,7.7-21.55,16.36-30.05,25.88,6.77-1.39,12.72-4.97,18.63-8.34,33.71-19.23,65.65-43.25,93.24-70.09ZM574.31,543.6c2.31-2.99-11.57-6.84-13.5-6.98-13.64-.97-32.78,11.27-43.75,19.16-2.27,1.63-5.18,3.45-6.68,5.8,10.78-1.67,21.27-7.53,31.96-10.49,7.05-1.95,13.69-2.25,20.26-3.72,1.42-.32,11.35-3.28,11.72-3.77ZM283.09,565.59v1c.65-.33.65-.67,0-1ZM642.74,625.53v1c.65-.33.65-.67,0-1ZM642.24,627.54l-13.97,14.49c-24.94,23.83-59.18,37.46-86.45,56.41-1.5,1.04-3.84,1.69-3.47,4.01,2.32.34,4.35-.32,6.53-.95,14.73-4.3,39.08-18.16,52.32-26.6,18.48-11.79,36.35-26.73,45.04-47.36ZM206.66,663.5c-1.09-1.09-3.08.9-1.99,1.99,1.09,1.09,3.08-.9,1.99-1.99ZM406.82,674.83c1.22-1.53,4.84-2.48,4.16-6.32-22.72,3.78-44.64,10.72-67.42,14.49-52.46,8.68-109.9,11.05-161.08-4.81-7.5-2.32-14.54-6.12-21.64-8.33-.81-.25-2.18-.91-2.14.14,1.86,12.07-.83,12.02,10.8,16.18,59.92,21.44,157.71,16.01,219.04-.16,10.3-2.72,11.92-3.21,18.28-11.19ZM247.62,716.45c-14.82-1.01-29.54-3.77-44.39-4.06l-43.49-16.44c1.23,2.54,2.9,3.39,5.31,4.66,10.47,5.55,27.03,11.85,38.62,14.34,7.94,1.71,36.55,6.38,42.73,3.75,1.43-.61,1.51-.26,1.24-2.25ZM387.48,718.44c.72-1.4-.63-2.67-.98-1.99-.72,1.4.63,2.67.98,1.99ZM385.99,719.44v1c.65-.33.65-.67,0-1ZM710.18,737.43c-35.59,2.84-31.16,44.53-13.47,64.92l7.03-5.99c9.66-3.39-1.04-6.59-5.05-10.98-10.56-11.55-11.11-31.31,1.6-41.38,3.2-2.54,7.39-3.48,9.9-6.57ZM185.69,754.41l-32.97-4c.9,4.05,6.74,8.33,10.55,8.92,2.75.43,21.47-.79,22.41-1.96.23-.29-.13-2.15.01-2.97ZM673.22,766.4c-.43,3.95-1.29,7.44-1.04,11.52.33,5.64,5.6,26.95,9.51,30.44,2.11,1.89,6.37,1.57,6.58-1.53.19-2.72-10.1-16.73-10.84-21.18l-4.21-19.26ZM623.26,788.38c-6.01-.98-15.31,9.3-16.02,14.43-1.84,13.23,6.78,30.22,22.02,28.51-10.16-8.72-17.79-17.08-12.76-31.24,1.63-4.59,5.09-7.4,6.77-11.71ZM628.76,794.37v1c.65-.33.65-.67,0-1ZM628.25,796.37c-2.54-.57-1.75.66-2.58,1.87-6.08,8.78-3.36,16.84,2.36,24.83,3.79,5.29,6.33,8,13.21,5.25-9.22-9.9-18.94-16.84-12.99-31.95ZM558.32,861.32c-.71-.71-16.64-5.87-18.99-6.5-24.44-6.6-62.31-6.31-86.92-.02l-48.93,17.48c17.64,2.61,35.66,2.44,53.32-.11,8.35-1.2,16.29-4.25,25.11-4.86,16.15-1.11,33.12,2.33,49.44.98-.38-2-2.11-1.64-3.5-1.99-9.68-2.44-27.06-5.37-36.97-5.99-9.54-.6-18.98.69-28.46.98.43-1.67,2.27-2.32,3.75-2.73,16.2-4.54,44.66-4,61.58-2.15,8.43.93,17.49,6.03,26.09,6.88,1.18.12,6.8.34,4.48-1.97Z"/><path class="cls-24" d="M636.24,518.64c1.09,1.09-.9,3.08-1.99,1.99s.9-3.08,1.99-1.99Z"/><path class="cls-17" d="M322.55,813.35c4.32.4,8.52-1,11.49-1h16.98c11.89,0,38.52-24.71,45.3-34.63,3.64-5.32,13.26-25.59,16.65-28.31,1.98-1.59,3.84-.62,5.73-1.28,5.28-1.86,5.07-7.45,7.93-12.03,10.32-16.51,27.24-28.56,46.53-32.39,3.05-.61,17.58-2.68,19.73-2.29,2.28.41,2.05,2.35,3.75,3.36,4.41,2.61,10.39,2.69,15.24,4.65,10.93,4.4,22.97,20.27,22.39,32.35-.4,8.34-9.57,17.38-18.32,14.49-1.65-.55-1.43-2.73-1.6-2.86,5.71-2.26,10.26-9.38,10.02-15.44-.51-13-14.72-21.56-25.97-24.06-51.11-11.38-84.07,56.87-54.81,94.77,8.62,11.17,15.08,11.14,28.79,8.65l-14.5-9.96c-30.51-26.93-8.01-89.94,31.99-89.94h15.48l-16.66,4.82c-21.71,7.67-30.24,31.98-23.3,53.13-4.12-.17-2.31,6.18-1.67,8.15,2.01,6.2,12.16,22.78,18.08,24.89,3.3,1.18,6.02.43,8.82,1.16,1.71.45,7.68,5.24,9.55,3.56.44-.4.07-1.72.18-1.8.67-.46,5.65,1.48,1.65-4.66-3.48-5.34-13.12-12.07-17.61-17.84-2.78-3.58-10.63-15.9-10.02-19.87.2-1.32,1.48-2.32,1.7-3.39.82-3.86-.45-9.64,5.3-8.19-.1.63.08,1.36,0,2-.03.24-1.12.85-1.02,2.37.05.88,1,1.43,1.02,1.63,2.32,19.13,17.08,36.64,32.72,46.97,3.54,2.34,19.84,9.36,21.22,10.99.16.19.37,1.95-.51,1.99-5.36.27-14.79-7.49-15.47,1.98-67.82-18.37-110.98,23.2-175.32,20.97-38.33-1.33-122.81-26.77-102.9-79.9,4.2-11.21,17.84-20.32,29.94-20.03,2.04.05,2.92-.64,2.52,2.03-40.68,14.65-25.16,61.11,8.63,74.8,22.83,9.25,65.22,12.58,89.65,10.01,6.54-.69,31.99-4.09,36.6-6.35.44-.22,1.25-1.24.98-1.5-11.33-.6-5.89-22.99-3.15-29.6.67-1.61,1.99-1.52,2.43-2.63,2.53-6.38,3.28-11.81,2.71-18.73-2.26-2.59-8.42,12.13-9.16,13.31-20.82,33-44.53,39.24-82.74,37.64.74-1.37.51-3.88,1-5,1.91-4.37,5.69-.71,2-6.99ZM422.45,769.4c-1.77-2.02-5.7,7.1-5.93,8.55-.93,5.97.31,19.65,2.45,25.4.7,1.88,9.58,16.07,10.45,16.52,2.31,1.18,11.43-.05,14.03-1,2.38-.87.82-1.08-.24-1.77-16.57-10.84-20.64-28.86-20.76-47.69ZM483.39,812.37c-.45-.51-6.84-3.16-8.31-4.19-2.39-1.67-7.13-6.55-8.65-7.34-1.75-.91-1.92-.16-3.01,1.04-1.3,5,14.82,11.99,18.53,12.44,1.85.22,2.17-1.11,1.44-1.95ZM486.89,814.35v1c.65-.33.65-.67,0-1Z"/><path class="cls-17" d="M181.69,777.39c30.87-27.92,63.87-61.38,109.89-46.94.85,2.29-2.61,4.08-1.58,5.99.8,1.51,8.91,4.24,11.63,7.42,1.33,1.55,5.86,10.52,4.93,11.55-1.42-.74-5.16-.61-5.99-1-4.16-1.97-7.09-8.56-15-11.47-24.06-8.87-47.79,4.5-55.97,27.92-5.58,16,4.88,39.48,17.79,49.45,19.3,14.89,71.37,31.66,95.59,33.05,23.88,1.37,42.53-2.88,65.48-7.03,23.1-4.18,46.82-14.89,70.39-16.02,8.62-.41,18.1,2.08,27.07,1.09,2.26-.25,3.46-.34,3.45-3.05,6.8.63,15.12,2.26,21.92,3.57,1.93.37,3.51,1.52,3.06-1.57,6.84,2.04,9.94,6.52,12.47-2.98,17.6,7.34,36.6,11.47,55.47,13.98,1.35,2.62-2.31,3.99-4.5,3.99h-14.49c-.48,3.03.75,1.6,2.43,2.02,5.59,1.41,17.21,1.62,23.05.98,6.08-.66,11.09-4.9,16.22-5.76,4.08-.69,8.38.25,12.25-.24.49,2.28-1.11,2.18-2.61,2.84-16.6,7.29-52.72,9.54-70.7,7.03-9.63-1.34-19.51-5.91-29.34-7.62-25.1-4.35-59.5-6.04-84.17.25-28.31,7.22-50.93,22.4-81.46,20.52-19.09-1.17-50.52-11.3-69.18-17.74-27.91-9.63-54.17-24.54-79.1-39.78-5.97-3.65-5.85-10.54-5.06-16.97,1.03-8.36,10.58-16.4,8.01-26.44-2.66-.5-1.74.56-2.44,2-1.41,2.89-3.21,5.92-4.43,8.61-1.5,3.31-7.19,21.64-8.17,22.31-1.64,1.12-9.71-5.81-9.76-6.43-.2-2.53,18.48-27.01,16.8-33.48-1.92-.42-2.39.98-3.4,2.09-7.54,8.3-15.94,15.49-22.1,24.88-1.36.34-7.04-5.73-8.46-6.99Z"/><path class="cls-23" d="M750,743c0,5-5.64,12.1-7,13-6,4-8,4-12-1-1.26-1.58,3-13-2-14-3.48-.7-10,2-17,7-2.14,1.53-4,7-5,10-3.42,10.26,12.97,20.91,11.17,20.38l-9-8.49c-3.93-7.15-2.32-14.98,2-21.49,2.94-1.8,19.82-6.41,19.82-.41,0,1.08-.21,1.62-.57,1.82-.4.22-1.11-.15-2.5-.89-2.47-1.32-3.24-1.73-3.93-1.44-.26.11-.58.35-.84.93.84,2.58-.16,5.58,6.84,8.58.71.3,2.76,1.46,6.65,1.46,9.26,0,10.72-14.54,7.48-21.03l-1.73,9.74-2.25,1.24c-1.37-3.91.26-8.29.09-11.5-.31-5.96-10.3-8.89-15.08-10.49-.58-1.26,4.21-1.1,1.99-2.98-.25-.21-5.45-.9-6.51-.99-13.82-1.21-26.79,1.82-39.13,7.79-11.91,5.77-21.62,16.48-35.27,18.16-2.29-2.12,12.29-11.98,13.45-13.01,1.85-1.64,19.43-12.22,20.3-13.4,0,0,6-4,9-5,12.73-4.24,14-4,29-1s32,8.89,32,27Z"/><path class="cls-24" d="M122.75,615.54c5.22,8.74,15.13,15.74,23.95,20.5,48.14,25.99,150.68,16.36,204.01,6.16,21.62-4.13,42.86-10.53,64.24-15.68,1.03.4,1.09,1.5-.12,2s-15.06,2.09-11.35,6c.9.95,22.65-3.43,25.97-3.99-.34.58-.07,2.72-1.12,4.35-3.91,6.06-13.44,8.66-20.1,10.9-41.01,13.82-93.8,22.09-137.09,23.75-20.88.8-41.8-.53-62.47-3.07.08-.8-.21-2.74,0-2.96.49-.54,11.96,1.91,14.44,2.04,15.24.77,38.07,1.24,53.04,0,.88-.07,7.96-.92,5.44-3.04-.21-.18-3.99,1.01-5.44,1.05-37.6.85-93.99-1.17-128.43-16.52-7.15-3.19-12.71-10.02-20.71-12.02-2.16-5.48-5.18-11.92-7.25-17.46,1.66.35,2.23-.75,3-2Z"/><path class="cls-23" d="M544.34,722.44c.21,1.42.99,3.79,1,4,1.13,18.5-9.82,42.9-31.95,34.45-17.19-6.57-9.92-28.87,2.47-26.47,5.75,1.11,2.83,8.58-2.01,9.99-3.45,1.01.58-5.91-.48-6.97-2.93-2.92-10.32,9.29-1.93,15.46.91.67,2.69.34,2.93.52.17.13-.05,2.31,1.6,2.86,8.75,2.89,17.93-6.15,18.32-14.49.57-12.08-11.46-27.95-22.39-32.35-4.86-1.96-10.83-2.04-15.24-4.65-1.7-1.01-1.48-2.94-3.75-3.36-2.15-.39-16.68,1.69-19.73,2.29-19.29,3.83-36.21,15.88-46.53,32.39-2.86,4.58-2.65,10.17-7.93,12.03-1.89.67-3.75-.31-5.73,1.28-3.39,2.72-13.01,22.99-16.65,28.31-6.78,9.91-33.41,34.63-45.3,34.63h-16.98c-2.97,0-7.17,1.39-11.49,1-1.42-.13-2.39.21-3.94-.52-2.16-1.01-8.87-7.89-4.39-9.31,5.8-1.84,22.61.58,30.55-.42,43.37-5.44,55.21-57.15,80.16-84.68,22.39-24.7,55.86-39.48,88.94-27.97,15.77,5.48,27.97,14.92,30.45,31.98Z"/><path class="cls-23" d="M691.19,406.75c10.94,18.53,13.03,29.77,14.03,51.41,6.1,132.14-43.67,250.6-158.19,320.43-8.14,4.96-25.72,14.05-35.17,12.8-1.37-.18-2.89-.53-1.48-1.99.81-.84,18.26-7.12,21.65-8.83,27.89-14.06,56.42-39.95,78.25-62.12,9.11-9.25,17.77-17.21,25.41-28.04,22.06-31.29,53.61-95.93,51.03-133.81-.1-1.48,1.38-3.12-1.51-3.99,2.04-11.01,3.91-24.81,5-35.96h6c2.39-16.04,3.65-32.22,3.03-48.49-.68-18.06-2.36-35.49-11.03-51.41-1.52-2.78-3.57-7.06-6-9.49-7.46-7.44-23.58-8.03-30.96-.5-2-1.3-2.12-3.81-2-5.99.7-.56,1.36-2.56,2-3,8.35-5.73,28.3-6.8,35.53.94.75.81,3.28,6.1,4.43,8.05ZM686.7,550.61v1c.65-.33.65-.67,0-1Z"/><path class="cls-24" d="M406.82,674.83c-6.36,7.98-7.98,8.48-18.28,11.19-61.34,16.17-159.12,21.6-219.04.16-11.62-4.16-8.93-4.11-10.8-16.18-.04-1.05,1.33-.39,2.14-.14,7.1,2.21,14.14,6.01,21.64,8.33,51.18,15.86,108.62,13.49,161.08,4.81,22.79-3.77,44.7-10.71,67.42-14.49.68,3.83-2.94,4.78-4.16,6.32Z"/><path class="cls-23" d="M367.51,483.67c20.52-7.08,41.82.93,62.46,2.98,15.49,1.54,34.93,2.88,49.42-2.5,13.29-4.93,29.86-19.61,43.01-6.01,1.79,1.86,5.07,8.26,1.47,8.5-.6.04-7.18-6.38-9.19-7.77-1.71-1.18-5.08-3.01-7.02-3.98-1.02-.51-2.88-1.94-3.27.3-.4,2.29,14.97,11.42,15.83,16.21.24,1.33.03,5.13-1.83,5.24-.2-3.26-13.96-16.02-16-13.97-2.56,2.57,12.84,12.26,13.82,15.7.6,2.1-.61,8.11-2.82,6.26-.35-.29-2.96-5.47-4.98-7.52-.83-.84-7.29-6.32-8.02-5.46-1.64,9.16,12.22,9.41,10.98,18.97-1.12,1.3-10.48-9.34-12.61-9.75-1.69-.32-15.78,3.54-19.86,3.75-4.51.23-10.36-1.38-13.48-.98.44-13.26-6.99-4.63-12.44-3.94-19.65,2.47-55.33.89-74.74-3.28-1.8-.39-10.5-3.54-11.24-4.75-1.52-2.5.14-5.52.51-8Z"/><path class="cls-23" d="M302.57,724.44c.29.08.66-.06,1,0,15.77,8.93,25.14,26.64,16.69,44.17-10.52,21.83-46.21,13.91-34.71-7.54.48-.9,1.97-.58,2.03-.67.23-.37-.16-2.05.49-2.97,1.91-2.7,8.51.07,8.6,5.46.16,9.89-7.32,5.22-6.1-2.5h-2.99c-.89,24.96,20.19,12.93,12.99-5.99.82.39,4.57.26,5.99,1,.93-1.03-3.6-10-4.93-11.55-2.73-3.18-10.83-5.92-11.63-7.42-1.03-1.92,2.43-3.71,1.58-5.99-46.02-14.44-79.02,19.03-109.89,46.94-1.19-1.06-6.59-2.84-4.87-5.87,3.53-2.28,7.83-5.75,10.87-8.6,27.5-25.79,50.53-50.13,92.43-46.5,9.82.85,15.17,6.06,22.44,8.03Z"/><path class="cls-24" d="M353.52,388.76c1.02,2.69,1.69,4.72,3.2,7.29,1.09,1.87,5.73,6.99,5.63,8-.06.59-3.29,10.9-3.77,11.25-2.13,1.53-5.61-.75-8.05-.56-.12,2.07.98,3.94.99,5.99.01,1.64-2.2,9.72-2.89,10.6-1.36,1.74-5.63,1.06-6,2.95-.18.91.98,2.64.94,3.97-.31,9.47.27,4.55,3.71,11.19,2.36,4.56,6.97,16.83,6.04,21.49-.48,2.43-3.1,4.33-2.74,7.11.65,2.14,14.2,4.86,16.93,3.62-.06.65.09,1.36,0,2-.37,2.49-2.02,5.51-.51,8,.73,1.2,9.43,4.36,11.24,4.75,19.42,4.18,55.09,5.76,74.74,3.28,5.45-.69,12.88-9.31,12.44,3.94-.42.05-1.79,1.14-3.1,1.35-25.63,3.99-59.58,3.97-85.02-.64-13.59-2.46-18.48-3.68-25.59-16.37-2.34-4.17-2.69-8-4.43-11.55-4.91-10-10.85-16.75-10.81-29.24.01-4.69,4.15-6.83,2.93-10.78-.66-2.15-5.73-4.29-7.48-6.05-5.05-5.06-10.24-16.5-10.35-23.62,3.94-.24,3.62-3.18,4.5-6,1.78,11.47,16.52,6.03,20.36-1.61,2.04-4.05-.04-10.39,7.11-10.37Z"/><path class="cls-23" d="M132.74,591.57c-9.4,1.15-9.71,5.9-7.99,13.99,1.56,7.37,3.93,9.61,8.99,14.99,5.05,5.38,9.66,8.86,16.3,12.17,41.58,20.75,133.75,14.12,179.7,6.49,37.72-6.26,75.7-15.67,111.22-29.63-2.61,6.29-5.9,12.8-9.31,18.7-.71,1.23-2,1.93-2.19,2.26-3.32.56-25.07,4.95-25.97,3.99-3.71-3.92,10.12-5.5,11.35-6s1.15-1.6.12-2c-21.38,5.15-42.62,11.55-64.24,15.68-53.33,10.2-155.86,19.84-204.01-6.16-8.82-4.76-18.74-11.76-23.95-20.5-.76-1.28-1.42-4.49-2.09-6.2-.29-.73-1.7-.78-1.87-1.5-1.27-5.61.93-16.53,7.01-18.72,2.06-.74,4.58.01,5.95-1.55,2.54,2.01,1.52,2.3,1,4ZM421.45,625.54c-1.4-.72-2.67.63-1.99.98,1.4.72,2.67-.63,1.99-.98Z"/><path class="cls-23" d="M481.4,757.4c2.66-16.71,10.78-30.7,29.97-27.96l-9.66,3.81c-12.02,6.92-16.04,24.06-11.5,36.83,8.08,22.68,37.71,37.92,58.13,47.27,1.75.8,3.67,2.47,6.03,3.46,33.9,14.29,70.73,18.34,106.86,10.53-4.62,4.98-17.3,10.13-23.98,10.98-3.87.49-8.17-.45-12.25.24-5.13.86-10.14,5.1-16.22,5.76-5.84.63-17.46.43-23.05-.98-1.68-.42-2.91,1.01-2.43-2.02h14.49c2.19,0,5.86-1.37,4.5-3.99-18.87-2.51-37.87-6.63-55.47-13.98-2.53,9.5-5.63,5.03-12.47,2.98-5.02-1.5-10.28-3.72-14.99-5,.68-9.48,10.11-1.71,15.47-1.98.88-.04.67-1.8.51-1.99-1.38-1.63-17.69-8.66-21.22-10.99-15.63-10.33-30.39-27.84-32.72-46.97v-4c.08-.64-.1-1.37,0-2ZM544.34,827.33c.75-.57-4.15-3.82-4.99-2.98-1.79,1.77,3.17,3.32,4.99,2.98Z"/><path class="cls-24" d="M403.48,525.63l-12.51,11.96c-36.3,34.93-92.76,53.89-123.22,93.53-2.06,2.68-2.71,9.81-9.14,7.88,4.14-16.4,13.11-27.21,24.99-38.45,2.15.32,3.62-.02,5.57-.92,4.36-2.02,8.67-7.7,11.9-10.09,2.68-1.98,6.31-3.19,9.26-4.69,2.21-1.13,1.13-2.34,1.25-4.28.3-.19.74-1.25,1.64-1.82,27.16-17.08,56.77-30.44,79.28-54.13,4,.61,6.86.96,10.99,1Z"/><path class="cls-17" d="M650.23,798.36c1.25-3.6-1.45-3.7-1.96-4.68-.23-.44.11-1.09-.04-1.31,1.69-.48,3.11.64,1.8-3.29-1.17-3.51-12-7.91-15.52-8.45-28.36-4.33-46.59,41.25-73.7,38.84-2.29-.2-1.39-2.75-3.99-3.18-2.76-.46-6.22,1.65-8.49,1.06-.1-.03-1.38-1.57-.45-1.98,6.02-2.63,12.74-4.31,18.64-7.3,10.27-5.21,21.49-14.18,29.78-22.17,1.08-1.04,2.33-1.76,1.98-3.51-7.63.95-12.42,7.77-18.26,11.2-13.1,7.67-31.82,13.32-47.08,11.68-.96-.1-3.76-.44-3.58-1.89,20.78-5.69,39.06-13.97,57.94-23.99,4.7,6.48,6.3.69,9.75-.74,1.78-.74,5.17-.86,7.24-1.25-.23,1.68-4.26,3.07-2.5,4.98,10.86-6.16,28.51-9.25,40.74-6.76,7.73,1.57,15.19,13.44,12.58,21.12-.85,2.52-3.64,1.16-4.86,1.63Z"/><path class="cls-17" d="M558.32,861.32c2.32,2.31-3.3,2.09-4.48,1.97-8.61-.84-17.66-5.95-26.09-6.88-16.92-1.86-45.38-2.4-61.58,2.15-1.48.41-3.32,1.06-3.75,2.73,9.48-.29,18.92-1.58,28.46-.98,9.91.62,27.29,3.55,36.97,5.99,1.39.35,3.12-.01,3.5,1.99-16.32,1.35-33.29-2.09-49.44-.98-8.82.61-16.76,3.66-25.11,4.86-17.65,2.55-35.68,2.72-53.32.11l48.93-17.48c24.61-6.29,62.48-6.58,86.92.02,2.35.63,18.28,5.79,18.99,6.5Z"/><path class="cls-23" d="M351.53,420.73c14.53,9.7,26.08,23.15,27.01,41.42.15,2.95.12,10.33-1.04,12.78-.97,2.05-4.21,1.06-5.71,2.02-.99.63-1.47,3.45-4.27,4.72-2.73,1.24-16.28-1.48-16.93-3.62-.36-2.78,2.25-4.68,2.74-7.11.93-4.66-3.68-16.94-6.04-21.49-3.44-6.64-4.01-1.72-3.71-11.19.04-1.33-1.12-3.07-.94-3.97.37-1.89,4.64-1.22,6-2.95.69-.88,2.9-8.96,2.89-10.6Z"/><path class="cls-24" d="M610.27,718.44c-.45-2.25.92-3.08,1.92-4.57,34.87-52.1,61.31-98.23,73.01-161.27,2.89.87,1.41,2.51,1.51,3.99,2.58,37.88-28.97,102.52-51.03,133.81-7.64,10.83-16.3,18.79-25.41,28.04Z"/><path class="cls-23" d="M648.24,598.56c-36.53,38.18-83.89,61.65-133.87,76.92.85-4.12-4.85.13-4-4,48.39-16.4,97.71-41.65,135.87-75.93l2,3Z"/><path class="cls-23" d="M446.43,442.71c.13-1.58.08-5.54-2.48-4.99-3.76,4.27-6.67,9.27-10.48,13.51-6.4,7.11-16.8,17.17-24.53,22.47-1.25.86-2.96.76-2.47,2.98-2.17-.55-5.78,1.39-3.5-3,1.6-3.07,16.52-15.14,20.51-19.45,21-22.71,40.04-58.18,43.67-89.19.56-4.81-.3-9.62-1.74-14.22,6-1.37,7.07,6.02,7.07,10.48,0,17.88-11.98,60.21-21.26,75.72-1.25,2.09-2.54,4.54-4.8,5.69Z"/><path class="cls-23" d="M403.48,292.86c2.63-5.48,6.07-10.56,8.65-16.07,9.18-.76,18.49-9.62,25.19.71.75,1.16,5.22,12.12,5.06,12.79-.63,2.61-6.53,1.16-6.94,1.57-2.55,2.52,8,16.8,7,20.97-1.31,1.26-11.63-1.25-13.29-.84-1.65.41-5.85,5.45-10.68,6.84,4.15-8.19-8.34-8.72-11.04-13.43-1.52-2.65-.61-6-.95-6.55,5.02,1.07,12.23,5.77,17.23,4.81,6.62-1.27,10.64-6.76,6.08-12.84-8.09.61-21.61-2.96-23.31,8.03-.28-.45-4.39.24-2.16-5.33l-.83-.67ZM436.43,311.84l-2.48-8.99c-3.16,2.3.05,7.41,2.48,8.99Z"/><path class="cls-23" d="M642.24,766.4c12.11,3.47,26.8,20.15,17,32.48-.37.46-5.86,5.57-6.24,5.75-3.09,1.49-9.78-.02-12.29-2.24-4.87-4.31-2.19-15.34,4.56-13.59,3.01.78,2.26,2.51,2.96,3.57-1.81.51-2.8-.2-4.57,1.91-3.07,3.66-1.56,6.43,3.11,6.17,2.96-.16,3.16-1.98,3.46-2.09,1.22-.47,4,.88,4.86-1.63,2.61-7.68-4.85-19.54-12.58-21.12-12.23-2.49-29.88.6-40.74,6.76-1.75-1.91,2.27-3.3,2.5-4.98-2.06.39-5.45.51-7.24,1.25-3.45,1.43-5.04,7.22-9.75.74.34-.18.66-1.82,1-2,15.71-8.4,36.08-16.11,53.95-10.99Z"/><path class="cls-24" d="M642.24,627.54c-8.68,20.63-26.55,35.57-45.04,47.36-13.24,8.45-37.59,22.3-52.32,26.6-2.18.64-4.21,1.29-6.53.95-.36-2.32,1.97-2.97,3.47-4.01,27.27-18.95,61.51-32.58,86.45-56.41l13.97-14.49Z"/><path class="cls-24" d="M422.46,562.6l.99.51c.65,2.42-1.61,1.12-1.99,1.49-1.5,1.48,1.39,2.66,3,2-1.15,2.36-2.12,5.37-2.51,7.97,4.09-3.74,8.37-7.29,12.5-10.97-.87,4.5,1.52,2,4,4-5.75,4.25-11.25,10.07-18.11,14.4-9.69,6.12-15.6,16.34-24.91,24-5.43,4.47-19.06,13.94-25.23,16.73-3.2,1.45-7.11,2.8-10.67,2.81,4.57-7.19,12.4-10.76,18.45-16,15.45-13.36,31.71-29.62,43.49-44.93.2-.26.36-1.17,1-2Z"/><path class="cls-23" d="M430.45,335.82c1.74.63,7.9-.73,8.89.11.82.69,1.52,12.15,2.58,14.9,1.52,3.92,7.06,8.31,8.91,12.07,1.66,3.39,2.4,9.67,1.47,13.25-1.45,5.55-3.74-4.84-4.08-5.64-1.08-2.51-2.33-4.97-3.61-7.38-.58-1.1-6.56-12.02-8.16-10.31,2.5,13.71,14.74,23.93,6.73,38.2-2.22,3.95-7.62,6.5-8.55,11.5-1.18,6.33,6.01,15.71,1.8,23.21l-5.76-18.71c-2.75-8.32,6.66-15.07,8.29-21.21,3.42-12.83-12.18-30.8-14.11-43.97-.32-2.2.66-3.26,1.59-5.02,4.56,1.27,4.89,8.16,7.39,12.12.38.61,1.19,3.58,2.59,1.86,1.75-2.14-8.19-11.18-5.99-14.98Z"/><path class="cls-23" d="M482.4,368.78c-.54-1.86-4.64-13.38-3.99-13.98,3.05-.76,6.48,1.32,9.25.84,1.6-.28,9.33-6.48,13.05-8.02,8.38-3.48,22.13-5.43,31.18-4.82,2.85.19,1.04,2.48,1.47,4-2.21.85-1.89,3.45-3.45,5.04-5.4,5.51-28.99,12.9-37.25,14.7-3.53.77-7.34-.87-10.26,2.23Z"/><path class="cls-23" d="M551.33,341.81c-6.45.83-13.41,7.36-13.99,13.99-2.4,1.72-2.35,1.16-4,2-.75-2.33.33-8.32,1-10.99,7.06-28.27,40.06-33.97,50.96-59.93l-.28,7.22c-9.91,17.1-20.31,33.08-33.7,47.72Z"/><path class="cls-23" d="M436.44,481.66c17.25-21.16,28.56-47.11,34.67-73.71l5.28-39.16c2.78,18.76-.04,38.6-4.47,56.95-4.02,16.63-14.47,40.41-25.05,53.87-3.76,4.78-5.13,2.42-10.42,2.06Z"/><path class="cls-24" d="M688.2,416.74c8.67,15.92,10.35,33.35,11.03,51.41.62,16.28-.64,32.45-3.03,48.5h-6c3.13-32.15,2.31-60.56-1.93-92.48-.28-2.09-1.59-5.87-.07-7.43Z"/><path class="cls-23" d="M321.56,406.75c-.26-17.33,10.66-27.88,26.97-30.96-2.48,5.24,1.57,4.55,3.43,7.05,1.45,1.95.95,4.29,1.57,5.93-7.16-.03-5.08,6.31-7.11,10.37-3.84,7.64-18.58,13.08-20.36,1.61-.87,2.82-.56,5.76-4.5,6Z"/><path class="cls-17" d="M710.18,737.43c-2.51,3.09-6.7,4.04-9.9,6.57-12.7,10.07-12.15,29.83-1.6,41.38,4.01,4.38,14.71,7.59,5.05,10.98l-7.03,5.99c-17.69-20.38-22.12-62.08,13.47-64.92Z"/><path class="cls-24" d="M357.52,520.64c3.28.54,7.57.48,10.99,1.01,1.2.83-10.09,5.51-11.28,6.19-12.28,6.96-23.03,16.36-36,22.95-11.25,5.71-23.65,9.71-35.25,14.71-4.48,1.03,2.03-6.74,4.61-7.89,8.09-3.63,14.63-5.56,22.91-10.55,13.77-8.3,26.12-16.88,41.29-23.7,1.49-.67,3.27-.14,2.73-2.71Z"/><path class="cls-17" d="M185.69,734.43c.37.31,4.02,3.18,4.26,3.31,1.49.79,13.96,3.32,10.73,6.67-14.71.18-28.54.57-43-2.46-9.5-1.99-34.89,1.7-37.68-8.95,6.25,2.61,32.29-1.81,39.37-.73,8.73,1.33,17.46,2.62,26.32,2.16Z"/><path class="cls-23" d="M574.31,543.6c-.38.49-10.3,3.45-11.72,3.77-6.56,1.47-13.21,1.77-20.26,3.72-10.69,2.96-21.18,8.83-31.96,10.49,1.49-2.35,4.41-4.17,6.68-5.8,10.97-7.89,30.11-20.14,43.75-19.16,1.93.14,15.81,3.98,13.5,6.98Z"/><path class="cls-24" d="M534.35,346.81c-.67,2.67-1.75,8.66-1,10.99-8.19,4.17-14.19,9.42-22.3,13.17-3.46,1.6-23.6,9.64-25.66,8.37-2.58-2.82-2-7.13-2.99-10.55,2.92-3.1,6.73-1.46,10.26-2.23,8.25-1.8,31.85-9.2,37.25-14.7,1.56-1.59,1.24-4.19,3.45-5.04h1Z"/><path class="cls-23" d="M270.61,774.39c-1.9,17.95,17,37.01,32.99,42.43,5.48,1.86,11.1,3.45,16.96,3.52-.49,1.11-.26,3.63-1,5-21.52-.9-35.65-6.54-47.37-25.06-1.59-2.51-5.16-8.25-5.58-10.9-.53-3.34-.94-14.18,4-14.99Z"/><path class="cls-23" d="M406.48,430.71l11.5-5.97c9.93-9.3-.58-21.44.48-32.49.77-8.04,8.1-17.15,8.03-23.93,0-.91-2.51-7.97.45-6.53,5.08,7.49,8.73,15.77,4.68,24.64-1.6,3.52-6.48,7.52-7.11,10.86-1.76,9.31,5.2,17.15-1.61,26.37-3.1,4.19-11.24,7.32-16.42,7.04Z"/><path class="cls-24" d="M446.43,442.71c-.24,2.89-2.92,6.53-4.58,8.91-3.33,4.77-16.99,22.01-20.88,25.08-5.07,4-9.41,1.28-14.51-.02-.49-2.22,1.22-2.12,2.47-2.98,7.74-5.31,18.14-15.36,24.53-22.47,3.81-4.24,6.71-9.24,10.48-13.51,2.56-.55,2.61,3.41,2.48,4.99Z"/><path class="cls-23" d="M383.5,261.89l21.97-4.01-3.58-1.9c-2.39-1.12-12.63,1.54-13.39-.6-.16-.44,7.69-3.08,8.72-3.25,8.87-1.42,28.25,1.67,28.23,13.74-9.01-3.32-13.54-7.74-24.03-5.55-2.95.62-20.96,7.08-23.46,8.51-6.52,3.71-9.19,13.46-17.44,14.02.8-3.61,4.92-4.01,6.24-7.24,1.07-2.61.31-4.87.96-7.03.92-3.05,10.32-8.79,13.38-9.61,2.22-.6,1.13.79,1.4,1.91-16.97,8.53-12.04,13.54,1,1Z"/><path class="cls-24" d="M381.5,711.45c.19,6.99-10.39,7.11-15.61,7.86-12.11,1.74-52.66,6.73-62.31,5.12-.34-.06-.71.08-1,0l-.46-4c17.11-.8,33.96-3.94,50.92-5.98,9.81-1.18,17.39-.54,27.46-3.01.32-.08.69.09,1,0Z"/><path class="cls-23" d="M392.49,524.63c-1.24-.19-4.15.87-3.99-.99,12.24-.69,25.36.88,37.49.03,4.89-.34,9.35-2.81,14.45-2.03l-14.47,16.99c-5.85,6.27-12.58,12.22-18.5,17.97.27-2.38-.83-4.08-3-5,1.81-1.75,7.36-8.42,9.5-10.98,1.87-2.23,11.64-13.86,9.48-15.99-6.67.76-13.25,1.06-19.98.99-4.13-.04-6.99-.39-10.99-1Z"/><path class="cls-23" d="M421.46,270.87c-6.49.36-14.74-2.56-21.04-.55-.92.3-15.53,7.82-17.18,8.8-4.61,2.73-3.68,4.49,1.66,3.66,5.68-.89,10.69-4.72,16.57-4.9-7.23,10.33-20.62,11.21-32.21,11.33-5.88.06-.78-1.7.79-3.3,3.27-3.35,6.71-9.06,10.49-11.49,4.53-2.9,11.42-3.28,16.02-5.97,1.85-1.08,3.14-3.45,3.63-3.58,5.85-1.58,17.37.74,21.27,6Z"/><path class="cls-23" d="M434.45,563.59c12.63-11.25,25.54-25.06,42.95-27.97.63.56-3.51,8.12-4.28,8.69-1.59,1.17-3.98,2.42-6.32,4.12-9.11,6.59-19.43,12.55-28.35,19.15-2.48-2-4.86.5-4-4Z"/><path class="cls-23" d="M386.49,391.76c.55-10.94-7.2-15.97-3.18-26.66,1.7-4.53,7.48-10.92,7.99-15.06s-2.43-9.44-2.81-13.73c-.77-8.8,1.66-13.74,5.95-21.01,2.96-5.01,3.77-2.16,2.25,2.25-1.35,3.89-4.73,7.28-5.24,11.74-.96,8.49,4.75,14.62,4.07,22.01-.63,6.85-9.48,11.36-9.69,19.13-.14,4.97,4.81,12.44,5.41,18.1.68,6.34-2.46,13.79-8.76,16.21,1.79-4.02,3.77-8.62,4-12.99Z"/><path class="cls-23" d="M592.29,282.87c2.19-11.21,5.37-22.87,17.73-25.72,9.3-2.14,12.87-.29,19.23,5.74-2.59,2.12-5.85-2.45-8.54-2.95-2.02-.37-5.5-.32-7.44.45l16.98,10.49c.54,2.44,1.87,5.64.5,7.99-3.24-2.92-7.34-5.58-10.53-8.45-3.43-3.08-3.25-7.07-9.62-7.2-8.5-.17-11.48,19.28-14.31,25.64-2.01-2.7.48-5.33-4-5.99Z"/><path class="cls-23" d="M487.39,513.64c.59.53-4.61,11.29-6.6,11.88l-23.85,7.12,5.01-15.97c.66-1.32,5.01-3.03,5.97-3.03h19.48Z"/><path class="cls-23" d="M357.52,520.64c.54,2.57-1.25,2.05-2.73,2.71-15.18,6.82-27.53,15.39-41.29,23.7-8.28,4.99-14.82,6.93-22.91,10.55.22-2.42,2.33-4.01,3.99-5.5,11.93-10.77,32.35-17.91,46.63-26.3,3.3-1.94,8.59-7.51,11.76-7.17,1.44.15,2.67,1.69,4.55,2Z"/><path class="cls-17" d="M623.26,788.38c-1.67,4.31-5.14,7.12-6.77,11.71-5.02,14.16,2.61,22.51,12.76,31.24-15.24,1.71-23.86-15.28-22.02-28.51.71-5.13,10.01-15.42,16.02-14.43Z"/><path class="cls-23" d="M465.42,775.39c1.66,5.06,8.07,13.25,11.96,17.51,6.59,7.22,14.78,13.2,23.01,18.45-.11.08.26,1.4-.18,1.8-1.87,1.68-7.84-3.11-9.55-3.56-2.8-.74-5.52.02-8.82-1.16-5.92-2.12-16.08-18.69-18.08-24.89-.64-1.97-2.45-8.32,1.67-8.15Z"/><path class="cls-23" d="M509.37,828.34c.02,2.71-1.19,2.8-3.45,3.05-8.97.99-18.44-1.5-27.07-1.09-23.56,1.12-47.29,11.84-70.39,16.02,3.25-2.15,7.1-3.42,10.74-4.75,29.44-10.75,58.67-16.16,90.16-13.24Z"/><path class="cls-23" d="M320.56,365.79c4.8-22.3,19.41-10.04,33.51-11.95,13.41-1.81,19.82-18.75,26.94-28,2.06-.4,1.7.81,1.28,2.28-4.84,17.33-15.61,31.02-35.25,29.66-12.38-.86-13.46-5.99-23.49,5.01-.87.96-2.24,1.78-3,3Z"/><path class="cls-23" d="M422.46,562.6c6.07-7.83,13.62-17.06,19.4-25.06,5.1-7.06,7.69-18.05,16.56-19.89-3.51,13.96-12.46,24.25-21.46,34.97-3.53,4.2-10.23,9.33-12.5,13.97-1.6.66-4.5-.52-3-2,.38-.37,2.64.94,1.99-1.49l-.99-.51Z"/><path class="cls-23" d="M410.47,322.84c-1.33,6.65-3.78,11.33-2.91,18.4.39,3.15,2.54,6.93,2.65,10.33.3,9.06-8.4,11.19-13.14,17.3l-2.57,10.9c-10.22-13.08,9.07-19.72,9.06-31.46,0-9.27-3.61-11.84,2.51-21.39.9-1.4,2.38-4.58,4.4-4.08Z"/><path class="cls-24" d="M247.62,716.45c.28,1.99.19,1.64-1.24,2.25-6.18,2.64-34.78-2.04-42.73-3.75-11.59-2.49-28.15-8.79-38.62-14.34-2.41-1.28-4.08-2.12-5.31-4.66l43.49,16.44c14.85.28,29.58,3.05,44.39,4.06Z"/><path class="cls-24" d="M544.34,722.44l31.27-16.19,38.66-25.77c1.11,1.07-5.06,6.68-5.98,7.5-17.7,15.89-43.28,25.42-62.95,38.45-.01-.21-.79-2.57-1-4Z"/><path class="cls-17" d="M673.22,766.4l4.21,19.26c.74,4.45,11.03,18.46,10.84,21.18-.21,3.1-4.47,3.41-6.58,1.53-3.91-3.49-9.18-24.81-9.51-30.44-.24-4.08.61-7.57,1.04-11.52Z"/><path class="cls-23" d="M476.4,435.72c-1.29,10.64-3.88,23.59-6.31,34.15-.51,2.24-2.4,11.52-3.64,12.34-1.08.71-6.35,1.58-6.02-1.01.67-5.21,5.44-14.9,7.24-20.75,2.22-7.22,3.85-14.45,5.73-21.74,2.4.65,1.8-1.56,3-3Z"/><path class="cls-23" d="M713.17,778.38c2.25,2.09,4.48,3.76,6.99,5.51.48,1.04-3.49,3.76-4.04,4-5.06,2.24-11.93-9.5-13.25-13.69-2.32-7.36-1.44-13.39,2.31-19.8.35,4.49-.45,8.12.68,12.8,1.2,4.97,3.79,7.92,7.31,11.17Z"/><path class="cls-24" d="M406.47,298.85c.34.54-.57,3.9.95,6.55,2.7,4.71,15.19,5.24,11.04,13.43-2.26.65-3.23,1.76-5.97.5-3.04-1.4-12.87-14.38-12.76-17.81.07-2.25,2.68-6.45,3.75-8.66l.83.67c-2.22,5.57,1.88,4.88,2.16,5.33Z"/><path class="cls-23" d="M415.45,340.8c-2.87,2.45-2.12-7.6-1.88-9.39.63-4.67,8.84-11.36,13.16-12.81,2.16-.72,9.37-1.85,7.25,2.24-.65,1.26-12.46,11.06-15.02,13.96-1.42,1.61-3.24,5.77-3.51,6Z"/><path class="cls-17" d="M628.25,796.37c-5.95,15.11,3.77,22.05,12.99,31.95-6.89,2.75-9.42.04-13.21-5.25-5.72-7.98-8.43-16.05-2.36-24.83.84-1.21.04-2.44,2.58-1.87Z"/><path class="cls-23" d="M337.54,304.85c2.17-2.01,4.15-7.13,6-9.49,10.05-12.8,22.16,1.59,34.96-.5,1.64,1.21-.02,1.81-1.48,1.99-8.54,1.09-20.03-3.78-26.79-1.79-.93.27-9.57,10.62-11.69,12.78l-1-3Z"/><path class="cls-17" d="M185.69,754.41c-.14.82.22,2.68-.01,2.97-.94,1.17-19.65,2.38-22.41,1.96-3.81-.59-9.65-4.88-10.55-8.92l32.97,4Z"/><path class="cls-17" d="M266.61,789.37c-1.32.76-4.04-4.15-4.08-4.44-1.19-9.17,5.71-30.37,18.07-28.51-5.59,4.8-9.19,10.47-9.99,17.97-4.93.81-4.53,11.65-4,14.99Z"/><path class="cls-23" d="M638.25,418.74c4.29-.7.78,3.6.96,5.42.09.92,1.97.48,2.04.57.17.25-.1,4.25.45,6.04,2.1,6.75,13.87,14.4,20.53,8.95.51.16,1.37-.11,2,0-8.92,10.45-23.86,2.62-26.54-8.92-1.17-5.03-.08-7.72.57-12.06Z"/><path class="cls-24" d="M386.49,391.76c-.22,4.37-2.21,8.96-4,12.99-3.04,6.83-14.46,4.8-14,13.98-1.88-.12-2.08-3.91-1.84-5.25,1.17-6.53,19.47-15.31,17.84-24.71l1.99,2.99Z"/><path class="cls-23" d="M376.5,379.77c-1.67.51-2.83-1.94-3-2,.76-3.57-1.09-7.16-1.03-10.44.14-7.85,7.49-17.33,13.01-22.53.54,6.93-5.73,11-7.7,17.76-1.95,6.7.57,10.59-1.29,17.2Z"/><path class="cls-24" d="M651.23,406.75c-.2.21-.23,1.68-.96,2.49-4.73,5.2-7.67,7.87-9.03,15.49-.06-.09-1.95.34-2.04-.57-.18-1.82,3.33-6.12-.96-5.42,1.78-11.9,2.34-10.97,10.99-17.98-.12,2.18,0,4.69,2,5.99Z"/><path class="cls-23" d="M311.57,580.58c-.12,1.95.96,3.15-1.25,4.28-2.95,1.5-6.58,2.71-9.26,4.69-3.23,2.39-7.54,8.07-11.9,10.09-1.95.9-3.41,1.24-5.57.92,10.37-9.81,16.36-12.64,27.97-19.98Z"/><path class="cls-24" d="M373.5,377.78c.17.06,1.33,2.51,3,2-.19.69.44,2.37-.12,2.84-.47.4-2.57.11-3.77.72-2.45,1.26-7.77,5.93-8.8,6.24-2.75.83-6.77-.08-4.33-3.35,1.86-2.5,11.2-9.37,14.02-8.45Z"/><path class="cls-23" d="M619.38,294.74c-.27-.16-2.01-4.04-3.14-5.35-2.36-2.73-5.13-4.83-7.72-7.27-.52-.49-2.95-.79-.26-1.76,4.3-1.55,15.75,6.85,16.05,10.06.24,2.59-2.75,5.59-4.93,4.32Z"/><path class="cls-23" d="M622.64,276.48c1.54,1.25,8.13,5.86,5.61,8.38-2.09,2.09-11.66-7.56-14.06-9.43-1-.78-6.24-2.23-3.92-4.55,1.27-1.27,9.37,2.59,10.91,3.61.69.46.92,1.56,1.45,1.99Z"/><path class="cls-24" d="M629.26,262.89c.13.13,1.42-.37,2.08.65,1.04,1.61-.06,3.52.25,4.15.13.26,5.42,3.33-1.33,3.19l-16.98-10.49c1.94-.77,5.43-.82,7.44-.45,2.68.5,5.94,5.08,8.54,2.95Z"/><path d="M711.18,748.41c-4.32,6.5-5.93,14.34-2,21.49l9,8.49c-1.48-.43-4.26-1.79-5,0-3.52-3.26-6.11-6.2-7.31-11.17-1.14-4.69-.33-8.31-.68-12.8.88-1.5.6-2.31,2.45-4.07,1.55-1.48,2.47-1.27,3.55-1.93Z"/><path class="cls-24" d="M646.24,595.56c2.03-1.83,13.55-16.22,15.98-13.98,1.87,1.72-12.5,15.43-13.98,16.98l-2-3Z"/><path class="cls-23" d="M660.22,437.72v1c-.47-.07-1.46.91-3.5.11-6.44-2.53-11.67-15.22-3.51-18.09-.59,6.24.34,14.29,7,16.98Z"/><path class="cls-23" d="M380.5,711.45c.51-7.24,8.89-8.44,14.47-10,.15,6.31-8.47,8.58-13.47,10-.31.09-.68-.08-1,0Z"/><path class="cls-23" d="M450.42,356.79c-2.72.6-1.7-.83-2.47-1.98-3.36-5.07-6.53-10.66-6.51-16.99l8.43,12.04.55,6.93Z"/><path class="cls-24" d="M419.42,442.68c-.07.09-1.27-.1-1.57.38-3.24,5.1-8.87,11.86-13.34,16.19-.61.59-5.51,5.01-6.02,4.44-.93-1.04.76-3.1,1.45-4.04,4.67-6.34,13.92-12.51,19.03-18.93.84-.11.63,1.74.46,1.96Z"/><path class="cls-24" d="M133.74,609.55c-2.01,3.03.77,5.86,1,7.99.1.92-.56,2.16-1,3-5.06-5.38-7.43-7.61-8.99-14.99,4.06.34,3.84,7.47,8.99,4Z"/><path class="cls-23" d="M397.47,342.8c-1.26-.39-1.82-5.53-1.87-6.62-.28-6.42,2.35-13.7,6.86-18.35,0,8.78-6.77,15.69-5,24.97Z"/><path class="cls-23" d="M447.42,334.81l-8.01-11.46-.97-4.52c3.08-3.2,11.63,12.5,8.98,15.97Z"/><path class="cls-24" d="M551.33,341.81c-4.35,4.75-8.72,10.22-13.99,13.99.57-6.63,7.54-13.16,13.99-13.99Z"/><path class="cls-23" d="M431.45,269.88c.24-3.58-.61-8.96-2.05-12.25-.57-1.31-2.32-.12-1.95-1.73,6.82.55,12.04,11.32,4,13.97Z"/><path class="cls-24" d="M592.29,282.87c4.48.67,1.99,3.3,4,5.99-3.54,7.95-5.57,2.7-5.04-3.58.12-1.37.97-2.06,1.04-2.41Z"/><path class="cls-23" d="M458.43,365.79c.37-5.32-4.1-7.72-2-13.98,2.87-3.36,3.55,9.89,3.57,11,.03,1.5.49,2.46-1.57,2.98Z"/><path class="cls-24" d="M382.5,260.89c.11.44.56.84,1,1-13.04,12.54-17.97,7.53-1-1Z"/><path class="cls-23" d="M660.22,434.72c-.1-.67-1.38-1.78-1-2.99l7.77-.73c-.21,1.66.62,3.57.24,5.07-.28,1.11-1.96.55-2.02.65l-.99-3.99c-.03,1.32-.21,3.36-1.51,3.99-.57.27-.34-2.93-2.49-1.99Z"/><path class="cls-24" d="M337.54,304.85l1,3c-.27.27.15,2.3-1.6,2.88-1.45.48-5.03.23-5.38-1.4-.42-1.94,4.93-3.5,5.99-4.48Z"/><path class="cls-24" d="M357.52,372.77l7.98-6.98c.24,4.91-3.31,7.47-7.98,6.98Z"/><path class="cls-24" d="M476.4,435.72c-1.2,1.44-.6,3.65-3,3,1.02-3.98,2.61-7.84,3.01-11.98,1.72-.18,1.09,3.47,1.03,4.56-.12,1.97-.9,3.26-1.04,4.43Z"/><path class="cls-24" d="M665.22,436.72c-.32.47-.24,2.11-1,3-.62-.11-1.49.16-2,0-.42-.13-.87-.84-2-1v-1c-.09-.97.14-2.06,0-3,2.15-.93,1.92,2.27,2.49,1.99,1.31-.62,1.48-2.66,1.51-3.99l.99,3.99Z"/><path class="cls-24" d="M430.45,335.82c-2.2,3.8,7.74,12.84,5.99,14.98-1.41,1.72-2.21-1.25-2.59-1.86-2.5-3.96-2.83-10.85-7.39-12.12,3.16-5.95,2.25-1.63,4-1Z"/><path class="cls-24" d="M391.5,471.68c-.5-3.87,2.95-5.13,5.5-6.97-.23,2.89-3.16,5.54-5.5,6.97Z"/><path class="cls-23" d="M440.43,408.74c-1.58.05-2-4.55-1.82-5.29.1-.44,2.81-4.43,3.82-4.69l-2,9.98Z"/><path class="cls-24" d="M206.66,663.5c1.09,1.09-.9,3.08-1.99,1.99-1.09-1.09.9-3.08,1.99-1.99Z"/><path class="cls-24" d="M387.48,718.44c-.35.68-1.7-.58-.98-1.99.35-.68,1.7.58.98,1.99Z"/><path class="cls-24" d="M404.47,551.61c2.17.92,3.26,2.61,3,5-27.59,26.84-59.54,50.86-93.24,70.09-5.91,3.37-11.86,6.96-18.63,8.34,8.5-9.52,19.69-18.18,30.05-25.88,25.88-19.22,55.61-35.11,78.82-57.55Z"/><path class="cls-22" d="M642.74,625.53c.65.33.65.67,0,1v-1Z"/><path class="cls-23" d="M413.2,425.47c-.1.1-2.35,1.3-2.71.77,9.65-11.21-4.85-24.62-4.83-33.98,0-4.55,7.63-17.66,6.81-18.47-4.4-4.34-11.81,14.43-11.88,18.58-.18,10.93,12.74,18.85,4.27,31.28-5.41,7.94-17.47,7.89-11.38,22.06-6.26-5.91-5.83-13.56-.43-19.92,1.39-1.64,3.21-2.19,4.43-3.56,9.72-10.98-.34-17.1-.61-28.13-.52-21.4,14.07-23.33,18.87-37.52.89-2.62,2.45-15.38,6.2-14.76,2.2.36-.41,9.57.56,11.53,1.12,13.04-4.01,17.07-8.23,26.74-8.08,18.53,4.88,26.59.91,40.89-.33,1.18-1.21,3.73-1.98,4.5Z"/><path class="cls-24" d="M385.99,719.44c.65.33.65.67,0,1v-1Z"/><path class="cls-22" d="M628.76,794.37c.65.33.65.67,0,1v-1Z"/><path class="cls-22" d="M283.09,565.59c.65.33.65.67,0,1v-1Z"/><path d="M119.75,617.54c-.49-1.3-2.26-3.05-3.03-5.46-2.64-8.22-6.73-26.31,5.79-28.29,4.91-.78,5.96.2,9.23,2.79v1c-1.37,1.56-3.89.81-5.95,1.55-6.08,2.19-8.28,13.11-7.01,18.72.16.72,1.58.77,1.87,1.5.68,1.71,1.33,4.92,2.09,6.2-.77,1.25-1.34,2.35-3,2Z"/><path d="M132.74,591.57c-.79,2.58-4.09,6.75-4.07,8.43.01.88,2.15.84,2.61,1.49.8,1.14-2.22,4.69.94,4.04,4.56-.93,3.23-5.26,2.52-7.97,0-.67,0-1.33,0-2h2c.38,3.77.34,10.36-1.34,13.69-.23.45-1.61.21-1.66.29-5.15,3.48-4.94-3.65-8.99-4-1.71-8.09-1.41-12.83,7.99-13.99Z"/><path class="cls-24" d="M131.74,586.57c.17.14,1.17-.42,2.05.65,1.76,2.16,2.67,5.65,2.94,8.34h-2c0-1,.02-2-.01-2.99h-.98c-.88,2.22.67,3.77.99,4.99.71,2.71,2.04,7.04-2.52,7.97-3.16.65-.14-2.9-.94-4.04-.46-.66-2.6-.62-2.61-1.49-.03-1.68,3.28-5.85,4.07-8.43.52-1.7,1.54-1.98-1-4v-1Z"/><path d="M422.45,769.4c.12,18.83,4.19,36.85,20.76,47.69,1.06.69,2.62.9.24,1.77-2.6.95-11.72,2.17-14.03,1-.87-.44-9.75-14.63-10.45-16.52-2.14-5.74-3.38-19.43-2.45-25.4.23-1.44,4.15-10.57,5.93-8.55Z"/><path class="cls-19" d="M483.39,812.37c.74.84.41,2.17-1.44,1.95-3.71-.44-19.84-7.44-18.53-12.44,1.1-1.19,1.26-1.95,3.01-1.04,1.52.79,6.27,5.66,8.65,7.34,1.47,1.03,7.86,3.68,8.31,4.19Z"/><path class="cls-19" d="M481.4,763.4c-.02-.2-.97-.75-1.02-1.63-.09-1.52.99-2.13,1.02-2.37v4Z"/><path class="cls-19" d="M486.89,814.35c.65.33.65.67,0,1v-1Z"/><path class="cls-22" d="M686.7,550.61c.65.33.65.67,0,1v-1Z"/><path class="cls-24" d="M421.45,625.54c.68.35-.58,1.7-1.99.98-.68-.35.58-1.7,1.99-.98Z"/><path class="cls-22" d="M544.34,827.33c-1.82.33-6.78-1.21-4.99-2.98.84-.83,5.74,2.41,4.99,2.98Z"/><path d="M406.47,298.85c1.7-11,15.22-7.43,23.31-8.03,4.56,6.09.54,11.58-6.08,12.84-5,.96-12.21-3.74-17.23-4.81Z"/><path class="cls-24" d="M436.43,311.84c-2.43-1.57-5.65-6.69-2.48-8.99l2.48,8.99Z"/><path class="cls-23" d="M134.74,595.56c0,.67,0,1.33,0,2-.32-1.22-1.86-2.77-.99-4.99h.98c.03.99.01,1.99.01,2.99Z"/><path class="cls-20" d="M699.47,321.54c2.66,1.93,9.34,11.38,11.11,14.4,1.22,2.08,2.74,5.13,2.51,7.55-.37,3.9-5.16,7.91-9,6.53-4.54-1.63-9.54-8.49-12.21-12.29-.3-.43-.83-.53-1.06-.87-1.05-1.55-5.85-9.96-6.12-11.34-.57-2.87.77-4.48,3.09-5.89,1.36-.83,4.11-1.86,5.69-1.45.93.24,5.05,2.68,5.99,3.36ZM695.1,322.63c-1.59-1.1-4.6-1.91-5.71.13-1.33,2.43-.14,4.56,1.09,6.77,1.67,3.01,5.16,6.52,7.29,9.33,1.44,1.9,2.71,4.93,4.51,6.56,1.88,1.71,4.24,1.49,6.22.05,2.31-1.68,1.2-3.79-.11-5.89-1.72-2.76-11.05-15.42-13.29-16.97Z"/><path class="cls-16" d="M843.03,460.79c.05.27-.07.98,0,1.06.12.14.65-.25.8-.27.08,0,.96,0,1.06,0,.04,0,.39.23.8.27.35.03.71-.03,1.06,0,.27.02.96-.06,1.06,0,.04.02.1.2.53.53.34.26-.12.08.8.53.03.01.08.44.27.53-.82,1.11.01,1.24,1.06,1.06v.27c-1.22-.13-.53,1.25-.53,1.59,0,.44.01.89,0,1.33,0,.36.02,1.1,0,1.33,0,.03-.21.27-.27.53-.08.35-.23,1.27-.27,1.33-.06.1-1.42.65-1.06,1.86-.69-.03-.49.51-.53.53-.08.05-.45-.09-.71.07-.2.13-.39.74-.62,1-.03.04-.48-.14-.55.16-.11.46.08,1.01.28,1.43l-.27.27c-.03-.05-.37-.18-.53-.39-.25-.32-.17-.76-.53-.67.04.42-.27.58-.54.79-.05.04-.34-.1-.48.06-.16.19,0,.69-.05.74-.12.12-1.1-.4-.8.8-.33-.49-.56-.96-.53,0-.72-1.27-.65-.15-1.33.27-.26.16-.7.32-1.06.53-.08.05-.36-.07-.51.02-.05.17-.03.34-.02.51-1.31-.74-1.51.48-1.6.53-.08.05-.42.22-.53.27-.15.07-.54.17-.8.27-1.03.38-.6.26-1.06.53-.05.03-.64.09-1.06.27-.13.06-.46-.17-.54.17-.07.3,0,1.04.01,1.42-.76.16-.54-.56-.73-.99-.51-1.15-.97.62-.86,1.25-.13-.73-.75-1.39-.8-.27l-.27-.53h-.26c.11.38-.51.7-.54.79-.84-.51-1.25.11-1.86.27-.47.12-1.03-.27-1.33.53-.02-.49-.35-.91-.8-.53-.01.26,0,.53,0,.8h-.27c-.05-.11-.24-.2-.27-.27-.07-.18.05-.56,0-.8l-1.06.26c-.08-.09-.17-.18-.27-.27-.55-.49-.66-1.08-1.6-.8.08-.86.06-.88-.8-.8.01-.59-.57-1.2-.72-1.8-.34-1.39-.3-2.7-.61-4.04-.02-.07-.01-.26,0-.27,1.02-.67.3-.74.53-1.06.1-.14.58-.79.8-1.06.05-.07,1.23-.36.8-1.33,1.01.24.92-.66,1.06-.8s.5-.52.53-.53c.69-.23,1.13.57,1.06-.8.88.1.85,0,.8-.8,1.49.39,1.21-.95,1.33-1.06.04-.04.57.09,1.06,0,.43-.08.68-.16,1.06-.27,1.43-.39.56-.17,1.06-.53.06-.04.96-.35,1.33-.53.84-.41,1.59-.92,2.39-1.33.18-.09.35-.18.53-.27,1.05-.49.78-.44,1.33-.8.05-.03.76-.16,1.06-.27,1.2-.41.59-.4.8-.53.15-.09,1,.07,1.33,0,.38-.08.65-.24.8-.27.33-.07.75-.16,1.06-.27,1.39-.49.36-1.55,1.06-2.66-.2.44.23.85.27,1.06ZM842.5,463.71c-5.07.91-12.46,4.21-16.64,7.41-.3.23-.83.17-1.1.37-.17.13-2.35,3.34-2.44,3.59-.31.82-.23,2.72-.02,3.58.05.2.39.21.49.41.21.42.3.94.65,1.29s.86.44,1.29.65c.2.1.22.45.41.49.47.11,3.42.11,3.88,0,.19-.04.19-.45.39-.5,4.76-1.23,12.29-4.07,16.09-7.19,2.46-2.02,4.2-5.66,3.05-8.84-.54-1.5-1.28-1.18-2.38-1.56-.21-.07-.2-.46-.39-.5-1.65-.38-1.96.55-3.27.79Z"/><path class="cls-15" d="M826.28,483.64l-.27-.27c.02.07.22.16.27.27Z"/><path class="cls-15" d="M821.62,486.03c.17.09.17.18,0,.27v-.27Z"/><path class="cls-13" d="M842.5,463.71c.25-.16,2.69.11,3.27,0,1.38,1.33,2.34,1.39,2.34,3.58,0,1.91-1.88,4.4-3.42,5.42-3.14,2.09-7.58,3.79-11.01,5.36-1.53.7-2.29,1.64-4.34,1.83-2,.18-5.38.41-5.93-2.05-1.04-4.67,2.44-6.02,5.6-7.78,3.19-1.78,6.52-3.18,9.82-4.8,1.35-.66,2.53-.84,3.67-1.57ZM837.98,474.34c.1-.08,1.97-.35,2.45-.55.76-.32,4.24-2.38,4.92-2.98.16-.14,1.57-2.28,1.62-2.5.43-1.84-.97-4.01-2.95-3.52-.2.05-.15.44-.37.51-.63.19-1.81.07-2.53.3-1.88.61-4.08,2-6.06,2.9-.67.31-1.17.52-1.86.8-3.15,1.27-4.88,2.04-7.54,4.42-.4.36-1.03.05-1.23,1.03-.12.59-.04,3.43.32,3.78.19.19,1.3.31,1.66.34,3.54.29,6.98-1.6,9.94-3.11.49-.25.72-.02.57-.88,1.2.39,1.01-.48,1.06-.53Z"/><path class="cls-18" d="M833.19,469.29c.56.68.02,2.06.33,2.6.51.87,2.08,2.1,3.05,2.54.16.07.27.42.35.44.15.87-.08.63-.57.88-2.97,1.51-6.4,3.4-9.94,3.11-.36-.03-1.47-.15-1.66-.34-.36-.36-.44-3.2-.32-3.78.2-.99.83-.68,1.23-1.03,2.67-2.38,4.39-3.15,7.54-4.42ZM831.54,472.27c-2.18-1.21-3.12,3.37-.35,2.87,1.26-.23,1.06-2.47.35-2.87Z"/><path class="cls-18" d="M835.05,468.49c1.98-.9,4.17-2.29,6.06-2.9.71-.23,1.9-.11,2.53-.3.22-.07.18-.46.37-.51,1.99-.49,3.38,1.68,2.95,3.52-.05.22-1.46,2.36-1.62,2.5-.68.6-4.15,2.66-4.92,2.98-.48.2-2.36.47-2.45.55.34-2.75-1.91-3.76-2.93-5.84ZM844.85,468.19c.78-.48.14-2.69-1.31-1.7-.74.51.03,2.48,1.31,1.7ZM841.41,472.18c.24-.19.63-2.89-.13-3.14-1.61-.53-1.72,2.06-1.18,3,.17.29,1.18.25,1.31.14Z"/><path class="cls-13" d="M841.41,472.18c-.13.11-1.14.15-1.31-.14-.54-.94-.43-3.53,1.18-3,.76.25.37,2.94.13,3.14Z"/><path class="cls-20" d="M822.29,480.98c-.01.48-1.6,2.64-2.01,3.18-.26.35-.7.45-.92.74-.48.62-2.59,3.9-3.06,4.06-.13.05-.63.09-.66-.15-.28-1.91,1.92-3.19,2.87-4.83.21-.37.17-.87.33-1.21.14-.3.63-.04.52-.45-.99-.05-1.37.76-1.9,1.16-.18.14-.49.14-.66.27-.52.43-2.33,2.97-3.03,2.29-.32-1.6.38-1.21,1.12-1.87.84-.75,1.25-1.76,2.51-1.94l3.01-3.09c-.84.38-1.85.53-2.71.83-.67.24-2.48,1.33-3.09,1.54-.87.3-3.59.64-2.18-.64.3-.27.8-.25,1.12-.42.19-.1.19-.41.42-.49.47-.16,3.14-.42,3.25-.56.06-.07-.03-.57,0-.79-1.69.01-3.1.47-4.79,0,.12-1.52,1.59-.87,2.48-1.07.19-.04.15-.45.37-.51.77-.21,2.15-.19,3-.28v-.8c-.71-.08-4.45-.12-4.75-.3-.2-.12-.34-1.23-.3-1.56.16-.16,2.53.18,2.99.28.23.05.11.47.58.53,1.27.16,2.84.16,4.14.24.3,1.34.26,2.65.61,4.04.15.61.74,1.22.72,1.8Z"/><path class="cls-20" d="M823.09,481.78c.94-.28,1.04.31,1.6.8-.74,1.32-1.05,3.02-1.65,4.34-.15.32-.6.37-.74.65-.4.84-.61,2.16-1.14,3.05s-1.42,1.5-1.07,0c.32-1.38,1.38-2.56,1.4-4.04-.54-.13-.93.72-1.17,1.09-.48.76-.5.86-1.07,1.59-.17.22-.13,1.3-.94.77-.64-.42.7-2.72,1.04-3.26.19-.3.68-.34.93-.73.59-.93,1.8-3.94,2.81-4.24ZM821.62,486.03v.27c.17-.09.17-.18,0-.27Z"/><path class="cls-20" d="M832.39,466.1c-.71-1.52-.66-3.61-1.19-5.07-.39-1.08-1.22-2.39-1.46-3.85-.14-.86.16-1.9.77-.97,1.33,2.04,1.49,5.66,2.41,8.03.45,0,.52-.86.5-1.16-.08-2.18-1.06-4.05-.71-6.49.06-.43.02-.78.47-.32.06.06.17,1.32.29,1.66.08.22.5.21.52.37.04.4-.35.89-.3,1.26.02.17.55.15.56.31.05.99-.14,2.47.05,3.64.06.4.48.79.47,1.26-.8.41-1.55.92-2.39,1.33Z"/><path class="cls-20" d="M830.53,482.58c-.15.61-.24,2.89.53,3.1l.54,6.46c-1.83.46-1.22-2.25-1.36-3.56-.03-.28-.11-1.25-.5-1.23v3.85s-.26.78-.53.66c-.4-2.95-.42-6.03-.54-9.03.61-.16,1.02-.78,1.86-.27Z"/><path class="cls-20" d="M837.98,479.39c.72.44.79,1.47,1.09,2.18.96,2.22,2.34,5.33,3.14,7.59.34.95.62,2.62-.78,1.79-.74-.43-1.47-4.38-1.82-5.35-.14-.38-.48-.35-.61-.74-.59-1.7-.99-3.5-1.56-5.21.11-.05.45-.22.53-.27Z"/><path class="cls-20" d="M846.49,474.34c.41,1.04,1.33,1.25,1.84,1.74,1.46,1.41,2.93,3.32,4.4,4.64.25.22.72.18.87.32.18.17.43,1.7.33,1.79-1.92.27-2.29-1.82-3.34-2.9-.9-.92-2.69-2.27-3.64-3.2-.12-.12-.71-.76-.73-.81-.2-.42-.39-.97-.28-1.43.07-.31.51-.12.55-.16Z"/><path class="cls-20" d="M849.68,469.56c.34.75,1.07.49,1.68.8,1.38.69,2.79,1.65,4.12,2.36.78.42,3.84,1.05,2.2,2.78-.59.62-.47-.18-.74-.37-1.89-1.35-3.85-2.04-5.75-3.18-.37-.22-.87-1.04-1.78-1.07.03-.06.18-.97.27-1.33Z"/><path class="cls-20" d="M845.96,476.2c1.32,2.18,2.51,4.72,3.79,6.98.34.6,1.51,1.14,1.26,2.31-1.94.27-1.78-1.26-2.46-2.45l-4.19-7.11c.27-.22.58-.38.54-.79.36-.09.28.35.53.67.16.21.5.34.53.39Z"/><path class="cls-20" d="M848.35,472.75c1.16.06,3.65,2.98,4.62,3.89.47.44,1.45,1,2.04,1.62.23.24.31.77.5.96.27.26.71.13.77.2.09.1.08,1,.04,1.03-.73.71-1.96-1.38-2.31-1.61-1.74-1.11-2.39-1.95-3.97-3.27l-2.23-2.29s-.16-.56.53-.53Z"/><path class="cls-20" d="M822.29,472.75c-.44-.31-.56-.86-.89-1.24-1.49-1.74-2.93-3.07-4.26-5.03-.35-.52-1.3-.74-.97-1.96,1.09-.13,1.13.91,1.59,1.39,1.61,1.73,2.89,3.11,4.42,4.96.25.3.89.5.91.55.44.97-.74,1.26-.8,1.33Z"/><path class="cls-20" d="M827.87,467.43c-.94-2.54-1.56-5.2-2.42-7.76-.09-.26-.95-.69-.5-1.81.28.05.69-.08.91-.01.32.09,1.69,5.48,1.97,6.29.13.37.46.36.55.58.27.74.48,1.91.56,2.71-.5.09-1.02-.04-1.06,0Z"/><path class="cls-20" d="M840.11,478.32c.87,1.15,1.05,2.79,1.6,4.04s1.69,2.83,2.16,4.55c.25.93.68,2.39-.57,2.04.02-1.14-.63-2.42-1.09-3.51-.08-.2-.4-.23-.48-.42-.46-1.09-2.08-5.25-2.15-6.17-.01-.17-.03-.35.02-.51.15-.09.43.03.51-.02Z"/><path class="cls-20" d="M820.96,474.87c-.21-.36-.39-.52-.79-.67-.95-.37-2.8-1.07-3.65-1.54-.24-.13-.78-1.08-1.09-1.22-1.12-.5-2.24.13-1.92-1.88.37.03.79-.08,1.14,0,.1.02,1.26,1.22,1.44,1.32.83.48,2.28.92,3.06,1.35.68.38,1.56,1.28,2.34,1.57-.23.32.49.39-.53,1.06Z"/><path class="cls-20" d="M836.65,479.92l2.92,10.09-1.03-.03-2.95-9.53c.46-.27.03-.15,1.06-.53Z"/><path class="cls-20" d="M841.17,477.79c.68-.42.61-1.54,1.33-.27.7,1.23,1.24,3.22,1.88,4.57.11.23.46.28.67.71s1.35,3.06,1.17,3.22l-1.03-.03-4.02-8.21Z"/><path class="cls-20" d="M849.95,467.7c.61.08,1.38-.13,1.95,0,.2.05.16.48.36.52,1.1.25,3.11.04,4.16.27.09.02.59,1,1.63.52.94,1.8-2.19,1.38-2.69.54l-5.4-.54c.02-.23,0-.97,0-1.33Z"/><path class="cls-20" d="M843.03,460.79c.57-1.91.78-4.33,1.35-6.17.07-.21.42-.21.49-.41.25-.71,0-2.2,1.09-2.18.41.48-.82,5.53-1.09,6.43-.06.21-.42.19-.49.41-.23.77-.2,1.9-.55,2.72-.14.01-.68.4-.8.27-.07-.08.05-.79,0-1.06Z"/><path class="cls-20" d="M843.83,476.73c-.15,1.09.93,1.73,1.26,2.31.75,1.32,1.27,2.8,2,4.14.18.34.58.4.72.66.37.71.29,2.99-.6,1.85-1.54-1.97-2.67-5.94-4.18-8.17-.3-1.19.68-.68.8-.8Z"/><path class="cls-20" d="M824.15,470.62c-1.68-1.76-2.49-3.77-3.62-5.81-.37-.66-1.6-1.38-1.13-2.12.09-.14,1.06-.46,1.15-.03l4.13,7.44s-.39.39-.53.53Z"/><path class="cls-20" d="M834.52,480.72l1.61,8.05c.92.42.42,1.41.52,2.32-.48,0-1.11.13-1.29-.44.04-2.79-1.24-5.62-1.37-8.33-.02-.39-.09-1.12-.01-1.42.08-.34.41-.11.54-.17Z"/><path class="cls-20" d="M850.48,464.78c.48.81,3.01.66,3.87.55.49-.06.35-.5.56-.55.76-.18,1.92.11,2.74,0,0,.73.22,1.43-.67,1.59-1.97.37-4.95-.27-7.05,0,0-.34-.69-1.72.53-1.59Z"/><path class="cls-20" d="M849.41,463.45c.23-.3,1.8-.81,2.19-1.07,1.09-.72,1.99-1.81,3.49-2.42,2.17-.89,1.02.68.08,1.55-.73.68-1.95.97-2.65,1.42-.44.27-1.47,1.5-2.05,1.59-1.05.17-1.89.04-1.06-1.06Z"/><path class="cls-20" d="M841.7,462.38l.53-11.43h.8s-.26,8.77-.26,8.77c-.71,1.11.33,2.17-1.06,2.66Z"/><path class="cls-20" d="M846.75,461.85c-.19-1.26,1.12-1.84,1.46-2.39.93-1.47,1.8-3.08,2.67-4.51.19-.32.25-.85.79-.81.32.17.09.79.01,1.08-.38,1.55-1.21,2.84-2.04,4.06-.59.86-1.41,1.58-1.83,2.57-.11-.06-.79.02-1.06,0Z"/><path class="cls-20" d="M835.32,464.51l-.26-10.36c.89.72.98,2.72,1.07,3.84s-.17,2.44-.03,3.48c.06.49.49.34.55.56.12.5-.06,1.15,0,1.68-.55.36-.28.31-1.33.8Z"/><path class="cls-20" d="M830,467.17c-.56-1.95-1.03-3.96-1.62-5.91-.06-.21-.4-.15-.53-.59-.28-.88-.26-1.89-.24-2.81.22.04.72-.06.79,0,.32.26,1.68,6.77,2.09,7.87.16.44.69.34.57.9-.5.36.36.14-1.06.53Z"/><path class="cls-20" d="M824.95,482.84l1.06-.26c.05.24-.06.61,0,.8l.27.27h.27c0,.18,0,.35,0,.53-1.04,0-.8,1.25-1.08,1.92-.08.18-.41.2-.49.42-.42,1.23-.47,3-1.07,4.19-.19.38-.25.76-.81.65-.54-.65,1.91-7.18,1.86-8.5Z"/><path class="cls-20" d="M825.74,469.29c-.08-1.63-.63-1.32-1-2.05-.84-1.68-1.23-3.7-1.98-5.22-.24-.48-1.01-.32-.74-1.24.74-.29.78.42.85.45.16.06.42-.2.46-.18.19.13,1.34,3.62,1.64,4.29.4.89,1.48,1.83,1.57,3.14.05.8.08.9-.8.8Z"/><path class="cls-20" d="M844.89,461.59l2.4-8.03,1.05-.74c.19.25-.34,2.38-.49,2.82-.12.36-.48.36-.55.58-.61,1.84-1.05,3.78-1.62,5.63-.4-.04-.76-.26-.8-.27Z"/><path class="cls-20" d="M848.35,462.38c.39-.56,1.16-1.79,1.58-2.2.28-.28.71-.23.94-.45.91-.84,1.51-2.42,3.06-2.14.3,1.39-.56,1.05-.97,1.41-.48.43-1.36,1.37-1.93,1.92-.63.61-1.19,1.42-1.88,1.98-.92-.45-.45-.27-.8-.53Z"/><path class="cls-20" d="M831.6,482.31c.05-1.13.66-.46.8.27.48,2.63.51,5.69.8,8.37-.05.39-1.16.09-1.07-.53,0-2.72-.64-5.37-.53-8.1Z"/><path class="cls-20" d="M839.84,462.92l-.26-10.09c.8-.13.42.2.54.65.66,2.61.24,6.42.53,9.18-.14.03-.41.19-.8.27Z"/><path class="cls-20" d="M826.54,483.64c0-.27-.01-.53,0-.8.45-.38.78.04.8.53.12,2.92-.29,5.87-.53,8.77h-.79c.26-2.67.43-5.3.53-7.97,0-.18,0-.35,0-.53Z"/><path class="cls-20" d="M837.71,463.45l-.26-9.3c.71-.24.76,1.05.79,1.46.21,2.31.08,4.96.27,7.3-.21.13.4.12-.8.53Z"/><path class="cls-20" d="M842.5,463.71c1.32-.24,1.62-1.17,3.27-.79.19.04.18.43.39.5,1.1.38,1.84.06,2.38,1.56,1.16,3.18-.59,6.82-3.05,8.84-3.8,3.12-11.33,5.96-16.09,7.19-.2.05-.21.46-.39.5-.46.11-3.41.1-3.88,0-.19-.04-.21-.39-.41-.49-.42-.21-.94-.3-1.29-.65s-.44-.86-.65-1.29c-.1-.2-.44-.21-.49-.41-.21-.85-.3-2.76.02-3.58.09-.25,2.27-3.46,2.44-3.59.27-.2.79-.14,1.1-.37,4.18-3.2,11.58-6.5,16.64-7.41-1.14.73-2.31.91-3.67,1.57-3.3,1.62-6.63,3.02-9.82,4.8-3.16,1.76-6.65,3.12-5.6,7.78.55,2.46,3.93,2.23,5.93,2.05,2.05-.19,2.8-1.13,4.34-1.83,3.43-1.58,7.87-3.27,11.01-5.36,1.54-1.03,3.42-3.52,3.42-5.42,0-2.2-.96-2.26-2.34-3.58-.58.1-3.02-.17-3.27,0Z"/><path class="cls-20" d="M835.05,468.49c1.01,2.08,3.27,3.09,2.93,5.84-.06.05.13.93-1.06.53-.07-.02-.18-.37-.35-.44-.96-.44-2.54-1.67-3.05-2.54-.31-.53.23-1.92-.33-2.6.69-.28,1.19-.49,1.86-.8Z"/><path class="cls-20" d="M831.54,472.27c.72.4.91,2.64-.35,2.87-2.78.5-1.84-4.08.35-2.87Z"/><path class="cls-20" d="M844.85,468.19c-1.27.77-2.05-1.19-1.31-1.7,1.44-.99,2.09,1.23,1.31,1.7Z"/><path class="cls-20" d="M718.38,185.18s.18.06.22.17c.09.27.16.66.15.94-.03.89-.72,1.03-.92,1.81-.17.65.26,1.96.52,2.62.28.71.95,1.92,1.27,2.66.23.54.2,1.22.73,1.68.38.21,1.32.03,1.75-.08,2.17-.58,2.99-.61,5.19.03.37.11,1.36.25,1.66.06.78-.94.88-2.15,1.3-3.26.39-1.04.66-1.71,1-2.88.04-.13.42-.08.28-.59-.03-.1-.23-.07-.28-.2-.14-.42-.48-1.63-.5-2.02s.23-1.37.48-1.65c.12-.13.31-.1.42-.19.14-.11.17-.32.34-.39.39-.17,1.51-.14,1.92.02.23.09.22.25.36.37.11.08.31.07.37.13.66.66.68,3.08-.1,3.61-.16.11-.42.13-.61.22-.47.24-.43.17-.97.35-1.06.34-1.1,1.43-1.44,2.26-.39.93-.95,2.09-1.31,3.02-.12.31-.37,1.03-.37,1.33.01,1,1.26,1.2,1.88,1.64s2.32,2.26,2.78,2.92c.41.59.18,1.28,1.26,1.25.8-.02.75-.43,1.04-.58.44-.24.9-.51,1.28-.71.99-.53,3.43-1.4,3.8-2.48.2-.59.13-1.33.44-1.93.74-.58,1.75-1.21,2.72-.72.18.09.2.28.29.34.16.11.38.09.53.26.62.69.58,2.85-.07,3.54-.03.03-.73.53-.77.55-1.18.5-1.44-.39-2.43-.53-.4-.06-.96-.1-1.34.03-.34.11-.36.43-.52.52-.92.51-1.89.95-2.8,1.47-.39.22-1.79.73-1.94,1.21-.17.55.12,1.65.27,2.23.46,1.76.66,2.45.56,4.49-.04.86-.64,2.08.19,2.76.41.34,1.28.33,1.71.48.63.22,1.73.8,2.37.98.77.22,1.85.59,2.62.38.42-.12.9-.66,1.24-.76.46-.13,1.29-.14,1.73.06.06.03.85.83.89.88.66,1.01.28,2.6-.63,3.34-.84.27-1.04.75-2.02.43-.11-.04-.86-.57-.93-.65-.29-.38-.56-1.43-.85-1.88-.61-.97-1.13-.75-2.05-1.07-.62-.22-1.35-.45-2.06-.68-.52-.17-1.27-.65-2-.73-1.46-.17-1.09.68-1.54,1.52-.83,1.56-2.26,3.2-3.62,4.33-.45.37-1.23.67-1.63,1.13-.41.48-.3,1.07-.07,1.62.11.27.3.28.35.39.54,1.36,1.4,4.86,2.6,5.55.36.21,1.22.37,1.65.64.35.22.36.6.51.9.05.11.25.11.27.21.05.21.05,1.02,0,1.23-.02.1-.22.09-.26.22-.12.31-.16.76-.39,1.02-.03.04-.78.59-.83.61-.45.16-1.42.17-1.84-.03-.08-.04-1.12-1.24-1.15-1.32-.25-.56-.11-1.54.14-2.08.07-.16.26-.17.32-.29.24-.52.21-1.71.02-2.26-.22-.64-1.04-1.98-1.29-2.62-.56-1.45-.16-3.09-2.22-2.89-1.69.17-2.85.57-4.74.41-.85-.07-1.93-.58-2.72-.42s-.66,1.12-.89,1.68c-.36.86-.99,1.99-1.32,2.88-.37,1.01-.77,2.15-.4,3.21.3.87,1.18,1.06.66,2.3-.06.14-.23.14-.27.22-.49.98-.6,1.46-1.94,1.47-.93,0-1.13-.23-1.64-.8-.1-.11-.32-.15-.39-.25-.58-.82-.4-2.74.57-3.29.56-.32,1.21-.28,1.76-.82.38-.38.47-.81.69-1.25.41-.81.92-2.03,1.22-2.89.24-.69.8-2.01.74-2.69-.08-.97-1.51-1.36-2.15-1.88-.43-.35-1.69-1.71-2.02-2.13-.55-.71-.53-1.79-1.86-1.45-.83.22-1.58.99-2.33,1.41-1.14.64-2.91,1.07-3.34,2.53-.16.56-.13.61-.34,1.12-.1.23-.08.55-.23.75-.18.24-.47.19-.67.31-.1.06-.11.22-.23.26-1.25.47-2.32-.43-2.98-1.41-.07-.54-.14-1.22,0-1.75.01-.05.54-.82.57-.86.57-.64,1.51-.95,2.35-.61.15.06.14.26.29.32.46.19,1.22.2,1.7.03.82-.29,2.29-1.32,3.1-1.78.58-.33,1.83-.68,2.05-1.39.28-.91-.55-3-.65-4.1-.07-.85-.04-2.01,0-2.87.03-.71.49-1.7.07-2.35-.46-.71-2.18-.88-2.87-1.13-.45-.16-2-.99-2.41-1.04-.27-.03-1.18-.04-1.41.01-.12.03-.11.24-.2.28-.86.41-1.65,1.19-2.65.71-.16-.08-.19-.28-.34-.4s-.39-.12-.55-.32c-.53-.65-.49-2.48-.05-3.19.68-1.11,2.89-1.28,3.53-.16.46.8.35,1.43,1.31,2.14.87.64,1.71.61,2.61.95.41.16,1.73.91,2.08.99.21.05,1.02.05,1.23,0,.11-.02.11-.22.2-.28.59-.39.66-.45.97-1.15.87-1.97,2.03-3.48,3.83-4.77.49-.35.86-.11,1.22-.93.32-.74.01-1.54-.25-2.27-.37-1.06-1.07-2.68-1.57-3.62-.22-.42-.16-.87-.69-1.15-.4-.22-1.16-.4-1.53-.62-.05-.03-.77-.77-.79-.82-.23-.49-.2-1.99,0-2.5.03-.06.89-.91.95-.94.51-.24,1.86-.26,2.33.05.39.25.61.94.78,1.3Z"/><path class="cls-20" d="M831.73,353.98s.1.03.12.09c.05.14.08.35.08.5-.02.48-.39.55-.5.97-.09.35.14,1.05.28,1.4.15.38.51,1.03.68,1.43.12.29.11.65.39.9.2.11.71.02.94-.04,1.16-.31,1.6-.33,2.78.01.2.06.73.13.89.03.42-.5.47-1.15.7-1.75.21-.56.36-.92.54-1.54.02-.07.23-.04.15-.31-.01-.05-.12-.04-.15-.11-.08-.23-.26-.87-.27-1.08s.13-.73.26-.88c.06-.07.17-.05.23-.1.08-.06.09-.17.18-.21.21-.09.81-.08,1.03.01.12.05.12.14.19.2.06.04.16.04.2.07.36.35.36,1.65-.06,1.94-.09.06-.22.07-.33.12-.25.13-.23.09-.52.19-.57.18-.59.77-.77,1.21-.21.5-.51,1.12-.7,1.62-.06.17-.2.55-.2.71,0,.53.68.64,1.01.88s1.24,1.21,1.49,1.57c.22.31.09.69.67.67.43-.01.4-.23.56-.31.24-.13.48-.27.69-.38.53-.28,1.84-.75,2.03-1.33.11-.32.07-.71.24-1.03.4-.31.94-.65,1.46-.39.1.05.11.15.16.18.08.06.2.05.29.14.33.37.31,1.53-.04,1.9-.02.02-.39.28-.41.29-.63.27-.77-.21-1.3-.28-.21-.03-.51-.05-.72.01-.18.06-.19.23-.28.28-.5.28-1.01.51-1.5.79-.21.12-.96.39-1.04.65-.09.29.06.88.15,1.19.24.94.35,1.31.3,2.4-.02.46-.34,1.11.1,1.48.22.18.69.18.92.26.34.12.93.43,1.27.53.41.12.99.31,1.4.2.23-.06.48-.36.67-.41.25-.07.69-.07.92.03.03.01.46.44.48.47.35.54.15,1.39-.34,1.79-.45.14-.55.4-1.08.23-.06-.02-.46-.3-.5-.35-.16-.2-.3-.77-.45-1.01-.33-.52-.61-.4-1.1-.58-.33-.12-.72-.24-1.11-.37-.28-.09-.68-.35-1.07-.39-.78-.09-.58.37-.82.82-.45.84-1.21,1.72-1.94,2.32-.24.2-.66.36-.87.61s-.16.57-.04.87c.06.14.16.15.19.21.29.73.75,2.6,1.39,2.97.19.11.65.2.88.34.19.12.19.32.27.48.03.06.13.06.14.11.03.12.03.55,0,.66-.01.05-.12.05-.14.12-.06.16-.09.41-.21.55-.02.02-.42.32-.45.33-.24.09-.76.09-.99-.02-.04-.02-.6-.66-.62-.71-.14-.3-.06-.82.08-1.12.04-.09.14-.09.17-.16.13-.28.11-.92.01-1.21-.12-.34-.56-1.06-.69-1.4-.3-.78-.09-1.65-1.19-1.55-.91.09-1.53.31-2.54.22-.46-.04-1.04-.31-1.46-.23s-.35.6-.48.9c-.19.46-.53,1.06-.7,1.54-.2.54-.41,1.15-.21,1.72.16.47.63.57.35,1.23-.03.07-.12.07-.15.12-.26.52-.32.78-1.04.79-.5,0-.6-.12-.88-.43-.05-.06-.17-.08-.21-.13-.31-.44-.21-1.47.3-1.76.3-.17.65-.15.94-.44.2-.2.25-.43.37-.67.22-.43.49-1.09.66-1.55.13-.37.43-1.08.4-1.44-.04-.52-.81-.73-1.15-1.01-.23-.19-.91-.92-1.08-1.14-.29-.38-.28-.96-1-.77-.45.12-.85.53-1.25.76-.61.34-1.56.57-1.79,1.36-.09.3-.07.33-.18.6-.05.12-.04.3-.12.4-.1.13-.25.1-.36.16-.06.03-.06.12-.12.14-.67.25-1.25-.23-1.6-.75-.04-.29-.07-.65,0-.94,0-.03.29-.44.31-.46.31-.34.81-.51,1.26-.33.08.03.08.14.15.17.24.1.66.11.91.02.44-.16,1.23-.7,1.66-.96.31-.18.98-.36,1.1-.74.15-.49-.3-1.61-.35-2.2-.04-.45-.02-1.08,0-1.54.02-.38.26-.91.04-1.26-.25-.38-1.17-.47-1.54-.61-.24-.09-1.07-.53-1.29-.56-.14-.02-.63-.02-.76,0-.06.01-.06.13-.11.15-.46.22-.88.64-1.42.38-.08-.04-.1-.15-.18-.22s-.21-.06-.29-.17c-.28-.35-.26-1.33-.03-1.71.37-.59,1.55-.68,1.89-.09.24.43.19.76.7,1.14.47.34.91.32,1.4.51.22.08.93.49,1.11.53.11.03.55.03.66,0,.06-.01.06-.12.11-.15.32-.21.35-.24.52-.62.47-1.06,1.09-1.86,2.05-2.56.26-.19.46-.06.65-.5.17-.4,0-.82-.13-1.21-.2-.57-.58-1.44-.84-1.94-.12-.22-.09-.46-.37-.62-.21-.12-.62-.22-.82-.33-.03-.02-.41-.41-.43-.44-.12-.26-.11-1.06,0-1.34.01-.03.48-.49.51-.5.27-.13,1-.14,1.25.02.21.14.33.5.42.7Z"/><polygon class="cls-10" points="227 176 40 283 15 386 227 176"/><polygon class="cls-10" points="201.21 144.24 159 116 184 95 201.21 144.24"/><polygon class="cls-10" points="227 176 323 26 372 15 227 176"/><polygon class="cls-4" points="227 176 568 24 647.68 58.57 227 176"/><polygon class="cls-10" points="227 176 13 506 20 547 227 176"/><polygon class="cls-1" points="227 176 122 152 86 198 227 176"/><circle class="cls-6" cx="226.5" cy="175.5" r="45.5"/><path class="cls-8" d="M701.66,87.62C630.08,37.9,540.66,5.21,447.26,5.21,203.15,5.21,5.26,203.1,5.26,447.21c0,201.45,134.77,371.42,319.07,424.68"/><path d="M183.25,608c13.9-8.78,32.96-13.88,44.86-10.44,11.9,3.44,24.69,5.44,37.79,10.44v4.49l-21.25-9.52s-12.45-4.15-22.55-4.06c-10.1.09-24.48,2.95-24.48,2.95l-16.75,10.1-15.87,7.04-21,5"/><path class="cls-12" d="M96.71,648.56s40.68,25.42,44.48,20.93c0,0-17.45-40.97-17.2-40.49s-11.58,1.87-33.79,15.93l6.51,3.62Z"/><path class="cls-12" d="M144,624s33.06-6.89,47.03-18.45c13.97-11.55,48.91-4.52,48.91-4.52l23.96,9.47-5.27,9.55s-17.63,2.95-111.63,4.95c-.42,0-3-1-3-1Z"/><path class="cls-24" d="M185,560l1.72,5.15-1.72,4.85,2.09,2.88,1.32-3.58-1.32-10.62-2.09-15.67-1-16-3-4-6.22-4.09-.68-4.05,3.13-4.93-.64-6.02-3.44-1.59-3.83,2.61-1.31,11.07-7,4-4,3-1.77,11.74-2.23,13.26-1.97,15.2v6.95l1.97.85,1-4v-9l6-25,3,8-1.4,15.86-2.5,6.3-1.14,8.05-2.96,6.79,1,11,2,7,2.35,5.03,2.16,5.25.52,4.22-1.88,7.11,1.1.09s.81,2.22,3.79-5.74l-2.44-14.4-1.58-8.56.28-7.26,2.72-7.74,2.05-7.1,2.6-3.7,1.83,5.9-.48,6.91.48,6.99-.48,11.01v12l-2,16,1,2,3.53-1.13-1.53-4.87,1.53-7.06,1.47-4.94v-4.38l1-7.62,1.22-6.01.78-5.99v-4.69l1.05-3.07.95-6.24.87-6.26.13-6.74-3.78-9.43-1.08-8.43,2.9-5.19.94,5.74,1.02,8.31,1,6,3,8Z"/><path d="M154.57,572.02c-1.25.42-1.72,1.51-3.3-.18-2.92-3.12-1.13-6.3-.76-9.55.94-8.3,2.08-15.91,3.28-24.13.66-4.5.49-14.16,3.39-17.44,1.8-2.03,4.77-2.05,7.13-3.1,6.1-2.71,2.45-5.91,3.14-10.75.61-4.27,4.25-7.54,8.43-4.97,3.57,2.2,3.41,7.2,2.02,10.67-.53,1.32-2.93,4.02-2.83,4.71.49,3.43,8.25,2.96,10.17,8.88,1.5,4.65.62,12.27,1.12,17.52.65,6.89,1.5,13.92,2.23,20.8.19,1.77,1.09,3.6,1.09,5.52,0,2.52-2.06,7.19-5.14,6.39-.03-1.05,1.05-1.77,1.1-2.77s-.95-1.25-1.12-2.5c-.35-2.53,1.12-5.1,1.03-6.17-.03-.42-2.22-6.89-2.58-8-.12-.38-.09-1.1-.62-1.02.45,13.9-5.35,26.55-4.39,40.56l-.37.73c-.17.22-.98,4.76-1.1,5.48-.04.23.03.49,0,.73-1.25.93-3.19,13.77-2.89,15.86.17,1.21.99,2.17,1.09,3.33.08.92-.38,1.59-.39,2-1.05.72-2.04.8-3.29.73-2.59-.14-3.42-1.95-3.29-4.39,0-.05.34-.41.38-.88,1.33-17.57,3.12-35.35,1.83-53.04-.05-.63.04-1.21-.57-1.62-1.75,4.19-3.38,8.51-4.66,12.87-.7,2.37-1.96,5.78-2.09,8.15-.16,2.82,1.24,5.36,1.72,8.13.57,3.32.47,6.72,1.31,10.02,1.35,5.3,2.33,4.94.44,10.89-.39,1.24-1.7,3.06-1.65,4.02-6.6,3.15-4.52-2.22-3.65-6.21.76-3.5,1.03-2.93,0-6.58-2.66-9.39-7.16-14.42-6.57-25.03.14-2.61.62-7.15,1.09-9.69,1.6-8.52,6.97-22.98,6.17-31.2-.18-1.79-.89-3.59-1.23-5.35-.9,4.47-1.24,9.06-2.19,13.53-.76,3.6-3.05,9.1-3.31,12.4-.13,1.68.56,4.05.53,5.64-.03,1.48-.7,3.42-.69,4.97ZM170.76,504.16c-1.63,1.81-1.29,8.85.4,10.15,3.75,2.88,7.17-6.37,4.44-9.56-1.15-1.34-3.52-2.05-4.84-.59ZM173.56,516.83c-.07-.07-1.29.02-1.84-.16-.72-.24-1.48-1.42-1.98-1.3-.33.08-1.34,2.07-1.83,2.57-2.36,2.46-5.23,1.99-7.76,3.2-3.91,1.87-3.24,10.4-3.8,14.1-.91,6-2.06,11.88-2.92,17.91-.37,2.6-2.93,14.86-1.41,16.31,1.06,1.01.64-2.66.78-3.06.18-.5.97-.47,1.06-.85.16-.66-.48-4.16-.34-5.73.66-7.52,3.98-16.23,5.07-24.17.17-1.22.1-6.44.96-6.73.97-.32,1.47.21,1.79,1.06.71,1.89,1.79,8.65,1.96,10.83.63,8.37-3.84,21.56-5.33,30.39-1.06,6.28-2.68,13.19-.93,19.36,2.18,7.69,6.59,13.62,5.94,22.19-.12,1.62-.94,3.24-.72,4.94.93,1.06,2.01-3.58,2.08-3.94,1.07-5.25-.47-5.73-1.26-10.22-.33-1.88-.2-4.23-.5-6.08-.44-2.7-1.76-5.73-2.05-8.18-.48-3.97,4.98-21.39,7.14-25.19.48-.85,2.91-3.3,3.77-2.09.22.32.66,3.96.71,4.71.29,5.01-.37,10.04-.4,14.98-.06,9.81.49,20.6-.35,30.34-.23,2.61-1.94,7.24-1.8,9.49.09,1.52,1.17,1.87,2.54,1.66-1.66-5.65.1-11.92,1.21-17.61.52-2.67,1.7-5.54,2.04-8.19.53-4.18.28-8.75.82-13.07,1.18-9.44,4.82-19.27,3.96-28.92-.68-7.66-6.56-8.65-3.99-18.26.38-1.42,2.63-9.33,4.65-5.42l2.68,20.34,3.62,10.27c-.6-6.13-2.29-12.14-2.88-18.32-.46-4.88.23-13.71-1.24-17.76-1.38-3.81-8.21-3.13-9.25-7.2-.16-.62-.08-2.14-.16-2.22ZM180.87,549.72l-1.82-14.98c-.54,2.27-1.98,5.49-1.82,7.81.12,1.73,2.52,5.74,3.64,7.17ZM187.08,566.9c-2.19.25-.49,3.09-.36,4.38.55-.03.74-1.67.74-2.02,0-.83-.34-1.55-.38-2.36Z"/><path d="M36.67,605.55l46.17,24.39s48.55,42.03,58.36,39.54l-1.75-3.68s-5.46,2.19-61.45-40.81c0,0-39.65-19.73-41.32-22.86s0,3.42,0,3.42Z"/><polygon class="cls-24" points="89.16 623.23 78 634 74.22 651.57 75.44 665.06 80.31 675.54 89.16 681.75 100 680 107.15 672.22 112 661 117 667 121.24 673.45 124.75 679.14 126.74 686.63 134.75 686.1 141.2 687.26 146.62 687.26 134.75 681.31 131 670.02 124.75 656.36 122.83 648.83 127.95 646.64 129.41 643.52 121.24 637.64 109.48 634.3 98.12 630.68 95.15 628.06 100.92 625.39 103.24 619.29 101.52 614.89 99.41 611.96 94.48 611.96 91.46 614.28 89.16 623.23"/><path d="M75.2,669.33c-3.12-10.84-4.25-25.72.94-36.08,3.13-6.25,8.18-5.82,11.61-9.82,2.99-3.48.36-8.15,5-11.69,5.81-4.43,13.03.23,12.36,7.18-.23,2.34-2.36,7.24-4.24,8.63-.66.49-3.27.74-2.41,1.63.36.38,6.11,2.36,7.12,2.64,9.3,2.63,12.2,1.63,20.66,7.41,2.24,1.53,7.9,3.03,5.21,7.14-1.53,2.34-6.89,2.46-6.79,3.99.07,1.07,3.08,9.63,3.72,11.1s1.83,2.68,2.48,4.2c1.47,3.46,3.32,11.35,5.64,13.44,2.56,2.31,7.24,3.41,10.11,5.11,2.66,1.58,2.66,3.84,6.95,2.8.37,1.48-1.1,2.37-2.37,2.39-.7,0-1.64-.56-2.61-.52-5.76.27-8.26-.83-12.85-.93-2.56-.06-7.3,1.9-9.51.05-1.15-.96-.54-5.96-1.91-7.64-1.78-1.68-10.45-15.59-11.4-15.79-1.65-.35-3.9,6.97-4.53,8.27-8.11,16.86-28.3,13.43-33.17-3.52ZM96.74,617.89c-2.13,2.45-4.33,5.31-.62,7.69,4.52,2.89,7.43-7.06,5.39-10.68-2.95-5.26-11.16-.99-9.93,4.26,1.81-1.78,3.88-4.33,6.64-4.32,3.26.01-.94,2.43-1.48,3.05ZM92.29,622.98c-.77-.71-.88.38-1.08.61-4,4.52-3.81,3.41-8.37,6.36-8.41,5.43-8.13,23.87-6.48,32.71,1.16,6.23,4.85,15.4,11.54,17.06,8.74,2.17,14.45-.83,18.1-8.79,1.55-3.39,3.34-7.99,3.98-11.34.14-.73,1.81-1.46,1.31-2.2-.23-.34-6.76-3.2-7.48-3.26-1.42-.13-3.7,2-4.87,3.01-2.87,2.47-5.4,5.97-8.32,8.35-1.44,1.18-3.09,2.94-4.94,1.89-.83-2.69,2.96-3.21,3.2-5.08.27-2.06-1.48-4.26-1.34-7.05.08-1.65.83-4.23,1.29-5.89.36-1.29,2.04-4.25,2.02-5.13-.03-1.71-4.48-2.81-3.79-5.48,1.59-1.53,8.77,5.58,10.22,6.67,2.55,1.92,5.07,3.91,7.88,5.45l15.62,6.75c-2.85-3.28-6.39-4.18-9.94-6.25-5.56-3.25-13.09-10.19-17.13-15.26-.49-.62-3.22-4.05-3.33-4.3-.53-1.24,1.66-.47,1.89-.71.35-.36.75-7.42,0-8.12ZM95.4,630.14c-3.04.62,2.36,7.83,3.85,8.08.43.07,1.29-.83,2.28-.94,3.04-.33,10.19,0,13.21.61s5.87,5.52,6.29,5.63c1.01.26,2.75-2.92,1.9-4.31-1.06-1.74-16.85-4.55-20.08-5.6-1.63-.53-7.06-3.55-7.46-3.47ZM110.82,639.23l-10.92-.48c1.63,1.57,3.49,5.78,6.16,4.54l4.76-4.06ZM118.36,646.81c1.29-1.81-2.71-5.27-5.65-4.51-7.78,2.03-2.7,7.85,2.41,6.25.19-.06,3.13-1.6,3.24-1.75ZM120.32,647.34c1.52.38,6.8-1.08,7.64-2.11,1.19-1.47-.47-3.05-2.07-2.6l-5.57,4.7ZM94.19,645.92c-.85-.74-1.55,1.64-1.78,2.26-1.05,2.82-2.63,8.29-.35,10.63l7.35-7.87c-1.21-1.53-3.11-2.36-4.52-3.58-.57-.49-.64-1.38-.7-1.43ZM124.11,658.81c-1.15-3.78-.04-9.91-5.67-6.66-.67.98,3.29,5.21,4.25,5.95.48.37.6.93,1.43.71ZM115.9,658.49c-.81-.56-2.3-.98-3.18-.4l14.12,21.63,1.08,6.32c2.12.92,5.01-1.4,6.41-1.39,1.72,0,6.35,2.53,8.78,1.88.26-1.27-.32-.82-.93-1.19-3.29-1.94-6.35-3.29-8.77-6.49-.57-.76-1.12-2.73-1.23-2.84-.34-.33-1.01-.25-.91.67.21,1.8.93,3.69.91,5.54-5.16-3.36-4.34-13.05-6.91-17.17-1.37-2.2-5.98-3.84-8.18-5.16-.67-.4-.89-1.19-1.19-1.4ZM131,675.06v.48c.31-.16.31-.32,0-.48Z"/><polyline class="cls-19" points="144 624 142.56 622.74 154 620"/><path d="M111.66,633.54s10.34-3.54,12.34-4.54v-1s-13.83,5.35-12.91,5.18l.57.36Z"/><path d="M126.94,635.96s-4.94-10.96-7.18-18.42c0,0,1.32-1.1,1.25-1.54-.24-1.38,5.89,19.88,6.95,19.44l-1.01.52Z"/><path class="cls-14" d="M730,750c1,0,1.14-1.33,1-3-.19-2.32-3.98-2.18-6.34-2.25-7.38-.19-13.49,3.66-13.49,3.66-8.82,13.41-2.14,21.34-2,21.49,9.83,11.1,19.83,15.1,19.83,15.1,4.32.02,104-96,131.41-192,0,0-63.92,23.94-102.41,23-30.75-.75-54.61,1.21-70,7,0,0-33,63-53,88-26.87,33.59-85,72-85,72,0,0,31,6,96-49,34.69-29.35,62.06-29.49,79.58-23.79,11.26,3.66,17.19,9.06,17.2,9.06,2.9,3.5,4.83,5.93,6.14,7.62.06.08.07.09.08.11,1.6,2.12,1.22,4.34,1.41,7.41.11,1.78.53,3.53.79,5.29.33,2.25.61,4.08.79,5.29-2.94,6.33-6.83,9.52-9,11-2.19,1.49-3.61,1.9-4,2-6.09,1.64-11.33-2.62-12.52-3.59-1.93-1.57-2.18-2.69-2.31-3.14-.46-1.58,0-2.85,0-2.85.84-1.42,3.84.58,3.84.58"/><path d="M743,756c-.07-.07,2.44-2.14,4.21-5.56,0,0,1.21-2.5,1.79-5.44,2-10.27-7.26-20.3-24-27-15-6-42.54-.32-69,20,0,0-14,18-36,25,0,0-43.97,23.37-52.48,24.19-8.52.81-18.34-1.19-18.93-2.19s0-2.62,0-2.62c0,0,19.36,6.42,59.89-20.98,40.53-27.4,52.5-42.08,65.82-46.85,12.7-4.55,23.7-13.55,53.9-3.42,29.48,9.89,23.8,33.87,23.8,33.87-.25,1.09-1,3-2,4-.48.48-.44.38-1,1-.43.48-1.2,1.18-2,2,0,0-.57.51-1,1-1.44,1.67-2.94,3.05-3,3Z"/><path class="cls-23" d="M300,329c2.26-.28,5.48-.94,9.03-2.61,3.04-1.43,5.33-3.14,6.91-4.52,0,0,2.99-1.89,6.54-1.84,5.9.07,12.36,7.27,18.92,6.03,5.18-.97,10.64-14.73,16.78-17.22,6.21-2.52,12.66,1.06,18.99,0,9.1-1.52,18.89-13.58,20.23-22.72-6.51,4.25-10.39,11.88-16.95,17.01-10.91,3.82-20.86-5.37-30.5,5.47-7.14,8.03-5.95,17.4-20.99,11.45-2-.79,3.46-.92,5.44-3.03.33-.35,1.53-2.31,1.52-2.45-.12-2-12.7-3.24-15.69-.17-.47.48-.06,1.93-.93,2.72-1.69,1.54-3.7,1.34-4.05,1.4-4.98.84-11.75-7.56-11.24-4.52,2,12-20,10-4,15Z"/><path class="cls-23" d="M306,341c-1,2-8.23,2.62-7.04,4.6,2.04,3.4,4.72,2.44,6.73,3.66,3.86-5.38,8.05-15.35,15.29-16.82,1.08-.22,2.16-.28,3.22-.22,7.48.43,14.68,6.74,23.04,4.51,7.4-1.97,11.82-17.06,21.54-18.41,9.35-1.3,16.86.45,22.39-10.07-4.32.66-6.05,3.6-10.74,4.73-5.51,1.33-14.7.27-18.97,2.01-5.3,2.16-8.45,11.15-12.73,14.24-7.08,5.1-13.77,1.48-20.53-.6-3.74-1.15-7.49-1.83-11.34-.3-4.91,1.95-6.84,5.68-10.61,6.1-5.22.59-10.8-2-13.23-4.43,4,4,14,7.33,13,11Z"/><path class="cls-23" d="M315,362c.7-.79,1.68-2.07,2.38-3.83.91-2.28.52-3.05,1.48-5.09.52-1.1,1.41-2.28,3.18-3.75,3.32-2.77,7.01-3.49,10.96-3.33,9.99.41,22.79,6.42,30-4l11.33-17.8c-12.18-1-14.51,15.73-23.93,18.52-8.18,2.42-16.83-1.89-23.77-2.3-1.07-.06-2.02-.06-3.27.16-7.47,1.29-19.74,16.32-14.57,14.55,6.21-2.13,4.14,4.25,6.21,6.87Z"/><rect class="cls-3" x="767" y="280" width="16" height="38" rx="8" ry="8"/><rect class="cls-3" x="758.5" y="319.5" width="16" height="38" rx="8" ry="8" transform="translate(236.05 -310.14) rotate(26.9)"/><rect class="cls-3" x="750.07" y="356.07" width="16" height="38" rx="8" ry="8" transform="translate(-22.98 50.56) rotate(-3.76)"/><circle class="cls-7" cx="671" cy="259" r="6.5"/><circle class="cls-7" cx="680" cy="273" r="6.5"/><circle class="cls-7" cx="671" cy="288" r="6.5"/><circle class="cls-7" cx="655" cy="295" r="6.5"/><circle class="cls-7" cx="645" cy="308" r="6.5"/><ellipse class="cls-11" cx="726.5" cy="207" rx="40" ry="31.5"/><path class="cls-7" d="M725,207l9.25-22.72-9.25,22.72Z"/><line class="cls-7" x1="745.84" y1="195.19" x2="725" y2="207"/><circle class="cls-7" cx="734" cy="186" r="2.5"/><circle class="cls-7" cx="746" cy="195" r="2.5"/><path class="cls-7" d="M724.35,206.29l21.58,11.67-21.58-11.67Z"/><line class="cls-7" x1="733.81" y1="228.29" x2="724.35" y2="206.29"/><circle class="cls-7" cx="744.24" cy="217.53" r="2.5"/><circle class="cls-7" cx="733.99" cy="228.47" r="2.5"/><path class="cls-7" d="M725.22,207.26l-10.66,22.09,10.66-22.09Z"/><line class="cls-7" x1="703.68" y1="217.74" x2="725.22" y2="207.26"/><circle class="cls-7" cx="714.91" cy="227.65" r="2.5"/><circle class="cls-7" cx="703.5" cy="217.92" r="2.5"/><path class="cls-7" d="M725.41,207.74l-21.6-11.63,21.6,11.63Z"/><line class="cls-7" x1="715.9" y1="185.76" x2="725.41" y2="207.74"/><circle class="cls-7" cx="705.49" cy="196.54" r="2.5"/><circle class="cls-7" cx="715.73" cy="185.58" r="2.5"/><circle class="cls-7" cx="725" cy="207" r="11.5"/><path class="cls-11" d="M682.54,307.8c22.09,0,40,14.1,40,31.5s-17.91,31.5-40,31.5"/><polygon class="cls-5" points="736.36 456.82 726.89 462.18 717.51 456.66 717.6 445.78 727.08 440.42 736.45 445.94 736.36 456.82"/><rect class="cls-11" x="796" y="449" width="67" height="51"/><path class="cls-3" d="M807.45,487.4l-.56-1.08c-2.01-3.91-.46-8.76,3.45-10.77l15.67-8.07,13.07-6.73c3.91-2.01,8.76-.46,10.77,3.45l.56,1.08c2.01,3.91.46,8.76-3.45,10.77l-28.74,14.79c-3.91,2.01-8.76.46-10.77-3.45Z"/><rect class="cls-3" x="824.78" y="456.79" width="7.49" height="38" rx="3.75" ry="3.75" transform="translate(872.42 -478.63) rotate(62.77)"/><line class="cls-3" x1="826.5" y1="457.5" x2="830.45" y2="465.19"/><line class="cls-3" x1="836.5" y1="453.5" x2="838.49" y2="459.86"/><line class="cls-3" x1="849.5" y1="452.5" x2="845.42" y2="460.33"/><line class="cls-3" x1="856.5" y1="459.5" x2="849.12" y2="463.03"/><line class="cls-3" x1="857.5" y1="466.5" x2="851.28" y2="468.54"/><line class="cls-3" x1="857.5" y1="476.98" x2="849.99" y2="473.31"/><line class="cls-3" x1="831.13" y1="493.57" x2="827.19" y2="485.88"/><line class="cls-3" x1="821.13" y1="497.57" x2="819.14" y2="491.21"/><line class="cls-3" x1="808.13" y1="498.57" x2="812.22" y2="490.74"/><line class="cls-3" x1="801.13" y1="491.57" x2="808.52" y2="488.04"/><line class="cls-3" x1="800.13" y1="484.57" x2="806.35" y2="482.53"/><line class="cls-3" x1="800.13" y1="474.09" x2="807.64" y2="477.76"/><line class="cls-3" x1="808.13" y1="466.5" x2="812.22" y2="473.31"/><line class="cls-3" x1="816.24" y1="461.27" x2="820.14" y2="470.5"/><line class="cls-3" x1="841.73" y1="488.04" x2="834.38" y2="482.53"/><line class="cls-3" x1="849.99" y1="484.57" x2="843.65" y2="477.76"/><rect class="cls-11" x="796" y="336" width="67" height="51" rx="25.5" ry="25.5"/><polygon class="cls-5" points="830.58 266.98 824.03 270.56 817.53 266.87 817.6 259.6 824.15 256.03 830.65 259.72 830.58 266.98"/><path class="cls-21" d="M749,750l-6,6s3-2,6-5c2-2,3.12-5.91,3-6-.1-.07-2.72,4.72-3,5Z"/><path class="cls-8" d="M133.54,758.56c61.86,61.4,144.24,109.12,236.23,125.34,240.4,42.39,469.65-118.13,512.04-358.53,34.98-198.39-68.23-389.18-240.48-473.63"/></svg>