<?xml version="1.0" encoding="UTF-8"?>
<svg id="Layer_1" xmlns="http://www.w3.org/2000/svg" version="1.1" viewBox="0 0 893.6 895.7">
  <!-- Generator: Adobe Illustrator 29.2.1, SVG Export Plug-In . SVG Version: 2.1.0 Build 116)  -->
  <defs>
    <style>
      .st0 {
        opacity: .5;
      }

      .st0, .st1, .st2, .st3, .st4, .st5, .st6, .st7, .st8, .st9, .st10, .st11 {
        stroke-miterlimit: 10;
      }

      .st0, .st3, .st5, .st6, .st11 {
        fill: #fc3;
        stroke: #fc3;
        stroke-width: 12px;
      }

      .st12, .st10 {
        fill: #036;
      }

      .st1 {
        fill: #39c;
      }

      .st1, .st8, .st10 {
        stroke: #1a1a1a;
      }

      .st1, .st9 {
        stroke-width: 10px;
      }

      .st13 {
        fill: #699;
      }

      .st2 {
        stroke: #ff9;
      }

      .st2, .st4, .st7 {
        stroke-width: 3px;
      }

      .st2, .st4, .st14 {
        fill: #fc6;
      }

      .st3 {
        opacity: .4;
      }

      .st4 {
        stroke: #f93;
      }

      .st15 {
        fill: #696;
      }

      .st5 {
        opacity: .9;
      }

      .st7 {
        fill: #ff9;
        stroke: #fc6;
      }

      .st16 {
        fill: #fbfbfc;
      }

      .st17 {
        fill: #ffc;
      }

      .st8 {
        fill: #1b1464;
      }

      .st8, .st10 {
        stroke-width: 8px;
      }

      .st18 {
        fill: #369;
      }

      .st9 {
        fill: none;
        stroke: #000;
      }

      .st19 {
        fill: #ff6;
      }

      .st20 {
        fill: #1d2432;
      }

      .st21 {
        fill: #fce399;
      }

      .st22 {
        fill: #333;
      }

      .st23 {
        fill: #577084;
      }

      .st24 {
        fill: #d1cec8;
      }

      .st25 {
        fill: #999;
      }

      .st11 {
        opacity: .3;
      }
    </style>
  </defs>
  <g>
    <path class="st1" d="M447,5C202.9,5,5,202.9,5,447s138.2,375.7,326,426.6L709.6,93.2C636.7,40.3,544,5,447,5Z"/>
    <path class="st15" d="M40,608s26.7,11.7,60,31,61.7,36.9,61.7,36.9l45,62.1-83.7.9c-4.3,0-67.4-75.9-83-130.9Z"/>
    <path class="st10" d="M706.6,90.2l-375.6,784.4c37,10,75.8,15.4,116,15.4,244.1,0,442-197.9,442-442s-71.9-277.4-182.4-357.8Z"/>
    <polygon class="st24" points="722 70 725.3 74.3 703 125.5 699 118 722 70"/>
    <path class="st24" d="M628.8,259.7l48.2-88.7c3.7-7.7,13.7-13.7,18-21,25-43-.6-32.5,3-40-1.6.7,2.1-.9,0,0-1.8.8-8,20.1-9,22l-63,122,2.8,5.7Z"/>
    <path class="st24" d="M607.8,311.8l-81.6,165.5-18.2,35.7c-1,1-5.3,8.2-5.3,8.2-2,.9-6.2,8.9-5.2,10.3,15.4-7.3,41.5-10.3,56.6-1.2,2.6,1.5,5.9,4,.8,4.2-4.3.2-11.6-.8-16.5-1-.5,0-2.2-1.1-4.5-1.1-12.6,0-26.4,4.2-38.8,6.3-4.5,1.6-4.4,10-5.7,12.8-1.4,3-4.7,7.2-6.5,11-6.2,12.9-12.5,25.8-18,39,48.5-14.2,96.5-37.9,137.7-67.1,22.1-15.7,46.6-35.4,62.4-57.4,7.1-9.9,13.4-20.6,17.2-32.3,2.6-.4,2.1.4,2,2.5-.2,3.9-2.3,9.3-3,13.5-2.6-.6-2,1.3-2.7,2.7-9.6,20.2-22.2,29.4-33.3,46.2-4.3,1.7-3.1,1.6-5,5-.6.3-4.7,1.2-3,3s2.6-2.4,3-3c1.1-.6,2.2-.4,3.6-1.9,1.2-1.3,1-2.5,1.4-3.1.8-.3,6-2.3,5,.5-.6,1.7-12.2,14.1-14.3,16.2-16.7,16-46.5,36.4-66.9,47.5-2.7,1.5-9.6,5.1-12.2,5.8s-1.3-5.1-.6-6.3c1.7-2.7,11.2-3.4,12-7.2.3-1.5,0-1.7-1.5-1.5-31.1,18.5-65.2,34.3-100.4,43-2.4,2.2,6.3,4,7.6,3.9,3-.2,8.7-5.7,9.9-5.9,2.5-.5,7.7,0,10.1.9,1.4.5,1.7-.3,1.4,2.1-9.5,4.8-21.2,6.3-30.6,10.8-1.5.7-12.5,6.9-13,7.4-.9.8-1.4,3.4-2.3,4.7-5.2,8.4-9.3,17.3-14,26-2.1,4-3.9,8.1-6,12-4.1,7.7-8.6,16.2-13,24-.9,1.6-1.4,4-2,5-1.2,2.1-5.9,4.5-6.8,8.7s2.1,8.8-.2,12.6-2.9,1.6-4.1,3.2c-13.4,17.9-18.1,46.9-35.9,60.5l-1-2c2.2-2.4,6.7-11.5,8.5-15,17.5-33.2,30.6-67.7,47.9-100.9,8.2-15.7,17.2-31.6,25.1-46.8,17.9-34.7,35.2-69.8,51.5-105.4,3.5-4.7,4.4.9,5.9,1.9,8.5,5.5,16.9-20.4,19.5-25.4,2.4-4.5,7.5-5.1,2.3-12.4-3.2-4.4-7-1.7-5.6-7.9l82.2-164.6,6.5-10c1.3,6.1-2.4,11.2-2.5,17M636.3,518.4c-1.1-1.1-3.1.9-2,2s3.1-.9,2-2Z"/>
    <path class="st18" d="M646.2,747.4c13.7-1.7,23.4-11.4,35.3-17.2,12.3-6,25.3-9,39.1-7.8,1.1,0,6.3.8,6.5,1,2.2,1.9-2.6,1.7-2,3,4.8,1.6,14.8,4.5,15.1,10.5.2,3.2-1.5,7.6,0,11.5l2.3-1.2,1.7-9.7c3.2,6.5,4.9,20.6-8.5,21-3.9,0-3.8-2.8-4.5-3.1,3.9-2.4,5.5-13.8,3.8-16.8-.6-1.1-12.8-6.4-14.7-6.8-12.4-2.5-29.7,3.6-38.9,12.2-1.9,1.7-8.6,9.8-9.8,11.7-1.6,2.6-7.3,18.3-8.8,18.7-1.3.3-2.9-1.6-3.3-2.7-2.6-8.4,10.4-18.6,10.8-27.3-1.7-1.8-14,11.4-15.5,13-1.4,1.5-4.1,6.5-5.2,7.1-2.4,1.3-5.4.1-7.3,1.9-17.9-5.1-38.2,2.6-53.9,11l-2.3,2.6c1-4,0-4,17.3-13.1,7-3.7,26-5.3,30.6-10.9"/>
    <path class="st25" d="M429.5,669.5c2.1-3.9,3.9-8,6-12,7.8-1.3,16.4-3.2,24-5.5,70.4-20.9,146.3-57.6,196.3-112.4,5-5.4,8.8-12.9,15-17-2.1,5.4-3.7,11.4-6.3,16.6-2.8,5.6-9.7,13-11.4,18.6-.6,2.1.3,3.6-.5,5.4-5.9,14.4-44.5,40.1-58.6,48.4-35.5,21-72.8,35.4-112.6,46.3-16.8,4.6-34.8,9.5-51.9,11.5Z"/>
    <path class="st25" d="M681.2,460.7c-2.5,16-2.5,24.5-11.6,38.9-35.1,55.6-150.8,117.7-214,132.7-2.3.5-5.2,2.2-6.2-.7.8-1.3,1.4-3.9,2.3-4.7s11.5-6.7,13-7.4c9.4-4.5,21.1-6,30.6-10.8.3-2.4,0-1.6-1.4-2.1-2.5-.9-7.6-1.4-10.1-.9-1.2.2-6.9,5.7-9.9,5.9-1.3,0-9.9-1.7-7.6-3.9,35.2-8.6,69.3-24.5,100.4-43,1.5-.3,1.8,0,1.5,1.5-.8,3.8-10.4,4.5-12,7.2s-2.2,7.1.6,6.3c2.5-.8,9.5-4.4,12.2-5.8,20.5-11.1,50.2-31.4,66.9-47.5,2.2-2.1,13.7-14.5,14.3-16.2,1-2.8-4.2-.8-5-.5-.4.6-.3,1.8-1.4,3.1s-2.5,1.3-3.6,1.9c-.3.6-1.2,4.7-3,3s2.4-2.6,3-3c1.9-3.4.7-3.3,5-5,11-16.9,23.6-26,33.3-46.2s0-3.3,2.7-2.7Z"/>
    <path class="st25" d="M510.4,671.5c-.9,4.1,4.8-.1,4,4-12.9,3.9-22.3,5.4-35,8.5-21.5,5.2-42.1,14-64.9,14.5.6-1,1.1-3.4,2-5,31.7-4.9,63.5-11.7,93.9-22Z"/>
    <path class="st25" d="M367.5,783.4c-4.2,3.2-6.3,5.6-12,7.5s-3.7,1.3-3-1c.9-3.2,4.9-8.8,6.5-12.5,7.6-17.8,14.1-36.1,24-53,.3-.6.9-3.8,2.5-2,.7.9-7.4,19.6-8.6,21.9-1.3,2.5-3.9,3.9-4.3,4.9-3.7,8.2-4.4,20.7-7.3,29.4-.7,2-3.5,3.5-4.8,5.2,1.5,1.6,5-1.4,6-2.5l1,2Z"/>
    <path class="st25" d="M538.3,533.6c-7.4,2.4-15.6,2.9-23,5.5-8.6,3.1-17,9.8-26,12.5,1.3-2.7,1.2-11.2,5.7-12.8,12.4-2.1,26.1-6.3,38.8-6.3,2.3,0,4,1.1,4.5,1.1Z"/>
    <path class="st25" d="M651.2,395.8c.1,0-.3-1.5.2-1.8,11.8-7.5,27.4-7,38,1.8,2.5,2,4.9,7.3,6.7,10l-5,1c-1.2-2-3.7-7.2-4.4-8.1-7.2-7.7-27.2-6.7-35.5-.9v-2Z"/>
    <path d="M629.7,225.9l2.5-4c11.5-25.2,25.9-48.5,40.8-71.6,5.7-8.9,10.1-20,16-29l.2-2.2,8.5-17c5.1-5.7,15.1-34,22-35,2.7-.4,5.3,1.1,7,3-4.6,14.9-14.2,28.2-20,43-4,10.3-5.8,26.6-12,34-3.4,4.1-5.3,5.9-8.7,10.3-4.3,5.7-4.2,4-8.3,6.5-5.3,3.2-41.1,71.1-45.6,81.3-1.7,4-3.1,8.2-4.8,12.1,8.2,1.6,9.8,8.2,8.6,15.5-1,6-7,20.5-11,25-4.1,4.7-12.7,8.9-17,13.9,0-5.8,3.8-10.8,2.5-17l-6.5,10-82.2,164.6c-1.4,6.2,2.4,3.5,5.6,7.9,5.2,7.3,0,7.9-2.3,12.4-2.6,5-11,31-19.5,25.4-1.5-1-2.3-6.6-5.9-1.9-16.3,35.5-33.6,70.7-51.5,105.4-7.8,15.2-16.9,31.1-25.1,46.8-17.3,33.2-30.4,67.7-47.9,100.9-1.8,3.5-6.3,12.5-8.5,15-1,1.1-4.5,4.1-6,2.5,1.3-1.7,4.1-3.2,4.8-5.2,2.9-8.7,3.6-21.3,7.3-29.4.5-1,3-2.4,4.3-4.9,1.2-2.3,9.3-20.9,8.6-21.9-1.5-1.9-2.2,1.4-2.5,2-9.9,16.8-16.4,35.1-24,53-1.6,3.7-5.5,9.4-6.5,12.5-.7,2.3,1.7,1.5,3,1,5.7-1.9,7.7-4.3,12-7.5,17.8-13.6,22.6-42.5,35.9-60.5,1.1-1.5,3.4-2.1,4.1-3.2,2.3-3.7-.8-8.1.2-12.6.9-4.2,5.5-6.6,6.8-8.7,22.9-.5,43.4-9.3,64.9-14.5,12.7-3.1,22.1-4.5,35-8.5,50-15.3,97.3-38.7,133.9-76.9,1.5-1.5,15.9-15.3,14-17-2.4-2.2-13.9,12.2-16,14-38.2,34.3-87.5,59.5-135.9,75.9-30.4,10.3-62.2,17-93.9,22,4.4-7.8,8.9-16.2,13-24,17.2-2,35.2-6.9,51.9-11.5,39.7-10.9,77.1-25.3,112.6-46.3,14.1-8.3,52.6-34,58.6-48.4.7-1.8-.2-3.3.5-5.4,1.8-5.6,8.6-13,11.4-18.6,2.6-5.2,4.2-11.2,6.3-16.6-6.2,4.1-10,11.5-15,17-50.1,54.7-125.9,91.4-196.3,112.4-7.6,2.3-16.2,4.2-24,5.5,4.7-8.7,8.8-17.5,14-26,1,2.9,3.9,1.2,6.2.7,63.2-14.9,178.9-77.1,214-132.7,9.1-14.4,9.1-22.9,11.6-38.9.7-4.2,2.8-9.6,3-13.5,0-2.1.6-2.9-2-2.5-3.7,11.7-10.1,22.4-17.2,32.3-15.9,22.1-40.3,41.7-62.4,57.4-41.2,29.2-89.2,52.9-137.7,67.1,5.5-13.2,11.8-26.1,18-39,1.8-3.8,5.1-8,6.5-11,9-2.7,17.4-9.4,26-12.5,7.3-2.6,15.6-3.1,23-5.5,4.9.2,12.2,1.3,16.5,1,5.1-.3,1.8-2.7-.8-4.2-15.1-9.1-41.2-6.1-56.6,1.2-1-1.3,3.2-9.3,5.2-10.3,1.5-.7,13.5-1.7,16.2-1.8,22.4-.7,26,2.8,43.8,13.2,5.1,3,11.6,3.2,14.2,9.8,30.2-18.4,59.8-40.1,81.4-68.4,7.9-10.3,24.7-34.8,17-47.6-.2-.3-5-5.7-5.4-5.9-4.8-3.2-14.7.2-13.6,7.1,13.4-11.3,23.6,9.6,11.5,19-14.2,11.1-34.7.1-36.5-17.5-1.8-18.2,7.1-24.8,20-33.5v2c-.6.4-1.3,2.4-2,3-8.7,7-9.2,6.1-11,18-.6,4.3-1.7,7-.6,12.1,2.7,11.5,17.6,19.4,26.5,8.9.8-.9.7-2.5,1-3,0,0,1.7.5,2-.7.4-1.5-.2-3.7,0-5.3l-8,1c-.4,1.2.9,2.3,1,3,.1.9,0,2,0,3-6.7-2.7-7.6-10.7-7-17-8.2,2.9-2.9,15.6,3.5,18.1,2,.8,3-.2,3.5-.1,1.1.2,1.6.9,2,1-6.7,5.5-18.4-2.2-20.5-8.9-.6-1.8-.3-5.8-.5-6,1.4-7.6,4.3-10.3,9-15.5.7-.8.8-2.3,1-2.5,7.4-7.5,23.5-6.9,31,.5,2.4,2.4,4.5,6.7,6,9.5-1.5,1.6-.2,5.3,0,7.4,4.2,31.9,5.1,60.3,1.9,92.5-1.1,11.2-3,25-5,36-11.7,63-38.1,109.2-73,161.3-1,1.5-2.4,2.3-1.9,4.6-21.8,22.2-50.4,48.1-78.2,62.1-3.4,1.7-20.8,8-21.7,8.8-1.4,1.5.1,1.8,1.5,2,9.4,1.2,27-7.8,35.2-12.8,114.5-69.8,164.3-188.3,158.2-320.4-1-21.6-3.1-32.9-14-51.4l5-1c13.8,20.4,14.1,34.1,15,58.4,4.6,121.9-32.5,226.3-132,299.7-4,2.9-27,17.1-27.9,19.1-.9,2,1.4,1.4,2.5,1.5,10.7.8,23-3.3,32.5-8l2,1c-.3.2-.7,1.8-1,2-18.9,10-37.2,18.3-57.9,24-.2,1.5,2.6,1.8,3.6,1.9,15.3,1.6,34-4,47.1-11.7,5.8-3.4,10.6-10.2,18.3-11.2.4,1.8-.9,2.5-2,3.5-8.3,8-19.5,17-29.8,22.2-5.9,3-12.6,4.7-18.6,7.3-.9.4.3,2,.4,2-20.4-9.3-50.1-24.6-58.1-47.3-4.5-12.8-.5-29.9,11.5-36.8l9.7-3.8c-19.2-2.7-27.3,11.3-30,28-5.7-1.5-4.5,4.3-5.3,8.2-.2,1.1-1.5,2.1-1.7,3.4-.6,4,7.2,16.3,10,19.9,4.5,5.8,14.1,12.5,17.6,17.8,4,6.1-1,4.2-1.6,4.7-8.2-5.3-16.4-11.2-23-18.5-3.9-4.3-10.3-12.5-12-17.5-6.9-21.1,1.6-45.5,23.3-53.1l16.7-4.8h-15.5c-40,0-62.5,63-32,89.9l14.5,10c-13.7,2.5-20.2,2.5-28.8-8.7-29.3-37.9,3.7-106.2,54.8-94.8,11.3,2.5,25.5,11.1,26,24.1.2,6.1-4.3,13.2-10,15.4-.2-.2-2,.1-2.9-.5-8.4-6.2-1-18.4,1.9-15.5,1.1,1.1-3,8,.5,7,4.8-1.4,7.8-8.9,2-10-12.4-2.4-19.7,19.9-2.5,26.5,22.1,8.5,33.1-15.9,31.9-34.4,19.7-13,45.2-22.6,63-38.5.9-.8,7.1-6.4,6-7.5l-38.7,25.8-31.3,16.2c-2.5-17.1-14.7-26.5-30.5-32-33.1-11.5-66.6,3.3-88.9,28-25,27.5-36.8,79.2-80.2,84.7-7.9,1-24.8-1.4-30.6.4-4.5,1.4,2.2,8.3,4.4,9.3,1.6.7,2.5.4,3.9.5,3.7,6.3,0,2.6-2,7-5.9,0-11.5-1.7-17-3.5-16-5.4-34.9-24.5-33-42.4.8-7.5,4.4-13.2,10-18-12.4-1.9-19.3,19.3-18.1,28.5,0,.3,2.8,5.2,4.1,4.4.4,2.6,4,8.4,5.6,10.9,11.7,18.5,25.8,24.2,47.4,25.1,38.2,1.6,61.9-4.6,82.7-37.6.7-1.2,6.9-15.9,9.2-13.3.6,6.9-.2,12.3-2.7,18.7-.4,1.1-1.8,1-2.4,2.6-2.7,6.6-8.2,29,3.1,29.6.3.3-.5,1.3-1,1.5-4.6,2.3-30.1,5.7-36.6,6.4-24.4,2.6-66.8-.8-89.6-10-33.8-13.7-49.3-60.1-8.6-74.8.4-2.7-.5-2-2.5-2-12.1-.3-25.7,8.8-29.9,20-19.9,53.1,64.6,78.6,102.9,79.9,64.3,2.2,107.5-39.3,175.3-21,4.7,1.3,10,3.5,15,5,.5,3.1-1.1,1.9-3.1,1.6-6.8-1.3-15.1-2.9-21.9-3.6-31.5-2.9-60.7,2.5-90.2,13.2-3.6,1.3-7.5,2.6-10.7,4.7-22.9,4.1-41.6,8.4-65.5,7-24.2-1.4-76.3-18.2-95.6-33.1-12.9-10-23.4-33.4-17.8-49.4,8.2-23.4,31.9-36.8,56-27.9,7.9,2.9,10.8,9.5,15,11.5,7.2,18.9-13.9,30.9-13,6h3c-1.2,7.7,6.3,12.4,6.1,2.5,0-5.4-6.7-8.2-8.6-5.5-.7.9-.3,2.6-.5,3,0,0-1.5-.2-2,.7-11.5,21.4,24.2,29.4,34.7,7.5,8.4-17.5-.9-35.2-16.7-44.2,9.7,1.6,50.2-3.4,62.3-5.1,5.2-.8,15.8-.9,15.6-7.9,5-1.4,13.6-3.7,13.5-10-5.6,1.6-14,2.8-14.5,10-10.1,2.5-17.7,1.8-27.5,3-17,2-33.8,5.2-50.9,6l.5,4c-7.3-2-12.6-7.2-22.4-8-41.9-3.6-64.9,20.7-92.4,46.5-3,2.9-7.3,6.3-10.9,8.6-1.7,3,3.7,4.8,4.9,5.9,1.4,1.3,7.1,7.3,8.5,7,6.2-9.4,14.6-16.6,22.1-24.9,1-1.1,1.5-2.5,3.4-2.1,1.7,6.5-17,30.9-16.8,33.5,0,.6,8.1,7.5,9.8,6.4,1-.7,6.7-19,8.2-22.3,1.2-2.7,3-5.7,4.4-8.6.7-1.4-.2-2.5,2.4-2,2.6,10-7,18.1-8,26.4-.8,6.4-.9,13.3,5.1,17,24.9,15.2,51.2,30.1,79.1,39.8,18.7,6.4,50.1,16.6,69.2,17.7,30.5,1.9,53.2-13.3,81.5-20.5,24.7-6.3,59.1-4.6,84.2-.3,9.8,1.7,19.7,6.3,29.3,7.6,18,2.5,54.1.3,70.7-7,1.5-.7,3.1-.6,2.6-2.8,6.7-.8,19.4-6,24-11-36.1,7.8-73,3.8-106.9-10.5-2.4-1-4.3-2.7-6-3.5,2.3.6,5.7-1.5,8.5-1.1,2.6.4,1.7,3,4,3.2,27.1,2.4,45.3-43.2,73.7-38.8,3.5.5,14.4,4.9,15.5,8.5,1.3,3.9-.1,2.8-1.8,3.3.1.2-.2.9,0,1.3.5,1,3.2,1.1,2,4.7-.3.1-.5,1.9-3.5,2.1-4.7.3-6.2-2.5-3.1-6.2,1.8-2.1,2.8-1.4,4.6-1.9-.7-1.1,0-2.8-3-3.6-6.8-1.8-9.4,9.3-4.6,13.6,2.5,2.2,9.2,3.7,12.3,2.2.4-.2,5.9-5.3,6.2-5.8,9.8-12.3-4.9-29-17-32.5,1.9-1.8,4.9-.6,7.3-1.9,1.1-.6,3.7-5.5,5.2-7.1,1.5-1.6,13.8-14.8,15.5-13-.3,8.6-13.3,18.9-10.8,27.3.3,1.1,2,3,3.3,2.7,1.6-.3,7.3-16.1,8.8-18.7,1.2-1.9,7.9-10,9.8-11.7,9.2-8.6,26.5-14.7,38.9-12.2,2,.4,14.1,5.7,14.7,6.8,1.7,3,0,14.4-3.8,16.8-3.6-1.3-4.2-.4-8-7-.2-2.4,9.8,9.6,8-4.5-.9-6.8-17.1,2.7-20,4.5-1.1.7-2,.5-3.5,1.9-1.8,1.8-1.6,2.6-2.4,4.1-3.8,6.4-4.6,12.4-2.3,19.8,1.3,4.2,8.2,15.9,13.3,13.7.5-.2,4.5-3,4-4-2.5-1.7-4.7-3.4-7-5.5.7-1.8,3.5-.4,5,0,1.8.5,9.3,7,10.8,6.6l-15.6,11.2-22.4,16.6-22,13.2-21.6,13.6-29.3,12.9-12.3,5.9-29.8,8.7-31.7,9-32.3,6-38.5,3.7-31.5,1.3-29-2-31.5-4.2-29.1-5.1-24.4-6.7-15.3-4.8-13.7-5.2-16-6-16.7-7-18.3-9-17-9-17-10-19-13-16-12-16-13-18-15-37.4-41.7.4-.3c3.1,4,7.1,8,12,10,2.8,10.7,28.2,7,37.7,9,14.5,3,28.3,2.6,43,2.5,3.2-3.4-9.2-5.9-10.7-6.7-.2-.1-3.9-3-4.3-3.3-24.8-21.1-48.1-69.8-59.9-99.9,8,1.4,14.8,9.3,22,12.5,34.4,15.4,90.8,17.4,128.4,16.5,1.5,0,5.2-1.2,5.4-1,2.5,2.1-4.6,3-5.4,3-15,1.2-37.8.8-53,0-2.5-.1-13.9-2.6-14.4-2-.2.2,0,2.2,0,3,20.7,2.5,41.6,3.9,62.5,3.1,43.3-1.7,96.1-9.9,137.1-23.8,6.7-2.2,16.2-4.8,20.1-10.9,1.1-1.6.8-3.8,1.1-4.3.2-.3,1.5-1,2.2-2.3,3.4-5.9,6.7-12.4,9.3-18.7-35.5,14-73.5,23.4-111.2,29.6-45.9,7.6-138.1,14.3-179.7-6.5-6.6-3.3-11.2-6.8-16.3-12.2.4-.8,1.1-2.1,1-3,4.4,2.3,8.2,6.4,13.5,7,2.5.3,5.4-.2,8,0,20-2.7,40.3-2.8,60.4-3h9.4c10.2,1.3,22.2-.9,32.5-1.5,4.9-10.1,10.8-18.3,19-26,3.6-3.4,21.3-15.5,20-19.9-.2-.8-1.6-1.5-2.5-1.6l-23.4,3c-1.8-1.8,10.6-19.4,12.6-21.9,10.5-12.7,22.4-18.4,35.3-27.7,3.2-2.3,23.6-17.4,24-19.1.6-2.2-18.4-33.3-20.6-41-3-10.7-.9-19.8-2.5-29.4-.7-4.3-4.2-8.4-5.5-12.5-6.7-21,2.8-42.4,22.3-52.1l12.4-5.1c-7.1-2.7-17.6-7.7-25-3l-1-1c10-11,11.1-5.9,23.5-5,19.6,1.4,30.4-12.3,35.3-29.7.4-1.5.8-2.7-1.3-2.3-7.1,9.2-13.5,26.2-26.9,28-14.1,1.9-28.7-10.3-33.5,11.9-.2.9-1.7,2.3-1,4-.3.5.3,2.7,0,3-.8.8-3.8-1.8-5-2-1.2-1.2,0-2.1,0-3,.8-7.2,1.7-13.9,7.6-18.8,3.3-2.8,7.1-3.4,11-3.3,10,.4,21,6,28.2-4.4l12-16.5c-12.2-1-13.5,15.7-22.9,18.5-8.2,2.4-16.8-1.9-23.8-2.3-1.1,0-2.2,0-3.3.2-8.3,1.5-12.3,13.1-14.6,13.5-2.1,0-2.9-2.7-4.4-3.4-3.7-1.7-6.1-1.4-10-5-.7-.6-2.8-2.7-2-3.5,1.7-1.6,9.7,6.2,12.4,6,3.9-5.4,8.1-15.4,15.3-16.8,1.1-.2,2.2-.3,3.2-.2,7.5.4,14.7,6.7,23,4.5,7.4-2,11.8-17.1,21.5-18.4,9.3-1.3,16.9,1.4,22.4-9.1-4.3.7-6.1,3.6-10.7,4.7-5.5,1.3-14.7.3-19,2-5.3,2.2-8.4,11.2-12.7,14.2-7.1,5.1-13.8,1.5-20.5-.6-3.7-1.2-7.5-1.8-11.3-.3-9.1,3.6-7.4,9.3-20.3,3.1-4.5-2.2-13-9.5-5.3-12.2-.9,5.1,5.2,8.6,9.5,9,3.1.3,6.2-1.4,8.6-2.7,3.2-1.8,3.7-3,6.9-4.5,0,0,3-1.9,6.5-1.8,5.9,0,12.4,7.3,18.9,6,5.2-1,10.6-14.7,16.8-17.2,6.2-2.5,12.7,1.1,19,0,9.1-1.5,18.9-12.6,20.2-21.7-6.5,4.2-9.3,14.3-16.9,17-10.9,3.8-19.9-6.4-29.5,4.5-7.1,8-8,19.7-22,11.5.8-2,3.5-.9,5.4-3,.3-.3,1.5-2.3,1.5-2.5-.1-2-11.7-2.2-14.7.8-.5.5-1.1,1.9-1.9,2.7-1.4,1.3-2.8,1.1-4.1,1.4-4.2,1.1-7.8-2.1-11.3-6,3.4-1.4,6.3,1.3,10,0,2.6-.8,5.3-6.3,8.6-8.4,3.7-2.4,10.1-2.6,11.2-3.3.7-.4,2.7-9,3.7-10.8,1.2-2.4,5.9-7.6,8.2-8.8,2.8-1.3,9.9-1.5,11.1-2.4.7-.5,2.5-8.9,3.5-11,5.8-12.4,24.3-20.4,37.3-21.6,12.7-1.2,41.5,1.8,44.1,17.6.7,4.1-.8,6.2-.7,8.7,0,.5,4.6,3.2,4.9,4.3.5,1.7-.9,3.6-.6,5.6.4,3.8,3,8.9,2.8,12.3-.2,3-2.9,4.4-3.1,7-.2,3.3,3.2,7.6,3.1,11,0,2-1.7,3.3-1.7,4,0,.6,5.8,8.2,6.4,11.2.7,3.6-.6,13.4.7,15.3,1.7,2.4,17.1,0,20.8.9.9.2,1.2,2.3,2.9,3.3,10.7,5.7,16.9-4.6,27.1-7.4,6.5-1.7,24.4-1.5,27.6-3.3.6-.3,5.3-8.9,7-11,13.3-16.3,36.5-25.3,48.5-45.5,6.1-10.2,6.9-25.4,21.2-27.8,2.5-.4,8,.6,8.3.3.8-.5,5.8-13.3,6.9-15.6.1-.2,1.5-1,2.2-2.3.7-1.3,4.3-8.1,3.8-8.7M382.5,260.9c-.3-1.1.8-2.5-1.4-1.9-3.1.8-12.5,6.6-13.4,9.6-.6,2.2.1,4.4-1,7-1.3,3.2-5.4,3.6-6.2,7.2,8.3-.6,10.9-10.3,17.4-14,2.5-1.4,20.5-7.9,23.5-8.5,10.5-2.2,15,2.2,24,5.5,0-12.1-19.4-15.2-28.2-13.7-1,.2-8.9,2.8-8.7,3.2.8,2.1,11-.5,13.4.6l3.6,1.9-22,4c-.4-.2-.9-.6-1-1ZM431.5,269.9c8-2.6,2.8-13.4-4-14-.4,1.6,1.4.4,1.9,1.7,1.4,3.3,2.3,8.7,2,12.2ZM592.3,282.9c0,.4-.9,1-1,2.4-.5,6.3,1.5,11.5,5,3.6,2.8-6.4,5.8-25.8,14.3-25.6,6.4.1,6.2,4.1,9.6,7.2,3.2,2.9,7.3,5.5,10.5,8.4,1.4-2.3,0-5.5-.5-8,6.8.1,1.5-2.9,1.3-3.2-.3-.6.8-2.5-.2-4.2-.7-1-2-.5-2.1-.6-6.4-6-9.9-7.9-19.2-5.7-12.4,2.8-15.5,14.5-17.7,25.7ZM421.5,270.9c-3.9-5.3-15.4-7.6-21.3-6s-1.8,2.5-3.6,3.6c-4.6,2.7-11.5,3.1-16,6-3.8,2.4-7.2,8.1-10.5,11.5-1.6,1.6-6.7,3.4-.8,3.3,11.6-.1,25-1,32.2-11.3-5.9.2-10.9,4-16.6,4.9-5.3.8-6.3-.9-1.7-3.7,1.7-1,16.3-8.5,17.2-8.8,6.3-2,14.6.9,21,.5ZM622.6,276.5c-.5-.4-.8-1.5-1.5-2-1.5-1-9.6-4.9-10.9-3.6-2.3,2.3,2.9,3.8,3.9,4.5,2.4,1.9,12,11.5,14.1,9.4s-4.1-7.1-5.6-8.4ZM418.5,318.8c4.8-1.4,9-6.4,10.7-6.8,1.7-.4,12,2.1,13.3.8,1-4.2-9.5-18.5-7-21,.4-.4,6.3,1,6.9-1.6s-4.3-11.6-5.1-12.8c-6.7-10.3-16-1.5-25.2-.7-2.6,5.5-6,10.6-8.7,16.1-1.1,2.2-3.7,6.4-3.7,8.7-.1,3.4,9.7,16.4,12.8,17.8s3.7.2,6-.5ZM619.4,294.7c2.2,1.3,5.2-1.7,4.9-4.3s-11.7-11.6-16-10.1c-2.7,1-.3,1.3.3,1.8,2.6,2.4,5.4,4.5,7.7,7.3,1.1,1.3,2.9,5.2,3.1,5.3ZM534.3,346.8h-1c-.4-1.5,1.4-3.8-1.5-4-9.1-.6-22.8,1.3-31.2,4.8-3.7,1.5-11.4,7.7-13,8-2.8.5-6.2-1.6-9.2-.8-.6.6,3.5,12.1,4,14,1,3.4.4,7.7,3,10.6,2.1,1.3,22.2-6.8,25.7-8.4,8.1-3.7,14.1-9,22.3-13.2,1.6-.8,1.6-.3,4-2,5.3-3.8,9.6-9.2,14-14,13.4-14.6,23.8-30.6,33.7-47.7l.3-7.2c-10.9,26-43.9,31.7-51,59.9ZM338.5,307.8c2.1-2.2,10.8-12.5,11.7-12.8,6.8-2,18.2,2.9,26.8,1.8s3.1-.8,1.5-2c-12.8,2.1-24.9-12.3-35,.5-1.9,2.4-3.8,7.5-6,9.5-1.1,1-6.4,2.5-6,4.5s3.9,1.9,5.4,1.4c1.7-.6,1.3-2.6,1.6-2.9ZM386.5,391.8l-2-3c1.6,9.4-16.7,18.2-17.8,24.7s0,5.1,1.8,5.3c-.5-9.2,11-7.2,14-14,6.3-2.4,9.4-9.9,8.8-16.2-.6-5.7-5.6-13.1-5.4-18.1.2-7.8,9.1-12.3,9.7-19.1.7-7.4-5-13.5-4.1-22,.5-4.5,3.9-7.8,5.2-11.7,1.5-4.4.7-7.3-2.2-2.3-4.3,7.3-6.7,12.2-5.9,21,.4,4.3,3.3,9.8,2.8,13.7s-6.3,10.5-8,15.1c-4,10.7,3.7,15.7,3.2,26.7ZM397.5,342.8c-1.8-9.3,5-16.2,5-25-4.5,4.7-7.1,11.9-6.9,18.4s.6,6.2,1.9,6.6ZM415.4,340.8c.3-.2,2.1-4.4,3.5-6,2.6-2.9,14.4-12.7,15-14,2.1-4.1-5.1-3-7.3-2.2-4.3,1.4-12.5,8.1-13.2,12.8-.2,1.8-1,11.8,1.9,9.4ZM447.4,334.8c2.7-3.5-5.9-19.2-9-16l1,4.5,8,11.5ZM410.5,322.8c-2-.5-3.5,2.7-4.4,4.1-6.1,9.5-2.5,12.1-2.5,21.4,0,11.7-19.3,18.4-9.1,31.5l2.6-10.9c4.7-6.1,13.4-8.2,13.1-17.3-.1-3.4-2.3-7.2-2.7-10.3-.9-7.1,1.6-11.7,2.9-18.4ZM426.5,336.8c-.9,1.8-1.9,2.8-1.6,5,1.9,13.2,17.5,31.1,14.1,44-1.6,6.1-11,12.9-8.3,21.2l5.8,18.7c4.2-7.5-3-16.9-1.8-23.2.9-5,6.3-7.6,8.6-11.5,8-14.3-4.2-24.5-6.7-38.2,1.6-1.7,7.6,9.2,8.2,10.3,1.3,2.4,2.5,4.9,3.6,7.4.3.8,2.6,11.2,4.1,5.6.9-3.6.2-9.9-1.5-13.2-1.8-3.8-7.4-8.2-8.9-12.1-1.1-2.7-1.8-14.2-2.6-14.9-1-.8-7.1.5-8.9-.1-1.7-.6-.8-5-4,1ZM450.4,356.8l-.5-6.9-8.4-12c0,6.3,3.1,11.9,6.5,17,.8,1.2-.3,2.6,2.5,2ZM413.2,425.5c.8-.8,1.7-3.3,2-4.5,4-14.3-9-22.4-.9-40.9,4.2-9.7,9.4-13.7,8.2-26.7-1-2,1.6-11.2-.6-11.5-3.8-.6-5.3,12.1-6.2,14.8-4.8,14.2-19.4,16.1-18.9,37.5.3,11,10.3,17.2.6,28.1-1.2,1.4-3,1.9-4.4,3.6-5.4,6.4-5.8,14,.4,19.9-6.1-14.2,6-14.1,11.4-22.1,8.5-12.4-4.5-20.3-4.3-31.3,0-4.2,7.5-22.9,11.9-18.6.8.8-6.8,13.9-6.8,18.5,0,9.4,14.5,22.8,4.8,34,.4.5,2.6-.7,2.7-.8ZM373.5,377.8c-2.8-.9-12.2,6-14,8.5-2.4,3.3,1.6,4.2,4.3,3.4,1-.3,6.3-5,8.8-6.2,1.2-.6,3.3-.3,3.8-.7s0-2.2.1-2.8c1.9-6.6-.7-10.5,1.3-17.2,2-6.8,8.2-10.8,7.7-17.8-5.5,5.2-12.9,14.7-13,22.5,0,3.3,1.8,6.9,1,10.4ZM446.4,442.7c2.3-1.2,3.5-3.6,4.8-5.7,9.3-15.5,21.3-57.8,21.3-75.7,0-4.5-1.1-11.9-7.1-10.5,1.4,4.6,2.3,9.4,1.7,14.2-3.6,31-22.7,66.5-43.7,89.2-4,4.3-18.9,16.4-20.5,19.5-2.3,4.4,1.3,2.4,3.5,3,5.1,1.3,9.4,4,14.5,0,3.9-3.1,17.5-20.3,20.9-25.1,1.7-2.4,4.3-6,4.6-8.9ZM458.4,365.8c2.1-.5,1.6-1.5,1.6-3,0-1.1-.7-14.4-3.6-11-2.1,6.3,2.4,8.7,2,14ZM406.5,430.7c5.2.3,13.3-2.9,16.4-7,6.8-9.2-.1-17.1,1.6-26.4.6-3.3,5.5-7.3,7.1-10.9,4-8.9.4-17.2-4.7-24.6-3-1.4-.5,5.6-.4,6.5,0,6.8-7.3,15.9-8,23.9-1.1,11,9.4,23.2-.5,32.5l-11.5,6ZM357.5,372.8c4.7.5,8.2-2.1,8-7l-8,7ZM436.4,481.7c5.3.4,6.7,2.7,10.4-2.1,10.6-13.5,21-37.2,25.1-53.9,4.4-18.3,7.3-38.2,4.5-56.9l-5.3,39.2c-6.1,26.6-17.4,52.5-34.7,73.7ZM559.3,368.8c-5.8,3-12.5,4.5-18.4,7.1-12.5,5.7-22.9,14.7-35.6,19.3-7.4,2.7-15.1,3.9-22.5,6.5-3,3.9-2,33.8-2.5,40.5-.9,12.7-6,25.7-6,38.5.8,1.1,22.2-10.8,24.9-11.5s8.4.4,10.5-1.5l49.4-98.9ZM321.6,406.7c.1,7.1,5.3,18.6,10.3,23.6,1.8,1.8,6.8,3.9,7.5,6,1.2,4-2.9,6.1-2.9,10.8,0,12.5,5.9,19.2,10.8,29.2s2.1,7.4,4.4,11.5c7.1,12.7,12,13.9,25.6,16.4,25.4,4.6,59.4,4.6,85,.6,1.3-.2,2.7-1.3,3.1-1.3,3.1-.4,9,1.2,13.5,1,4.1-.2,18.2-4.1,19.9-3.7s11.5,11.1,12.6,9.8c1.2-9.6-12.6-9.8-11-19,.7-.9,7.2,4.6,8,5.5,2,2,4.6,7.2,5,7.5,2.2,1.8,3.4-4.2,2.8-6.3-1-3.4-16.4-13.1-13.8-15.7,2-2.1,15.8,10.7,16,14,1.9-.1,2.1-3.9,1.8-5.2-.9-4.8-16.2-13.9-15.8-16.2.4-2.2,2.3-.8,3.3-.3,1.9,1,5.3,2.8,7,4,2,1.4,8.6,7.8,9.2,7.8,3.6-.2.3-6.6-1.5-8.5-13.1-13.6-29.7,1.1-43,6-14.5,5.4-33.9,4-49.4,2.5-20.6-2-41.9-10.1-62.5-3,0-.6,0-1.3,0-2,2.8-1.3,3.3-4.1,4.3-4.7,1.5-1,4.7,0,5.7-2s1.2-9.8,1-12.8c-.9-18.3-12.5-31.7-27-41.4,0-2.1-1.1-3.9-1-6,2.4-.2,5.9,2.1,8.1.6s3.7-10.7,3.8-11.2c0-1-4.5-6.1-5.6-8-1.5-2.6-2.2-4.6-3.2-7.3-.6-1.6-.1-4-1.6-5.9-1.9-2.5-5.9-1.8-3.4-7.1-16.3,3.1-27.2,13.6-27,31ZM440.4,408.7l2-10c-1,.3-3.7,4.3-3.8,4.7-.2.7.2,5.3,1.8,5.3ZM473.4,438.7c-1.9,7.3-3.5,14.5-5.7,21.7-1.8,5.9-6.6,15.5-7.2,20.7-.3,2.6,4.9,1.7,6,1s3.1-10.1,3.6-12.3c2.4-10.6,5-23.5,6.3-34.2.1-1.2.9-2.5,1-4.4s.7-4.7-1-4.6c-.4,4.1-2,8-3,12ZM419.4,442.7c.2-.2.4-2.1-.5-2-5.1,6.4-14.4,12.6-19,18.9-.7.9-2.4,3-1.4,4s5.4-3.8,6-4.4c4.5-4.3,10.1-11.1,13.3-16.2.3-.5,1.5-.3,1.6-.4ZM391.5,471.7c2.3-1.4,5.3-4.1,5.5-7-2.5,1.8-6,3.1-5.5,7ZM487.4,513.6h-19.5c-1,0-5.3,1.7-6,3l-5,16,23.9-7.1c2-.6,7.2-11.3,6.6-11.9ZM422.5,562.6c-.6.8-.8,1.7-1,2-11.8,15.3-28,31.6-43.5,44.9-6.1,5.2-13.9,8.8-18.5,16,3.6,0,7.5-1.4,10.7-2.8,6.2-2.8,19.8-12.3,25.2-16.7,9.3-7.7,15.2-17.9,24.9-24,6.9-4.3,12.4-10.1,18.1-14.4,8.9-6.6,19.2-12.6,28.4-19.1s4.7-3,6.3-4.1c.8-.6,4.9-8.1,4.3-8.7-17.4,2.9-30.3,16.7-43,28-4.1,3.7-8.4,7.2-12.5,11,.4-2.6,1.4-5.6,2.5-8,2.3-4.6,9-9.8,12.5-14,9-10.7,17.9-21,21.5-35-8.9,1.8-11.5,12.8-16.6,19.9-5.8,8-13.3,17.2-19.4,25.1ZM290.6,557.6c-2.6,1.2-9.1,8.9-4.6,7.9,11.6-5,24-9,35.3-14.7,13-6.6,23.7-16,36-22.9,1.2-.7,12.5-5.4,11.3-6.2-3.4-.5-7.7-.5-11-1s-3.1-1.8-4.6-2c-3.2-.3-8.5,5.2-11.8,7.2-14.3,8.4-34.7,15.5-46.6,26.3-1.7,1.5-3.8,3.1-4,5.5ZM407.5,556.6c5.9-5.8,12.6-11.7,18.5-18l14.5-17c-5.1-.8-9.6,1.7-14.4,2-12.1.9-25.3-.7-37.5,0-.2,1.9,2.7.8,4,1-22.5,23.7-52.1,37-79.3,54.1-.9.6-1.3,1.6-1.6,1.8-11.6,7.3-17.6,10.2-28,20-11.9,11.2-20.8,22.1-25,38.4,6.4,1.9,7.1-5.2,9.1-7.9,30.5-39.6,86.9-58.6,123.2-93.5l12.5-12c6.7,0,13.3-.2,20-1,2.2,2.1-7.6,13.8-9.5,16-2.1,2.6-7.7,9.2-9.5,11-23.2,22.4-52.9,38.3-78.8,57.5-10.4,7.7-21.6,16.4-30.1,25.9,6.8-1.4,12.7-5,18.6-8.3,33.7-19.2,65.7-43.2,93.2-70.1ZM574.3,543.6c2.3-3-11.6-6.8-13.5-7-13.6-1-32.8,11.3-43.8,19.2-2.3,1.6-5.2,3.4-6.7,5.8,10.8-1.7,21.3-7.5,32-10.5,7-2,13.7-2.2,20.3-3.7,1.4-.3,11.3-3.3,11.7-3.8ZM283.1,565.6v1c.6-.3.6-.7,0-1ZM642.7,625.5v1c.6-.3.6-.7,0-1ZM642.2,627.5l-14,14.5c-24.9,23.8-59.2,37.5-86.4,56.4-1.5,1-3.8,1.7-3.5,4,2.3.3,4.4-.3,6.5-1,14.7-4.3,39.1-18.2,52.3-26.6,18.5-11.8,36.4-26.7,45-47.4ZM206.7,663.5c-1.1-1.1-3.1.9-2,2,1.1,1.1,3.1-.9,2-2ZM406.8,674.8c1.2-1.5,4.8-2.5,4.2-6.3-22.7,3.8-44.6,10.7-67.4,14.5-52.5,8.7-109.9,11.1-161.1-4.8-7.5-2.3-14.5-6.1-21.6-8.3-.8-.3-2.2-.9-2.1.1,1.9,12.1-.8,12,10.8,16.2,59.9,21.4,157.7,16,219-.2,10.3-2.7,11.9-3.2,18.3-11.2ZM247.6,716.4c-14.8-1-29.5-3.8-44.4-4.1l-43.5-16.4c1.2,2.5,2.9,3.4,5.3,4.7,10.5,5.6,27,11.8,38.6,14.3,7.9,1.7,36.5,6.4,42.7,3.7s1.5-.3,1.2-2.3ZM387.5,718.4c.7-1.4-.6-2.7-1-2-.7,1.4.6,2.7,1,2ZM386,719.4v1c.6-.3.6-.7,0-1ZM710.2,737.4c-35.6,2.8-31.2,44.5-13.5,64.9l7-6c9.7-3.4-1-6.6-5.1-11-10.6-11.5-11.1-31.3,1.6-41.4,3.2-2.5,7.4-3.5,9.9-6.6ZM185.7,754.4l-33-4c.9,4,6.7,8.3,10.5,8.9,2.8.4,21.5-.8,22.4-2s-.1-2.1,0-3ZM673.2,766.4c-.4,3.9-1.3,7.4-1,11.5.3,5.6,5.6,27,9.5,30.4,2.1,1.9,6.4,1.6,6.6-1.5.2-2.7-10.1-16.7-10.8-21.2l-4.2-19.3ZM623.3,788.4c-6-1-15.3,9.3-16,14.4-1.8,13.2,6.8,30.2,22,28.5-10.2-8.7-17.8-17.1-12.8-31.2,1.6-4.6,5.1-7.4,6.8-11.7ZM628.8,794.4v1c.6-.3.6-.7,0-1ZM628.3,796.4c-2.5-.6-1.7.7-2.6,1.9-6.1,8.8-3.4,16.8,2.4,24.8,3.8,5.3,6.3,8,13.2,5.3-9.2-9.9-18.9-16.8-13-32ZM558.3,861.3c-.7-.7-16.6-5.9-19-6.5-24.4-6.6-62.3-6.3-86.9,0l-48.9,17.5c17.6,2.6,35.7,2.4,53.3-.1,8.3-1.2,16.3-4.3,25.1-4.9,16.1-1.1,33.1,2.3,49.4,1-.4-2-2.1-1.6-3.5-2-9.7-2.4-27.1-5.4-37-6-9.5-.6-19,.7-28.5,1,.4-1.7,2.3-2.3,3.7-2.7,16.2-4.5,44.7-4,61.6-2.1,8.4.9,17.5,6,26.1,6.9,1.2.1,6.8.3,4.5-2Z"/>
    <path class="st25" d="M636.2,518.6c1.1,1.1-.9,3.1-2,2s.9-3.1,2-2Z"/>
    <path class="st18" d="M322.6,813.4c4.3.4,8.5-1,11.5-1h17c11.9,0,38.5-24.7,45.3-34.6,3.6-5.3,13.3-25.6,16.6-28.3s3.8-.6,5.7-1.3c5.3-1.9,5.1-7.4,7.9-12,10.3-16.5,27.2-28.6,46.5-32.4,3-.6,17.6-2.7,19.7-2.3,2.3.4,2.1,2.4,3.8,3.4,4.4,2.6,10.4,2.7,15.2,4.6,10.9,4.4,23,20.3,22.4,32.4-.4,8.3-9.6,17.4-18.3,14.5-1.7-.5-1.4-2.7-1.6-2.9,5.7-2.3,10.3-9.4,10-15.4-.5-13-14.7-21.6-26-24.1-51.1-11.4-84.1,56.9-54.8,94.8,8.6,11.2,15.1,11.1,28.8,8.7l-14.5-10c-30.5-26.9-8-89.9,32-89.9h15.5l-16.7,4.8c-21.7,7.7-30.2,32-23.3,53.1-4.1-.2-2.3,6.2-1.7,8.2,2,6.2,12.2,22.8,18.1,24.9,3.3,1.2,6,.4,8.8,1.2,1.7.5,7.7,5.2,9.5,3.6s0-1.7.2-1.8c.7-.5,5.6,1.5,1.6-4.7-3.5-5.3-13.1-12.1-17.6-17.8-2.8-3.6-10.6-15.9-10-19.9.2-1.3,1.5-2.3,1.7-3.4.8-3.9-.5-9.6,5.3-8.2-.1.6,0,1.4,0,2s-1.1.8-1,2.4,1,1.4,1,1.6c2.3,19.1,17.1,36.6,32.7,47,3.5,2.3,19.8,9.4,21.2,11s.4,2-.5,2c-5.4.3-14.8-7.5-15.5,2-67.8-18.4-111,23.2-175.3,21-38.3-1.3-122.8-26.8-102.9-79.9,4.2-11.2,17.8-20.3,29.9-20,2,0,2.9-.6,2.5,2-40.7,14.7-25.2,61.1,8.6,74.8,22.8,9.2,65.2,12.6,89.6,10,6.5-.7,32-4.1,36.6-6.4.4-.2,1.3-1.2,1-1.5-11.3-.6-5.9-23-3.1-29.6s2-1.5,2.4-2.6c2.5-6.4,3.3-11.8,2.7-18.7-2.3-2.6-8.4,12.1-9.2,13.3-20.8,33-44.5,39.2-82.7,37.6.7-1.4.5-3.9,1-5,1.9-4.4,5.7-.7,2-7ZM422.5,769.4c-1.8-2-5.7,7.1-5.9,8.5-.9,6,.3,19.7,2.5,25.4.7,1.9,9.6,16.1,10.5,16.5,2.3,1.2,11.4,0,14-1s.8-1.1-.2-1.8c-16.6-10.8-20.6-28.9-20.8-47.7ZM483.4,812.4c-.5-.5-6.8-3.2-8.3-4.2-2.4-1.7-7.1-6.6-8.7-7.3s-1.9-.2-3,1c-1.3,5,14.8,12,18.5,12.4,1.8.2,2.2-1.1,1.4-1.9ZM486.9,814.3v1c.6-.3.6-.7,0-1Z"/>
    <path class="st18" d="M181.7,777.4c30.9-27.9,63.9-61.4,109.9-46.9.8,2.3-2.6,4.1-1.6,6,.8,1.5,8.9,4.2,11.6,7.4,1.3,1.5,5.9,10.5,4.9,11.5-1.4-.7-5.2-.6-6-1-4.2-2-7.1-8.6-15-11.5-24.1-8.9-47.8,4.5-56,27.9-5.6,16,4.9,39.5,17.8,49.4,19.3,14.9,71.4,31.7,95.6,33.1,23.9,1.4,42.5-2.9,65.5-7,23.1-4.2,46.8-14.9,70.4-16,8.6-.4,18.1,2.1,27.1,1.1,2.3-.3,3.5-.3,3.4-3.1,6.8.6,15.1,2.3,21.9,3.6,1.9.4,3.5,1.5,3.1-1.6,6.8,2,9.9,6.5,12.5-3,17.6,7.3,36.6,11.5,55.5,14,1.4,2.6-2.3,4-4.5,4h-14.5c-.5,3,.8,1.6,2.4,2,5.6,1.4,17.2,1.6,23.1,1,6.1-.7,11.1-4.9,16.2-5.8,4.1-.7,8.4.3,12.2-.2.5,2.3-1.1,2.2-2.6,2.8-16.6,7.3-52.7,9.5-70.7,7-9.6-1.3-19.5-5.9-29.3-7.6-25.1-4.4-59.5-6-84.2.3-28.3,7.2-50.9,22.4-81.5,20.5-19.1-1.2-50.5-11.3-69.2-17.7-27.9-9.6-54.2-24.5-79.1-39.8-6-3.7-5.8-10.5-5.1-17,1-8.4,10.6-16.4,8-26.4-2.7-.5-1.7.6-2.4,2-1.4,2.9-3.2,5.9-4.4,8.6-1.5,3.3-7.2,21.6-8.2,22.3-1.6,1.1-9.7-5.8-9.8-6.4-.2-2.5,18.5-27,16.8-33.5-1.9-.4-2.4,1-3.4,2.1-7.5,8.3-15.9,15.5-22.1,24.9-1.4.3-7-5.7-8.5-7Z"/>
    <path class="st24" d="M750,743c0,5-5.6,12.1-7,13-6,4-8,4-12-1-1.3-1.6,3-13-2-14-3.5-.7-10,2-17,7-2.1,1.5-4,7-5,10-3.4,10.3,13,20.9,11.2,20.4l-9-8.5c-3.9-7.2-2.3-15,2-21.5,2.9-1.8,19.8-6.4,19.8-.4s-.2,1.6-.6,1.8c-.4.2-1.1-.2-2.5-.9-2.5-1.3-3.2-1.7-3.9-1.4-.3.1-.6.4-.8.9.8,2.6-.2,5.6,6.8,8.6s2.8,1.5,6.7,1.5c9.3,0,10.7-14.5,7.5-21l-1.7,9.7-2.3,1.2c-1.4-3.9.3-8.3,0-11.5-.3-6-10.3-8.9-15.1-10.5-.6-1.3,4.2-1.1,2-3-.3-.2-5.5-.9-6.5-1-13.8-1.2-26.8,1.8-39.1,7.8-11.9,5.8-21.6,16.5-35.3,18.2-2.3-2.1,12.3-12,13.5-13,1.8-1.6,19.4-12.2,20.3-13.4,0,0,6-4,9-5,12.7-4.2,14-4,29-1s32,8.9,32,27Z"/>
    <path class="st25" d="M122.7,615.5c5.2,8.7,15.1,15.7,24,20.5,48.1,26,150.7,16.4,204,6.2,21.6-4.1,42.9-10.5,64.2-15.7,1,.4,1.1,1.5-.1,2s-15.1,2.1-11.4,6c.9,1,22.7-3.4,26-4-.3.6,0,2.7-1.1,4.3-3.9,6.1-13.4,8.7-20.1,10.9-41,13.8-93.8,22.1-137.1,23.8s-41.8-.5-62.5-3.1c0-.8-.2-2.7,0-3,.5-.5,12,1.9,14.4,2,15.2.8,38.1,1.2,53,0,.9,0,8-.9,5.4-3s-4,1-5.4,1c-37.6.9-94-1.2-128.4-16.5-7.1-3.2-12.7-10-20.7-12-2.2-5.5-5.2-11.9-7.2-17.5,1.7.3,2.2-.8,3-2Z"/>
    <path class="st24" d="M544.3,722.4c.2,1.4,1,3.8,1,4,1.1,18.5-9.8,42.9-32,34.4-17.2-6.6-9.9-28.9,2.5-26.5,5.8,1.1,2.8,8.6-2,10s.6-5.9-.5-7c-2.9-2.9-10.3,9.3-1.9,15.5.9.7,2.7.3,2.9.5s0,2.3,1.6,2.9c8.8,2.9,17.9-6.1,18.3-14.5.6-12.1-11.5-27.9-22.4-32.4-4.9-2-10.8-2-15.2-4.6-1.7-1-1.5-2.9-3.8-3.4-2.2-.4-16.7,1.7-19.7,2.3-19.3,3.8-36.2,15.9-46.5,32.4-2.9,4.6-2.6,10.2-7.9,12-1.9.7-3.7-.3-5.7,1.3-3.4,2.7-13,23-16.6,28.3-6.8,9.9-33.4,34.6-45.3,34.6h-17c-3,0-7.2,1.4-11.5,1-1.4-.1-2.4.2-3.9-.5s-8.9-7.9-4.4-9.3c5.8-1.8,22.6.6,30.6-.4,43.4-5.4,55.2-57.1,80.2-84.7,22.4-24.7,55.9-39.5,88.9-28,15.8,5.5,28,14.9,30.5,32Z"/>
    <path class="st24" d="M691.2,406.7c10.9,18.5,13,29.8,14,51.4,6.1,132.1-43.7,250.6-158.2,320.4-8.1,5-25.7,14-35.2,12.8-1.4-.2-2.9-.5-1.5-2s18.3-7.1,21.7-8.8c27.9-14.1,56.4-39.9,78.2-62.1,9.1-9.3,17.8-17.2,25.4-28,22.1-31.3,53.6-95.9,51-133.8-.1-1.5,1.4-3.1-1.5-4,2-11,3.9-24.8,5-36h6c2.4-16,3.6-32.2,3-48.5-.7-18.1-2.4-35.5-11-51.4-1.5-2.8-3.6-7.1-6-9.5-7.5-7.4-23.6-8-31-.5-2-1.3-2.1-3.8-2-6,.7-.6,1.4-2.6,2-3,8.4-5.7,28.3-6.8,35.5.9.8.8,3.3,6.1,4.4,8.1ZM686.7,550.6v1c.6-.3.6-.7,0-1Z"/>
    <path class="st24" d="M603.8,196"/>
    <path class="st25" d="M406.8,674.8c-6.4,8-8,8.5-18.3,11.2-61.3,16.2-159.1,21.6-219,.2-11.6-4.2-8.9-4.1-10.8-16.2,0-1.1,1.3-.4,2.1-.1,7.1,2.2,14.1,6,21.6,8.3,51.2,15.9,108.6,13.5,161.1,4.8,22.8-3.8,44.7-10.7,67.4-14.5.7,3.8-2.9,4.8-4.2,6.3Z"/>
    <path class="st24" d="M367.5,483.7c20.5-7.1,41.8.9,62.5,3,15.5,1.5,34.9,2.9,49.4-2.5,13.3-4.9,29.9-19.6,43-6,1.8,1.9,5.1,8.3,1.5,8.5s-7.2-6.4-9.2-7.8-5.1-3-7-4c-1-.5-2.9-1.9-3.3.3-.4,2.3,15,11.4,15.8,16.2.2,1.3,0,5.1-1.8,5.2-.2-3.3-14-16-16-14-2.6,2.6,12.8,12.3,13.8,15.7s-.6,8.1-2.8,6.3c-.3-.3-3-5.5-5-7.5-.8-.8-7.3-6.3-8-5.5-1.6,9.2,12.2,9.4,11,19-1.1,1.3-10.5-9.3-12.6-9.8s-15.8,3.5-19.9,3.7c-4.5.2-10.4-1.4-13.5-1,.4-13.3-7-4.6-12.4-3.9-19.6,2.5-55.3.9-74.7-3.3-1.8-.4-10.5-3.5-11.2-4.7-1.5-2.5.1-5.5.5-8Z"/>
    <path class="st24" d="M302.6,724.4c.3,0,.7,0,1,0,15.8,8.9,25.1,26.6,16.7,44.2-10.5,21.8-46.2,13.9-34.7-7.5.5-.9,2-.6,2-.7.2-.4-.2-2.1.5-3,1.9-2.7,8.5,0,8.6,5.5.2,9.9-7.3,5.2-6.1-2.5h-3c-.9,25,20.2,12.9,13-6,.8.4,4.6.3,6,1,.9-1-3.6-10-4.9-11.5-2.7-3.2-10.8-5.9-11.6-7.4-1-1.9,2.4-3.7,1.6-6-46-14.4-79,19-109.9,46.9-1.2-1.1-6.6-2.8-4.9-5.9,3.5-2.3,7.8-5.7,10.9-8.6,27.5-25.8,50.5-50.1,92.4-46.5,9.8.9,15.2,6.1,22.4,8Z"/>
    <path class="st25" d="M353.5,388.8c1,2.7,1.7,4.7,3.2,7.3s5.7,7,5.6,8-3.3,10.9-3.8,11.2c-2.1,1.5-5.6-.7-8.1-.6-.1,2.1,1,3.9,1,6,0,1.6-2.2,9.7-2.9,10.6-1.4,1.7-5.6,1.1-6,3-.2.9,1,2.6.9,4-.3,9.5.3,4.6,3.7,11.2s7,16.8,6,21.5-3.1,4.3-2.7,7.1c.6,2.1,14.2,4.9,16.9,3.6,0,.6,0,1.4,0,2-.4,2.5-2,5.5-.5,8s9.4,4.4,11.2,4.7c19.4,4.2,55.1,5.8,74.7,3.3,5.5-.7,12.9-9.3,12.4,3.9-.4,0-1.8,1.1-3.1,1.3-25.6,4-59.6,4-85-.6-13.6-2.5-18.5-3.7-25.6-16.4-2.3-4.2-2.7-8-4.4-11.5-4.9-10-10.9-16.7-10.8-29.2,0-4.7,4.1-6.8,2.9-10.8-.7-2.2-5.7-4.3-7.5-6-5-5.1-10.2-16.5-10.3-23.6,3.9-.2,3.6-3.2,4.5-6,1.8,11.5,16.5,6,20.4-1.6,2-4.1,0-10.4,7.1-10.4Z"/>
    <path class="st24" d="M132.7,591.6c-9.4,1.2-9.7,5.9-8,14,1.6,7.4,3.9,9.6,9,15,5.1,5.4,9.7,8.9,16.3,12.2,41.6,20.8,133.8,14.1,179.7,6.5,37.7-6.3,75.7-15.7,111.2-29.6-2.6,6.3-5.9,12.8-9.3,18.7s-2,1.9-2.2,2.3c-3.3.6-25.1,4.9-26,4-3.7-3.9,10.1-5.5,11.4-6s1.2-1.6.1-2c-21.4,5.2-42.6,11.6-64.2,15.7-53.3,10.2-155.9,19.8-204-6.2-8.8-4.8-18.7-11.8-24-20.5-.8-1.3-1.4-4.5-2.1-6.2s-1.7-.8-1.9-1.5c-1.3-5.6.9-16.5,7-18.7s4.6,0,5.9-1.5c2.5,2,1.5,2.3,1,4ZM421.5,625.5c-1.4-.7-2.7.6-2,1,1.4.7,2.7-.6,2-1Z"/>
    <path class="st24" d="M481.4,757.4c2.7-16.7,10.8-30.7,30-28l-9.7,3.8c-12,6.9-16,24.1-11.5,36.8,8.1,22.7,37.7,37.9,58.1,47.3,1.8.8,3.7,2.5,6,3.5,33.9,14.3,70.7,18.3,106.9,10.5-4.6,5-17.3,10.1-24,11-3.9.5-8.2-.4-12.2.2-5.1.9-10.1,5.1-16.2,5.8-5.8.6-17.5.4-23.1-1s-2.9,1-2.4-2h14.5c2.2,0,5.9-1.4,4.5-4-18.9-2.5-37.9-6.6-55.5-14-2.5,9.5-5.6,5-12.5,3-5-1.5-10.3-3.7-15-5,.7-9.5,10.1-1.7,15.5-2,.9,0,.7-1.8.5-2-1.4-1.6-17.7-8.7-21.2-11-15.6-10.3-30.4-27.8-32.7-47v-4c0-.6-.1-1.4,0-2ZM544.3,827.3c.8-.6-4.1-3.8-5-3-1.8,1.8,3.2,3.3,5,3Z"/>
    <path class="st25" d="M403.5,525.6l-12.5,12c-36.3,34.9-92.8,53.9-123.2,93.5-2.1,2.7-2.7,9.8-9.1,7.9,4.1-16.4,13.1-27.2,25-38.4,2.2.3,3.6,0,5.6-.9,4.4-2,8.7-7.7,11.9-10.1s6.3-3.2,9.3-4.7c2.2-1.1,1.1-2.3,1.2-4.3.3-.2.7-1.3,1.6-1.8,27.2-17.1,56.8-30.4,79.3-54.1,4,.6,6.9,1,11,1Z"/>
    <path class="st18" d="M650.2,798.4c1.2-3.6-1.4-3.7-2-4.7s.1-1.1,0-1.3c1.7-.5,3.1.6,1.8-3.3-1.2-3.5-12-7.9-15.5-8.5-28.4-4.3-46.6,41.3-73.7,38.8-2.3-.2-1.4-2.7-4-3.2-2.8-.5-6.2,1.7-8.5,1.1,0,0-1.4-1.6-.4-2,6-2.6,12.7-4.3,18.6-7.3,10.3-5.2,21.5-14.2,29.8-22.2s2.3-1.8,2-3.5c-7.6.9-12.4,7.8-18.3,11.2-13.1,7.7-31.8,13.3-47.1,11.7s-3.8-.4-3.6-1.9c20.8-5.7,39.1-14,57.9-24,4.7,6.5,6.3.7,9.7-.7,1.8-.7,5.2-.9,7.2-1.2-.2,1.7-4.3,3.1-2.5,5,10.9-6.2,28.5-9.2,40.7-6.8,7.7,1.6,15.2,13.4,12.6,21.1-.9,2.5-3.6,1.2-4.9,1.6Z"/>
    <path class="st18" d="M558.3,861.3c2.3,2.3-3.3,2.1-4.5,2-8.6-.8-17.7-6-26.1-6.9-16.9-1.9-45.4-2.4-61.6,2.1-1.5.4-3.3,1.1-3.7,2.7,9.5-.3,18.9-1.6,28.5-1,9.9.6,27.3,3.5,37,6,1.4.4,3.1,0,3.5,2-16.3,1.3-33.3-2.1-49.4-1-8.8.6-16.8,3.7-25.1,4.9-17.7,2.5-35.7,2.7-53.3.1l48.9-17.5c24.6-6.3,62.5-6.6,86.9,0,2.3.6,18.3,5.8,19,6.5Z"/>
    <path class="st24" d="M351.5,420.7c14.5,9.7,26.1,23.2,27,41.4.2,3,.1,10.3-1,12.8s-4.2,1.1-5.7,2c-1,.6-1.5,3.4-4.3,4.7-2.7,1.2-16.3-1.5-16.9-3.6-.4-2.8,2.3-4.7,2.7-7.1.9-4.7-3.7-16.9-6-21.5-3.4-6.6-4-1.7-3.7-11.2,0-1.3-1.1-3.1-.9-4,.4-1.9,4.6-1.2,6-3s2.9-9,2.9-10.6Z"/>
    <path class="st25" d="M610.3,718.4c-.4-2.2.9-3.1,1.9-4.6,34.9-52.1,61.3-98.2,73-161.3,2.9.9,1.4,2.5,1.5,4,2.6,37.9-29,102.5-51,133.8-7.6,10.8-16.3,18.8-25.4,28Z"/>
    <path class="st24" d="M648.2,598.6c-36.5,38.2-83.9,61.6-133.9,76.9.9-4.1-4.8.1-4-4,48.4-16.4,97.7-41.7,135.9-75.9l2,3Z"/>
    <path class="st24" d="M446.4,442.7c.1-1.6,0-5.5-2.5-5-3.8,4.3-6.7,9.3-10.5,13.5-6.4,7.1-16.8,17.2-24.5,22.5-1.2.9-3,.8-2.5,3-2.2-.6-5.8,1.4-3.5-3,1.6-3.1,16.5-15.1,20.5-19.5,21-22.7,40-58.2,43.7-89.2s-.3-9.6-1.7-14.2c6-1.4,7.1,6,7.1,10.5,0,17.9-12,60.2-21.3,75.7-1.2,2.1-2.5,4.5-4.8,5.7Z"/>
    <path class="st24" d="M403.5,292.9c2.6-5.5,6.1-10.6,8.7-16.1,9.2-.8,18.5-9.6,25.2.7.8,1.2,5.2,12.1,5.1,12.8-.6,2.6-6.5,1.2-6.9,1.6-2.5,2.5,8,16.8,7,21-1.3,1.3-11.6-1.3-13.3-.8-1.6.4-5.9,5.4-10.7,6.8,4.1-8.2-8.3-8.7-11-13.4-1.5-2.7-.6-6-.9-6.5,5,1.1,12.2,5.8,17.2,4.8s10.6-6.8,6.1-12.8c-8.1.6-21.6-3-23.3,8-.3-.5-4.4.2-2.2-5.3l-.8-.7ZM436.4,311.8l-2.5-9c-3.2,2.3,0,7.4,2.5,9Z"/>
    <path class="st24" d="M642.2,766.4c12.1,3.5,26.8,20.2,17,32.5s-5.9,5.6-6.2,5.8c-3.1,1.5-9.8,0-12.3-2.2-4.9-4.3-2.2-15.3,4.6-13.6,3,.8,2.3,2.5,3,3.6-1.8.5-2.8-.2-4.6,1.9-3.1,3.7-1.6,6.4,3.1,6.2,3-.2,3.2-2,3.5-2.1,1.2-.5,4,.9,4.9-1.6,2.6-7.7-4.9-19.5-12.6-21.1-12.2-2.5-29.9.6-40.7,6.8-1.8-1.9,2.3-3.3,2.5-5-2.1.4-5.5.5-7.2,1.2-3.4,1.4-5,7.2-9.7.7.3-.2.7-1.8,1-2,15.7-8.4,36.1-16.1,53.9-11Z"/>
    <path class="st25" d="M642.2,627.5c-8.7,20.6-26.6,35.6-45,47.4-13.2,8.4-37.6,22.3-52.3,26.6-2.2.6-4.2,1.3-6.5,1-.4-2.3,2-3,3.5-4,27.3-19,61.5-32.6,86.4-56.4l14-14.5Z"/>
    <path class="st25" d="M422.5,562.6l1,.5c.6,2.4-1.6,1.1-2,1.5-1.5,1.5,1.4,2.7,3,2-1.2,2.4-2.1,5.4-2.5,8,4.1-3.7,8.4-7.3,12.5-11-.9,4.5,1.5,2,4,4-5.7,4.3-11.3,10.1-18.1,14.4-9.7,6.1-15.6,16.3-24.9,24-5.4,4.5-19.1,13.9-25.2,16.7-3.2,1.4-7.1,2.8-10.7,2.8,4.6-7.2,12.4-10.8,18.5-16,15.4-13.4,31.7-29.6,43.5-44.9.2-.3.4-1.2,1-2Z"/>
    <path class="st24" d="M430.4,335.8c1.7.6,7.9-.7,8.9.1s1.5,12.1,2.6,14.9c1.5,3.9,7.1,8.3,8.9,12.1s2.4,9.7,1.5,13.2c-1.5,5.5-3.7-4.8-4.1-5.6-1.1-2.5-2.3-5-3.6-7.4-.6-1.1-6.6-12-8.2-10.3,2.5,13.7,14.7,23.9,6.7,38.2-2.2,3.9-7.6,6.5-8.6,11.5-1.2,6.3,6,15.7,1.8,23.2l-5.8-18.7c-2.8-8.3,6.7-15.1,8.3-21.2,3.4-12.8-12.2-30.8-14.1-44-.3-2.2.7-3.3,1.6-5,4.6,1.3,4.9,8.2,7.4,12.1.4.6,1.2,3.6,2.6,1.9,1.8-2.1-8.2-11.2-6-15Z"/>
    <path class="st24" d="M482.4,368.8c-.5-1.9-4.6-13.4-4-14,3.1-.8,6.5,1.3,9.2.8,1.6-.3,9.3-6.5,13-8,8.4-3.5,22.1-5.4,31.2-4.8,2.8.2,1,2.5,1.5,4-2.2.9-1.9,3.5-3.4,5-5.4,5.5-29,12.9-37.2,14.7-3.5.8-7.3-.9-10.3,2.2Z"/>
    <path class="st24" d="M551.3,341.8c-6.4.8-13.4,7.4-14,14-2.4,1.7-2.3,1.2-4,2-.8-2.3.3-8.3,1-11,7.1-28.3,40.1-34,51-59.9l-.3,7.2c-9.9,17.1-20.3,33.1-33.7,47.7Z"/>
    <path class="st24" d="M436.4,481.7c17.3-21.2,28.6-47.1,34.7-73.7l5.3-39.2c2.8,18.8,0,38.6-4.5,56.9-4,16.6-14.5,40.4-25.1,53.9-3.8,4.8-5.1,2.4-10.4,2.1Z"/>
    <path class="st25" d="M688.2,416.7c8.7,15.9,10.3,33.3,11,51.4.6,16.3-.6,32.4-3,48.5h-6c3.1-32.2,2.3-60.6-1.9-92.5-.3-2.1-1.6-5.9,0-7.4Z"/>
    <path class="st24" d="M321.6,406.7c-.3-17.3,10.7-27.9,27-31-2.5,5.2,1.6,4.5,3.4,7.1,1.4,2,.9,4.3,1.6,5.9-7.2,0-5.1,6.3-7.1,10.4-3.8,7.6-18.6,13.1-20.4,1.6-.9,2.8-.6,5.8-4.5,6Z"/>
    <path class="st18" d="M710.2,737.4c-2.5,3.1-6.7,4-9.9,6.6-12.7,10.1-12.2,29.8-1.6,41.4,4,4.4,14.7,7.6,5.1,11l-7,6c-17.7-20.4-22.1-62.1,13.5-64.9Z"/>
    <path class="st25" d="M357.5,520.6c3.3.5,7.6.5,11,1,1.2.8-10.1,5.5-11.3,6.2-12.3,7-23,16.4-36,22.9-11.3,5.7-23.7,9.7-35.3,14.7-4.5,1,2-6.7,4.6-7.9,8.1-3.6,14.6-5.6,22.9-10.6,13.8-8.3,26.1-16.9,41.3-23.7,1.5-.7,3.3-.1,2.7-2.7Z"/>
    <path class="st18" d="M185.7,734.4c.4.3,4,3.2,4.3,3.3,1.5.8,14,3.3,10.7,6.7-14.7.2-28.5.6-43-2.5-9.5-2-34.9,1.7-37.7-9,6.3,2.6,32.3-1.8,39.4-.7,8.7,1.3,17.5,2.6,26.3,2.2Z"/>
    <path class="st24" d="M574.3,543.6c-.4.5-10.3,3.5-11.7,3.8-6.6,1.5-13.2,1.8-20.3,3.7-10.7,3-21.2,8.8-32,10.5,1.5-2.4,4.4-4.2,6.7-5.8,11-7.9,30.1-20.1,43.8-19.2,1.9.1,15.8,4,13.5,7Z"/>
    <path class="st25" d="M534.3,346.8c-.7,2.7-1.8,8.7-1,11-8.2,4.2-14.2,9.4-22.3,13.2-3.5,1.6-23.6,9.6-25.7,8.4-2.6-2.8-2-7.1-3-10.6,2.9-3.1,6.7-1.5,10.3-2.2,8.3-1.8,31.8-9.2,37.2-14.7,1.6-1.6,1.2-4.2,3.4-5h1Z"/>
    <path class="st24" d="M270.6,774.4c-1.9,18,17,37,33,42.4,5.5,1.9,11.1,3.5,17,3.5-.5,1.1-.3,3.6-1,5-21.5-.9-35.6-6.5-47.4-25.1-1.6-2.5-5.2-8.3-5.6-10.9s-.9-14.2,4-15Z"/>
    <path class="st24" d="M406.5,430.7l11.5-6c9.9-9.3-.6-21.4.5-32.5.8-8,8.1-17.2,8-23.9,0-.9-2.5-8,.4-6.5,5.1,7.5,8.7,15.8,4.7,24.6-1.6,3.5-6.5,7.5-7.1,10.9-1.8,9.3,5.2,17.2-1.6,26.4-3.1,4.2-11.2,7.3-16.4,7Z"/>
    <path class="st25" d="M446.4,442.7c-.2,2.9-2.9,6.5-4.6,8.9-3.3,4.8-17,22-20.9,25.1-5.1,4-9.4,1.3-14.5,0-.5-2.2,1.2-2.1,2.5-3,7.7-5.3,18.1-15.4,24.5-22.5,3.8-4.2,6.7-9.2,10.5-13.5,2.6-.6,2.6,3.4,2.5,5Z"/>
    <path class="st24" d="M383.5,261.9l22-4-3.6-1.9c-2.4-1.1-12.6,1.5-13.4-.6s7.7-3.1,8.7-3.2c8.9-1.4,28.3,1.7,28.2,13.7-9-3.3-13.5-7.7-24-5.5-3,.6-21,7.1-23.5,8.5-6.5,3.7-9.2,13.5-17.4,14,.8-3.6,4.9-4,6.2-7.2,1.1-2.6.3-4.9,1-7,.9-3,10.3-8.8,13.4-9.6,2.2-.6,1.1.8,1.4,1.9-17,8.5-12,13.5,1,1Z"/>
    <path class="st25" d="M381.5,711.4c.2,7-10.4,7.1-15.6,7.9-12.1,1.7-52.7,6.7-62.3,5.1-.3,0-.7,0-1,0l-.5-4c17.1-.8,34-3.9,50.9-6,9.8-1.2,17.4-.5,27.5-3,.3,0,.7,0,1,0Z"/>
    <path class="st24" d="M392.5,524.6c-1.2-.2-4.2.9-4-1,12.2-.7,25.4.9,37.5,0s9.3-2.8,14.4-2l-14.5,17c-5.9,6.3-12.6,12.2-18.5,18,.3-2.4-.8-4.1-3-5,1.8-1.8,7.4-8.4,9.5-11,1.9-2.2,11.6-13.9,9.5-16-6.7.8-13.2,1.1-20,1s-7-.4-11-1Z"/>
    <path class="st24" d="M421.5,270.9c-6.5.4-14.7-2.6-21-.5s-15.5,7.8-17.2,8.8c-4.6,2.7-3.7,4.5,1.7,3.7,5.7-.9,10.7-4.7,16.6-4.9-7.2,10.3-20.6,11.2-32.2,11.3-5.9,0-.8-1.7.8-3.3,3.3-3.3,6.7-9.1,10.5-11.5,4.5-2.9,11.4-3.3,16-6,1.8-1.1,3.1-3.5,3.6-3.6,5.8-1.6,17.4.7,21.3,6Z"/>
    <path class="st24" d="M434.4,563.6c12.6-11.3,25.5-25.1,43-28,.6.6-3.5,8.1-4.3,8.7-1.6,1.2-4,2.4-6.3,4.1-9.1,6.6-19.4,12.5-28.4,19.1-2.5-2-4.9.5-4-4Z"/>
    <path class="st24" d="M386.5,391.8c.6-10.9-7.2-16-3.2-26.7,1.7-4.5,7.5-10.9,8-15.1s-2.4-9.4-2.8-13.7c-.8-8.8,1.7-13.7,5.9-21,3-5,3.8-2.2,2.2,2.3-1.3,3.9-4.7,7.3-5.2,11.7-1,8.5,4.7,14.6,4.1,22-.6,6.9-9.5,11.4-9.7,19.1-.1,5,4.8,12.4,5.4,18.1.7,6.3-2.5,13.8-8.8,16.2,1.8-4,3.8-8.6,4-13Z"/>
    <path class="st24" d="M592.3,282.9c2.2-11.2,5.4-22.9,17.7-25.7,9.3-2.1,12.9-.3,19.2,5.7-2.6,2.1-5.9-2.5-8.5-3-2-.4-5.5-.3-7.4.4l17,10.5c.5,2.4,1.9,5.6.5,8-3.2-2.9-7.3-5.6-10.5-8.4-3.4-3.1-3.2-7.1-9.6-7.2-8.5-.2-11.5,19.3-14.3,25.6-2-2.7.5-5.3-4-6Z"/>
    <path class="st24" d="M487.4,513.6c.6.5-4.6,11.3-6.6,11.9l-23.9,7.1,5-16c.7-1.3,5-3,6-3h19.5Z"/>
    <path class="st24" d="M357.5,520.6c.5,2.6-1.2,2-2.7,2.7-15.2,6.8-27.5,15.4-41.3,23.7-8.3,5-14.8,6.9-22.9,10.6.2-2.4,2.3-4,4-5.5,11.9-10.8,32.3-17.9,46.6-26.3,3.3-1.9,8.6-7.5,11.8-7.2,1.4.2,2.7,1.7,4.6,2Z"/>
    <path class="st18" d="M623.3,788.4c-1.7,4.3-5.1,7.1-6.8,11.7-5,14.2,2.6,22.5,12.8,31.2-15.2,1.7-23.9-15.3-22-28.5.7-5.1,10-15.4,16-14.4Z"/>
    <path class="st24" d="M465.4,775.4c1.7,5.1,8.1,13.3,12,17.5,6.6,7.2,14.8,13.2,23,18.5-.1,0,.3,1.4-.2,1.8-1.9,1.7-7.8-3.1-9.5-3.6-2.8-.7-5.5,0-8.8-1.2-5.9-2.1-16.1-18.7-18.1-24.9-.6-2-2.4-8.3,1.7-8.2Z"/>
    <path class="st24" d="M509.4,828.3c0,2.7-1.2,2.8-3.4,3.1-9,1-18.4-1.5-27.1-1.1-23.6,1.1-47.3,11.8-70.4,16,3.3-2.1,7.1-3.4,10.7-4.7,29.4-10.8,58.7-16.2,90.2-13.2Z"/>
    <path class="st24" d="M320.6,365.8c4.8-22.3,19.4-10,33.5-11.9,13.4-1.8,19.8-18.8,26.9-28,2.1-.4,1.7.8,1.3,2.3-4.8,17.3-15.6,31-35.3,29.7-12.4-.9-13.5-6-23.5,5-.9,1-2.2,1.8-3,3Z"/>
    <path class="st24" d="M422.5,562.6c6.1-7.8,13.6-17.1,19.4-25.1,5.1-7.1,7.7-18.1,16.6-19.9-3.5,14-12.5,24.2-21.5,35-3.5,4.2-10.2,9.3-12.5,14-1.6.7-4.5-.5-3-2s2.6.9,2-1.5l-1-.5Z"/>
    <path class="st24" d="M410.5,322.8c-1.3,6.7-3.8,11.3-2.9,18.4.4,3.2,2.5,6.9,2.7,10.3.3,9.1-8.4,11.2-13.1,17.3l-2.6,10.9c-10.2-13.1,9.1-19.7,9.1-31.5,0-9.3-3.6-11.8,2.5-21.4.9-1.4,2.4-4.6,4.4-4.1Z"/>
    <path class="st25" d="M247.6,716.4c.3,2,.2,1.6-1.2,2.3-6.2,2.6-34.8-2-42.7-3.7-11.6-2.5-28.1-8.8-38.6-14.3-2.4-1.3-4.1-2.1-5.3-4.7l43.5,16.4c14.9.3,29.6,3.1,44.4,4.1Z"/>
    <path class="st25" d="M544.3,722.4l31.3-16.2,38.7-25.8c1.1,1.1-5.1,6.7-6,7.5-17.7,15.9-43.3,25.4-63,38.5,0-.2-.8-2.6-1-4Z"/>
    <path class="st18" d="M673.2,766.4l4.2,19.3c.7,4.4,11,18.5,10.8,21.2-.2,3.1-4.5,3.4-6.6,1.5-3.9-3.5-9.2-24.8-9.5-30.4-.2-4.1.6-7.6,1-11.5Z"/>
    <path class="st24" d="M476.4,435.7c-1.3,10.6-3.9,23.6-6.3,34.2-.5,2.2-2.4,11.5-3.6,12.3s-6.4,1.6-6-1c.7-5.2,5.4-14.9,7.2-20.7,2.2-7.2,3.9-14.4,5.7-21.7,2.4.7,1.8-1.6,3-3Z"/>
    <path class="st24" d="M713.2,778.4c2.3,2.1,4.5,3.8,7,5.5.5,1-3.5,3.8-4,4-5.1,2.2-11.9-9.5-13.3-13.7-2.3-7.4-1.4-13.4,2.3-19.8.4,4.5-.5,8.1.7,12.8,1.2,5,3.8,7.9,7.3,11.2Z"/>
    <path class="st25" d="M406.5,298.9c.3.5-.6,3.9.9,6.5,2.7,4.7,15.2,5.2,11,13.4-2.3.7-3.2,1.8-6,.5s-12.9-14.4-12.8-17.8c0-2.3,2.7-6.5,3.7-8.7l.8.7c-2.2,5.6,1.9,4.9,2.2,5.3Z"/>
    <path class="st24" d="M415.4,340.8c-2.9,2.4-2.1-7.6-1.9-9.4.6-4.7,8.8-11.4,13.2-12.8,2.2-.7,9.4-1.8,7.3,2.2-.7,1.3-12.5,11.1-15,14-1.4,1.6-3.2,5.8-3.5,6Z"/>
    <path class="st18" d="M628.3,796.4c-6,15.1,3.8,22.1,13,32-6.9,2.7-9.4,0-13.2-5.3-5.7-8-8.4-16-2.4-24.8s0-2.4,2.6-1.9Z"/>
    <path class="st24" d="M337.5,304.8c2.2-2,4.1-7.1,6-9.5,10.1-12.8,22.2,1.6,35-.5,1.6,1.2,0,1.8-1.5,2-8.5,1.1-20-3.8-26.8-1.8-.9.3-9.6,10.6-11.7,12.8l-1-3Z"/>
    <path class="st18" d="M185.7,754.4c-.1.8.2,2.7,0,3-.9,1.2-19.7,2.4-22.4,2-3.8-.6-9.7-4.9-10.5-8.9l33,4Z"/>
    <path class="st18" d="M266.6,789.4c-1.3.8-4-4.1-4.1-4.4-1.2-9.2,5.7-30.4,18.1-28.5-5.6,4.8-9.2,10.5-10,18-4.9.8-4.5,11.6-4,15Z"/>
    <path class="st24" d="M638.2,418.7c4.3-.7.8,3.6,1,5.4s2,.5,2,.6c.2.3-.1,4.3.5,6,2.1,6.8,13.9,14.4,20.5,8.9.5.2,1.4-.1,2,0-8.9,10.5-23.9,2.6-26.5-8.9-1.2-5,0-7.7.6-12.1Z"/>
    <path class="st25" d="M386.5,391.8c-.2,4.4-2.2,9-4,13-3,6.8-14.5,4.8-14,14-1.9-.1-2.1-3.9-1.8-5.3,1.2-6.5,19.5-15.3,17.8-24.7l2,3Z"/>
    <path class="st24" d="M376.5,379.8c-1.7.5-2.8-1.9-3-2,.8-3.6-1.1-7.2-1-10.4.1-7.8,7.5-17.3,13-22.5.5,6.9-5.7,11-7.7,17.8-2,6.7.6,10.6-1.3,17.2Z"/>
    <path class="st25" d="M651.2,406.7c-.2.2-.2,1.7-1,2.5-4.7,5.2-7.7,7.9-9,15.5,0,0-1.9.3-2-.6-.2-1.8,3.3-6.1-1-5.4,1.8-11.9,2.3-11,11-18-.1,2.2,0,4.7,2,6Z"/>
    <path class="st24" d="M311.6,580.6c-.1,1.9,1,3.2-1.2,4.3-3,1.5-6.6,2.7-9.3,4.7s-7.5,8.1-11.9,10.1c-1.9.9-3.4,1.2-5.6.9,10.4-9.8,16.4-12.6,28-20Z"/>
    <path class="st25" d="M373.5,377.8c.2,0,1.3,2.5,3,2-.2.7.4,2.4-.1,2.8s-2.6.1-3.8.7c-2.5,1.3-7.8,5.9-8.8,6.2-2.8.8-6.8,0-4.3-3.4,1.9-2.5,11.2-9.4,14-8.5Z"/>
    <path class="st24" d="M619.4,294.7c-.3-.2-2-4-3.1-5.3-2.4-2.7-5.1-4.8-7.7-7.3-.5-.5-3-.8-.3-1.8,4.3-1.6,15.8,6.9,16,10.1s-2.8,5.6-4.9,4.3Z"/>
    <path class="st24" d="M622.6,276.5c1.5,1.2,8.1,5.9,5.6,8.4s-11.7-7.6-14.1-9.4c-1-.8-6.2-2.2-3.9-4.5,1.3-1.3,9.4,2.6,10.9,3.6.7.5.9,1.6,1.5,2Z"/>
    <path class="st25" d="M629.3,262.9c.1.1,1.4-.4,2.1.6,1,1.6,0,3.5.2,4.2s5.4,3.3-1.3,3.2l-17-10.5c1.9-.8,5.4-.8,7.4-.4,2.7.5,5.9,5.1,8.5,3Z"/>
    <path d="M711.2,748.4c-4.3,6.5-5.9,14.3-2,21.5l9,8.5c-1.5-.4-4.3-1.8-5,0-3.5-3.3-6.1-6.2-7.3-11.2-1.1-4.7-.3-8.3-.7-12.8.9-1.5.6-2.3,2.4-4.1,1.6-1.5,2.5-1.3,3.5-1.9Z"/>
    <path class="st25" d="M646.2,595.6c2-1.8,13.5-16.2,16-14s-12.5,15.4-14,17l-2-3Z"/>
    <path class="st24" d="M660.2,437.7v1c-.5,0-1.5.9-3.5.1-6.4-2.5-11.7-15.2-3.5-18.1-.6,6.2.3,14.3,7,17Z"/>
    <path class="st24" d="M380.5,711.4c.5-7.2,8.9-8.4,14.5-10,.1,6.3-8.5,8.6-13.5,10s-.7,0-1,0Z"/>
    <path class="st24" d="M450.4,356.8c-2.7.6-1.7-.8-2.5-2-3.4-5.1-6.5-10.7-6.5-17l8.4,12,.5,6.9Z"/>
    <path class="st25" d="M419.4,442.7c0,0-1.3-.1-1.6.4-3.2,5.1-8.9,11.9-13.3,16.2-.6.6-5.5,5-6,4.4-.9-1,.8-3.1,1.4-4,4.7-6.3,13.9-12.5,19-18.9.8-.1.6,1.7.5,2Z"/>
    <path class="st25" d="M133.7,609.5c-2,3,.8,5.9,1,8,0,.9-.6,2.2-1,3-5.1-5.4-7.4-7.6-9-15,4.1.3,3.8,7.5,9,4Z"/>
    <path class="st24" d="M397.5,342.8c-1.3-.4-1.8-5.5-1.9-6.6-.3-6.4,2.4-13.7,6.9-18.4,0,8.8-6.8,15.7-5,25Z"/>
    <path class="st24" d="M447.4,334.8l-8-11.5-1-4.5c3.1-3.2,11.6,12.5,9,16Z"/>
    <path class="st25" d="M551.3,341.8c-4.3,4.7-8.7,10.2-14,14,.6-6.6,7.5-13.2,14-14Z"/>
    <path class="st24" d="M431.5,269.9c.2-3.6-.6-9-2-12.2s-2.3-.1-1.9-1.7c6.8.6,12,11.3,4,14Z"/>
    <path class="st25" d="M592.3,282.9c4.5.7,2,3.3,4,6-3.5,8-5.6,2.7-5-3.6.1-1.4,1-2.1,1-2.4Z"/>
    <path class="st24" d="M458.4,365.8c.4-5.3-4.1-7.7-2-14,2.9-3.4,3.6,9.9,3.6,11,0,1.5.5,2.5-1.6,3Z"/>
    <path class="st25" d="M382.5,260.9c.1.4.6.8,1,1-13,12.5-18,7.5-1-1Z"/>
    <path class="st24" d="M660.2,434.7c0-.7-1.4-1.8-1-3l7.8-.7c-.2,1.7.6,3.6.2,5.1s-2,.6-2,.7l-1-4c0,1.3-.2,3.4-1.5,4s-.3-2.9-2.5-2Z"/>
    <path class="st25" d="M337.5,304.8l1,3c-.3.3.1,2.3-1.6,2.9s-5,.2-5.4-1.4,4.9-3.5,6-4.5Z"/>
    <path class="st25" d="M357.5,372.8l8-7c.2,4.9-3.3,7.5-8,7Z"/>
    <path class="st25" d="M476.4,435.7c-1.2,1.4-.6,3.7-3,3,1-4,2.6-7.8,3-12,1.7-.2,1.1,3.5,1,4.6-.1,2-.9,3.3-1,4.4Z"/>
    <path class="st25" d="M665.2,436.7c-.3.5-.2,2.1-1,3-.6-.1-1.5.2-2,0s-.9-.8-2-1v-1c0-1,.1-2.1,0-3,2.1-.9,1.9,2.3,2.5,2,1.3-.6,1.5-2.7,1.5-4l1,4Z"/>
    <path class="st25" d="M430.4,335.8c-2.2,3.8,7.7,12.8,6,15-1.4,1.7-2.2-1.3-2.6-1.9-2.5-4-2.8-10.9-7.4-12.1,3.2-6,2.3-1.6,4-1Z"/>
    <path class="st25" d="M391.5,471.7c-.5-3.9,2.9-5.1,5.5-7-.2,2.9-3.2,5.5-5.5,7Z"/>
    <path class="st24" d="M440.4,408.7c-1.6,0-2-4.6-1.8-5.3s2.8-4.4,3.8-4.7l-2,10Z"/>
    <path class="st25" d="M206.7,663.5c1.1,1.1-.9,3.1-2,2-1.1-1.1.9-3.1,2-2Z"/>
    <path class="st25" d="M387.5,718.4c-.3.7-1.7-.6-1-2,.3-.7,1.7.6,1,2Z"/>
    <path class="st25" d="M404.5,551.6c2.2.9,3.3,2.6,3,5-27.6,26.8-59.5,50.9-93.2,70.1-5.9,3.4-11.9,7-18.6,8.3,8.5-9.5,19.7-18.2,30.1-25.9,25.9-19.2,55.6-35.1,78.8-57.5Z"/>
    <path class="st23" d="M642.7,625.5c.6.3.6.7,0,1v-1Z"/>
    <path class="st24" d="M413.2,425.5c0,.1-2.4,1.3-2.7.8,9.7-11.2-4.9-24.6-4.8-34,0-4.5,7.6-17.7,6.8-18.5-4.4-4.3-11.8,14.4-11.9,18.6-.2,10.9,12.7,18.8,4.3,31.3-5.4,7.9-17.5,7.9-11.4,22.1-6.3-5.9-5.8-13.6-.4-19.9,1.4-1.6,3.2-2.2,4.4-3.6,9.7-11-.3-17.1-.6-28.1-.5-21.4,14.1-23.3,18.9-37.5.9-2.6,2.4-15.4,6.2-14.8,2.2.4-.4,9.6.6,11.5,1.1,13-4,17.1-8.2,26.7-8.1,18.5,4.9,26.6.9,40.9-.3,1.2-1.2,3.7-2,4.5Z"/>
    <path class="st25" d="M386,719.4c.6.3.6.7,0,1v-1Z"/>
    <path class="st23" d="M628.8,794.4c.6.3.6.7,0,1v-1Z"/>
    <path class="st23" d="M283.1,565.6c.6.3.6.7,0,1v-1Z"/>
    <path d="M119.8,617.5c-.5-1.3-2.3-3.1-3-5.5-2.6-8.2-6.7-26.3,5.8-28.3,4.9-.8,6,.2,9.2,2.8v1c-1.4,1.6-3.9.8-5.9,1.5-6.1,2.2-8.3,13.1-7,18.7s1.6.8,1.9,1.5c.7,1.7,1.3,4.9,2.1,6.2-.8,1.2-1.3,2.3-3,2Z"/>
    <path d="M132.7,591.6c-.8,2.6-4.1,6.7-4.1,8.4s2.1.8,2.6,1.5c.8,1.1-2.2,4.7.9,4,4.6-.9,3.2-5.3,2.5-8,0-.7,0-1.3,0-2h2c.4,3.8.3,10.4-1.3,13.7s-1.6.2-1.7.3c-5.1,3.5-4.9-3.7-9-4-1.7-8.1-1.4-12.8,8-14Z"/>
    <path class="st20" d="M526.8,228.9"/>
    <path class="st25" d="M131.7,586.6c.2.1,1.2-.4,2.1.6,1.8,2.2,2.7,5.6,2.9,8.3h-2c0-1,0-2,0-3h-1c-.9,2.2.7,3.8,1,5,.7,2.7,2,7-2.5,8-3.2.6-.1-2.9-.9-4s-2.6-.6-2.6-1.5c0-1.7,3.3-5.8,4.1-8.4s1.5-2-1-4v-1Z"/>
    <path d="M422.5,769.4c.1,18.8,4.2,36.8,20.8,47.7,1.1.7,2.6.9.2,1.8s-11.7,2.2-14,1-9.7-14.6-10.5-16.5c-2.1-5.7-3.4-19.4-2.5-25.4.2-1.4,4.2-10.6,5.9-8.5Z"/>
    <path class="st20" d="M483.4,812.4c.7.8.4,2.2-1.4,1.9-3.7-.4-19.8-7.4-18.5-12.4,1.1-1.2,1.3-1.9,3-1s6.3,5.7,8.7,7.3,7.9,3.7,8.3,4.2Z"/>
    <path class="st20" d="M481.4,763.4c0-.2-1-.7-1-1.6,0-1.5,1-2.1,1-2.4v4Z"/>
    <path class="st20" d="M486.9,814.3c.6.3.6.7,0,1v-1Z"/>
    <path class="st23" d="M686.7,550.6c.6.3.6.7,0,1v-1Z"/>
    <path class="st25" d="M421.5,625.5c.7.3-.6,1.7-2,1-.7-.3.6-1.7,2-1Z"/>
    <path class="st23" d="M544.3,827.3c-1.8.3-6.8-1.2-5-3s5.7,2.4,5,3Z"/>
    <path d="M406.5,298.9c1.7-11,15.2-7.4,23.3-8,4.6,6.1.5,11.6-6.1,12.8s-12.2-3.7-17.2-4.8Z"/>
    <path class="st25" d="M436.4,311.8c-2.4-1.6-5.6-6.7-2.5-9l2.5,9Z"/>
    <path class="st24" d="M134.7,595.6c0,.7,0,1.3,0,2-.3-1.2-1.9-2.8-1-5h1c0,1,0,2,0,3Z"/>
    <path class="st21" d="M699.5,321.5c2.7,1.9,9.3,11.4,11.1,14.4,1.2,2.1,2.7,5.1,2.5,7.6-.4,3.9-5.2,7.9-9,6.5-4.5-1.6-9.5-8.5-12.2-12.3-.3-.4-.8-.5-1.1-.9-1-1.5-5.8-10-6.1-11.3-.6-2.9.8-4.5,3.1-5.9,1.4-.8,4.1-1.9,5.7-1.5.9.2,5,2.7,6,3.4ZM695.1,322.6c-1.6-1.1-4.6-1.9-5.7.1-1.3,2.4-.1,4.6,1.1,6.8s5.2,6.5,7.3,9.3c1.4,1.9,2.7,4.9,4.5,6.6,1.9,1.7,4.2,1.5,6.2,0,2.3-1.7,1.2-3.8-.1-5.9-1.7-2.8-11.1-15.4-13.3-17Z"/>
    <g>
      <path class="st17" d="M843,460.8c0,.3,0,1,0,1.1.1.1.7-.3.8-.3s1,0,1.1,0,.4.2.8.3.7,0,1.1,0,1,0,1.1,0,0,.2.5.5-.1,0,.8.5,0,.4.3.5c-.8,1.1,0,1.2,1.1,1.1v.3c-1.2-.1-.5,1.3-.5,1.6s0,.9,0,1.3,0,1.1,0,1.3-.2.3-.3.5-.2,1.3-.3,1.3c0,.1-1.4.7-1.1,1.9-.7,0-.5.5-.5.5,0,0-.5,0-.7,0s-.4.7-.6,1-.5-.1-.5.2c-.1.5,0,1,.3,1.4l-.3.3c0,0-.4-.2-.5-.4-.2-.3-.2-.8-.5-.7,0,.4-.3.6-.5.8s-.3-.1-.5,0,0,.7,0,.7c-.1.1-1.1-.4-.8.8-.3-.5-.6-1-.5,0-.7-1.3-.6-.2-1.3.3s-.7.3-1.1.5-.4,0-.5,0c0,.2,0,.3,0,.5-1.3-.7-1.5.5-1.6.5s-.4.2-.5.3-.5.2-.8.3c-1,.4-.6.3-1.1.5s-.6,0-1.1.3-.5-.2-.5.2,0,1,0,1.4c-.8.2-.5-.6-.7-1-.5-1.1-1,.6-.9,1.3-.1-.7-.8-1.4-.8-.3l-.3-.5h-.3c.1.4-.5.7-.5.8-.8-.5-1.2.1-1.9.3s-1-.3-1.3.5c0-.5-.3-.9-.8-.5,0,.3,0,.5,0,.8h-.3c0-.1-.2-.2-.3-.3,0-.2,0-.6,0-.8l-1.1.3c0,0-.2-.2-.3-.3-.6-.5-.7-1.1-1.6-.8,0-.9,0-.9-.8-.8,0-.6-.6-1.2-.7-1.8-.3-1.4-.3-2.7-.6-4s0-.3,0-.3c1-.7.3-.7.5-1.1s.6-.8.8-1.1,1.2-.4.8-1.3c1,.2.9-.7,1.1-.8s.5-.5.5-.5c.7-.2,1.1.6,1.1-.8.9.1.8,0,.8-.8,1.5.4,1.2-.9,1.3-1.1s.6,0,1.1,0,.7-.2,1.1-.3c1.4-.4.6-.2,1.1-.5s1-.4,1.3-.5c.8-.4,1.6-.9,2.4-1.3s.4-.2.5-.3c1-.5.8-.4,1.3-.8s.8-.2,1.1-.3c1.2-.4.6-.4.8-.5s1,0,1.3,0,.7-.2.8-.3c.3,0,.7-.2,1.1-.3,1.4-.5.4-1.6,1.1-2.7-.2.4.2.9.3,1.1ZM842.5,463.7c-5.1.9-12.5,4.2-16.6,7.4s-.8.2-1.1.4-2.3,3.3-2.4,3.6c-.3.8-.2,2.7,0,3.6s.4.2.5.4c.2.4.3.9.7,1.3s.9.4,1.3.7.2.4.4.5c.5.1,3.4.1,3.9,0s.2-.4.4-.5c4.8-1.2,12.3-4.1,16.1-7.2,2.5-2,4.2-5.7,3-8.8s-1.3-1.2-2.4-1.6-.2-.5-.4-.5c-1.6-.4-2,.6-3.3.8Z"/>
      <path class="st16" d="M826.3,483.6l-.3-.3c0,0,.2.2.3.3Z"/>
      <path class="st16" d="M821.6,486c.2,0,.2.2,0,.3v-.3Z"/>
      <path class="st14" d="M842.5,463.7c.3-.2,2.7.1,3.3,0,1.4,1.3,2.3,1.4,2.3,3.6s-1.9,4.4-3.4,5.4c-3.1,2.1-7.6,3.8-11,5.4-1.5.7-2.3,1.6-4.3,1.8-2,.2-5.4.4-5.9-2-1-4.7,2.4-6,5.6-7.8,3.2-1.8,6.5-3.2,9.8-4.8s2.5-.8,3.7-1.6ZM838,474.3c0,0,2-.4,2.5-.6.8-.3,4.2-2.4,4.9-3s1.6-2.3,1.6-2.5c.4-1.8-1-4-3-3.5s-.1.4-.4.5c-.6.2-1.8,0-2.5.3-1.9.6-4.1,2-6.1,2.9s-1.2.5-1.9.8c-3.2,1.3-4.9,2-7.5,4.4s-1,0-1.2,1,0,3.4.3,3.8,1.3.3,1.7.3c3.5.3,7-1.6,9.9-3.1s.7,0,.6-.9c1.2.4,1-.5,1.1-.5Z"/>
      <path class="st19" d="M833.2,469.3c.6.7,0,2.1.3,2.6.5.9,2.1,2.1,3,2.5s.3.4.3.4c.2.9,0,.6-.6.9-3,1.5-6.4,3.4-9.9,3.1s-1.5-.1-1.7-.3c-.4-.4-.4-3.2-.3-3.8.2-1,.8-.7,1.2-1,2.7-2.4,4.4-3.2,7.5-4.4ZM831.5,472.3c-2.2-1.2-3.1,3.4-.3,2.9s1.1-2.5.3-2.9Z"/>
      <path class="st19" d="M835.1,468.5c2-.9,4.2-2.3,6.1-2.9s1.9-.1,2.5-.3.2-.5.4-.5c2-.5,3.4,1.7,3,3.5s-1.5,2.4-1.6,2.5c-.7.6-4.2,2.7-4.9,3s-2.4.5-2.5.6c.3-2.8-1.9-3.8-2.9-5.8ZM844.9,468.2c.8-.5.1-2.7-1.3-1.7s0,2.5,1.3,1.7ZM841.4,472.2c.2-.2.6-2.9-.1-3.1-1.6-.5-1.7,2.1-1.2,3s1.2.2,1.3.1Z"/>
      <path class="st14" d="M841.4,472.2c-.1.1-1.1.2-1.3-.1-.5-.9-.4-3.5,1.2-3,.8.2.4,2.9.1,3.1Z"/>
      <g>
        <path class="st21" d="M822.3,481c0,.5-1.6,2.6-2,3.2s-.7.4-.9.7c-.5.6-2.6,3.9-3.1,4.1s-.6,0-.7-.2c-.3-1.9,1.9-3.2,2.9-4.8s.2-.9.3-1.2.6,0,.5-.5c-1,0-1.4.8-1.9,1.2s-.5.1-.7.3c-.5.4-2.3,3-3,2.3-.3-1.6.4-1.2,1.1-1.9.8-.8,1.3-1.8,2.5-1.9l3-3.1c-.8.4-1.9.5-2.7.8s-2.5,1.3-3.1,1.5c-.9.3-3.6.6-2.2-.6s.8-.2,1.1-.4.2-.4.4-.5c.5-.2,3.1-.4,3.3-.6s0-.6,0-.8c-1.7,0-3.1.5-4.8,0,.1-1.5,1.6-.9,2.5-1.1s.1-.5.4-.5c.8-.2,2.2-.2,3-.3v-.8c-.7,0-4.4-.1-4.8-.3s-.3-1.2-.3-1.6c.2-.2,2.5.2,3,.3s.1.5.6.5c1.3.2,2.8.2,4.1.2.3,1.3.3,2.7.6,4s.7,1.2.7,1.8Z"/>
        <path class="st21" d="M823.1,481.8c.9-.3,1,.3,1.6.8-.7,1.3-1.1,3-1.7,4.3s-.6.4-.7.6c-.4.8-.6,2.2-1.1,3s-1.4,1.5-1.1,0,1.4-2.6,1.4-4c-.5-.1-.9.7-1.2,1.1-.5.8-.5.9-1.1,1.6s-.1,1.3-.9.8.7-2.7,1-3.3.7-.3.9-.7c.6-.9,1.8-3.9,2.8-4.2ZM821.6,486v.3c.2,0,.2-.2,0-.3Z"/>
        <path class="st21" d="M832.4,466.1c-.7-1.5-.7-3.6-1.2-5.1s-1.2-2.4-1.5-3.8.2-1.9.8-1c1.3,2,1.5,5.7,2.4,8,.5,0,.5-.9.5-1.2,0-2.2-1.1-4.1-.7-6.5,0-.4,0-.8.5-.3s.2,1.3.3,1.7.5.2.5.4c0,.4-.3.9-.3,1.3s.6.1.6.3c0,1-.1,2.5,0,3.6s.5.8.5,1.3c-.8.4-1.6.9-2.4,1.3Z"/>
        <path class="st21" d="M830.5,482.6c-.1.6-.2,2.9.5,3.1l.5,6.5c-1.8.5-1.2-2.3-1.4-3.6s-.1-1.2-.5-1.2v3.9s-.3.8-.5.7c-.4-2.9-.4-6-.5-9,.6-.2,1-.8,1.9-.3Z"/>
        <path class="st21" d="M838,479.4c.7.4.8,1.5,1.1,2.2,1,2.2,2.3,5.3,3.1,7.6.3.9.6,2.6-.8,1.8-.7-.4-1.5-4.4-1.8-5.3s-.5-.4-.6-.7c-.6-1.7-1-3.5-1.6-5.2.1,0,.5-.2.5-.3Z"/>
        <path class="st21" d="M846.5,474.3c.4,1,1.3,1.2,1.8,1.7,1.5,1.4,2.9,3.3,4.4,4.6.2.2.7.2.9.3s.4,1.7.3,1.8c-1.9.3-2.3-1.8-3.3-2.9s-2.7-2.3-3.6-3.2-.7-.8-.7-.8c-.2-.4-.4-1-.3-1.4s.5-.1.5-.2Z"/>
        <path class="st21" d="M849.7,469.6c.3.7,1.1.5,1.7.8,1.4.7,2.8,1.6,4.1,2.4s3.8,1,2.2,2.8c-.6.6-.5-.2-.7-.4-1.9-1.4-3.8-2-5.7-3.2-.4-.2-.9-1-1.8-1.1,0,0,.2-1,.3-1.3Z"/>
        <path class="st21" d="M846,476.2c1.3,2.2,2.5,4.7,3.8,7s1.5,1.1,1.3,2.3c-1.9.3-1.8-1.3-2.5-2.5l-4.2-7.1c.3-.2.6-.4.5-.8.4,0,.3.4.5.7s.5.3.5.4Z"/>
        <path class="st21" d="M848.3,472.7c1.2,0,3.6,3,4.6,3.9s1.4,1,2,1.6.3.8.5,1,.7.1.8.2c0,.1,0,1,0,1-.7.7-2-1.4-2.3-1.6-1.7-1.1-2.4-2-4-3.3l-2.2-2.3s-.2-.6.5-.5Z"/>
        <path class="st21" d="M822.3,472.7c-.4-.3-.6-.9-.9-1.2-1.5-1.7-2.9-3.1-4.3-5s-1.3-.7-1-2c1.1-.1,1.1.9,1.6,1.4,1.6,1.7,2.9,3.1,4.4,5s.9.5.9.5c.4,1-.7,1.3-.8,1.3Z"/>
        <path class="st21" d="M827.9,467.4c-.9-2.5-1.6-5.2-2.4-7.8s-1-.7-.5-1.8c.3,0,.7,0,.9,0,.3,0,1.7,5.5,2,6.3s.5.4.5.6c.3.7.5,1.9.6,2.7-.5,0-1,0-1.1,0Z"/>
        <path class="st21" d="M840.1,478.3c.9,1.2,1.1,2.8,1.6,4s1.7,2.8,2.2,4.5.7,2.4-.6,2c0-1.1-.6-2.4-1.1-3.5,0-.2-.4-.2-.5-.4-.5-1.1-2.1-5.3-2.2-6.2s0-.3,0-.5c.2,0,.4,0,.5,0Z"/>
        <path class="st21" d="M821,474.9c-.2-.4-.4-.5-.8-.7-1-.4-2.8-1.1-3.7-1.5s-.8-1.1-1.1-1.2c-1.1-.5-2.2.1-1.9-1.9.4,0,.8,0,1.1,0s1.3,1.2,1.4,1.3c.8.5,2.3.9,3.1,1.4s1.6,1.3,2.3,1.6c-.2.3.5.4-.5,1.1Z"/>
        <path class="st21" d="M836.6,479.9l2.9,10.1h-1s-3-9.6-3-9.6c.5-.3,0-.1,1.1-.5Z"/>
        <path class="st21" d="M841.2,477.8c.7-.4.6-1.5,1.3-.3.7,1.2,1.2,3.2,1.9,4.6s.5.3.7.7,1.3,3.1,1.2,3.2h-1s-4-8.2-4-8.2Z"/>
        <path class="st21" d="M849.9,467.7c.6,0,1.4-.1,1.9,0s.2.5.4.5c1.1.2,3.1,0,4.2.3s.6,1,1.6.5c.9,1.8-2.2,1.4-2.7.5l-5.4-.5c0-.2,0-1,0-1.3Z"/>
        <path class="st21" d="M843,460.8c.6-1.9.8-4.3,1.4-6.2s.4-.2.5-.4c.3-.7,0-2.2,1.1-2.2.4.5-.8,5.5-1.1,6.4s-.4.2-.5.4c-.2.8-.2,1.9-.6,2.7-.1,0-.7.4-.8.3s0-.8,0-1.1Z"/>
        <path class="st21" d="M843.8,476.7c-.2,1.1.9,1.7,1.3,2.3.8,1.3,1.3,2.8,2,4.1s.6.4.7.7c.4.7.3,3-.6,1.8-1.5-2-2.7-5.9-4.2-8.2-.3-1.2.7-.7.8-.8Z"/>
        <path class="st21" d="M824.1,470.6c-1.7-1.8-2.5-3.8-3.6-5.8s-1.6-1.4-1.1-2.1,1.1-.5,1.2,0l4.1,7.4s-.4.4-.5.5Z"/>
        <path class="st21" d="M834.5,480.7l1.6,8c.9.4.4,1.4.5,2.3-.5,0-1.1.1-1.3-.4,0-2.8-1.2-5.6-1.4-8.3,0-.4,0-1.1,0-1.4s.4-.1.5-.2Z"/>
        <path class="st21" d="M850.5,464.8c.5.8,3,.7,3.9.6s.3-.5.6-.5c.8-.2,1.9.1,2.7,0,0,.7.2,1.4-.7,1.6-2,.4-5-.3-7,0,0-.3-.7-1.7.5-1.6Z"/>
        <path class="st21" d="M849.4,463.4c.2-.3,1.8-.8,2.2-1.1,1.1-.7,2-1.8,3.5-2.4,2.2-.9,1,.7,0,1.5s-1.9,1-2.7,1.4-1.5,1.5-2,1.6c-1.1.2-1.9,0-1.1-1.1Z"/>
        <path class="st21" d="M841.7,462.4l.5-11.4h.8s-.3,8.8-.3,8.8c-.7,1.1.3,2.2-1.1,2.7Z"/>
        <path class="st21" d="M846.8,461.9c-.2-1.3,1.1-1.8,1.5-2.4.9-1.5,1.8-3.1,2.7-4.5s.2-.9.8-.8c.3.2,0,.8,0,1.1-.4,1.5-1.2,2.8-2,4.1s-1.4,1.6-1.8,2.6c-.1,0-.8,0-1.1,0Z"/>
        <path class="st21" d="M835.3,464.5l-.3-10.4c.9.7,1,2.7,1.1,3.8s-.2,2.4,0,3.5.5.3.5.6c.1.5,0,1.1,0,1.7-.5.4-.3.3-1.3.8Z"/>
        <path class="st21" d="M830,467.2c-.6-2-1-4-1.6-5.9,0-.2-.4-.2-.5-.6-.3-.9-.3-1.9-.2-2.8.2,0,.7,0,.8,0,.3.3,1.7,6.8,2.1,7.9.2.4.7.3.6.9-.5.4.4.1-1.1.5Z"/>
        <path class="st21" d="M824.9,482.8l1.1-.3c0,.2,0,.6,0,.8l.3.3h.3c0,.2,0,.4,0,.5-1,0-.8,1.2-1.1,1.9s-.4.2-.5.4c-.4,1.2-.5,3-1.1,4.2s-.2.8-.8.6c-.5-.6,1.9-7.2,1.9-8.5Z"/>
        <path class="st21" d="M825.7,469.3c0-1.6-.6-1.3-1-2-.8-1.7-1.2-3.7-2-5.2-.2-.5-1-.3-.7-1.2.7-.3.8.4.9.5.2,0,.4-.2.5-.2.2.1,1.3,3.6,1.6,4.3s1.5,1.8,1.6,3.1c0,.8,0,.9-.8.8Z"/>
        <path class="st21" d="M844.9,461.6l2.4-8,1.1-.7c.2.3-.3,2.4-.5,2.8s-.5.4-.5.6c-.6,1.8-1.1,3.8-1.6,5.6-.4,0-.8-.3-.8-.3Z"/>
        <path class="st21" d="M848.3,462.4c.4-.6,1.2-1.8,1.6-2.2s.7-.2.9-.4c.9-.8,1.5-2.4,3.1-2.1.3,1.4-.6,1-1,1.4s-1.4,1.4-1.9,1.9-1.2,1.4-1.9,2c-.9-.4-.5-.3-.8-.5Z"/>
        <path class="st21" d="M831.6,482.3c0-1.1.7-.5.8.3.5,2.6.5,5.7.8,8.4,0,.4-1.2,0-1.1-.5,0-2.7-.6-5.4-.5-8.1Z"/>
        <path class="st21" d="M839.8,462.9l-.3-10.1c.8-.1.4.2.5.6.7,2.6.2,6.4.5,9.2-.1,0-.4.2-.8.3Z"/>
        <path class="st21" d="M826.5,483.6c0-.3,0-.5,0-.8.5-.4.8,0,.8.5.1,2.9-.3,5.9-.5,8.8h-.8c.3-2.7.4-5.3.5-8,0-.2,0-.4,0-.5Z"/>
        <path class="st21" d="M837.7,463.4l-.3-9.3c.7-.2.8,1,.8,1.5.2,2.3,0,5,.3,7.3-.2.1.4.1-.8.5Z"/>
        <path class="st21" d="M842.5,463.7c1.3-.2,1.6-1.2,3.3-.8s.2.4.4.5c1.1.4,1.8,0,2.4,1.6,1.2,3.2-.6,6.8-3,8.8-3.8,3.1-11.3,6-16.1,7.2s-.2.5-.4.5c-.5.1-3.4.1-3.9,0s-.2-.4-.4-.5c-.4-.2-.9-.3-1.3-.7s-.4-.9-.7-1.3-.4-.2-.5-.4c-.2-.9-.3-2.8,0-3.6s2.3-3.5,2.4-3.6c.3-.2.8-.1,1.1-.4,4.2-3.2,11.6-6.5,16.6-7.4-1.1.7-2.3.9-3.7,1.6-3.3,1.6-6.6,3-9.8,4.8-3.2,1.8-6.6,3.1-5.6,7.8.5,2.5,3.9,2.2,5.9,2,2-.2,2.8-1.1,4.3-1.8,3.4-1.6,7.9-3.3,11-5.4,1.5-1,3.4-3.5,3.4-5.4s-1-2.3-2.3-3.6c-.6.1-3-.2-3.3,0Z"/>
        <path class="st21" d="M835.1,468.5c1,2.1,3.3,3.1,2.9,5.8,0,0,.1.9-1.1.5s-.2-.4-.3-.4c-1-.4-2.5-1.7-3-2.5s.2-1.9-.3-2.6c.7-.3,1.2-.5,1.9-.8Z"/>
        <path class="st21" d="M831.5,472.3c.7.4.9,2.6-.3,2.9-2.8.5-1.8-4.1.3-2.9Z"/>
        <path class="st21" d="M844.9,468.2c-1.3.8-2-1.2-1.3-1.7,1.4-1,2.1,1.2,1.3,1.7Z"/>
      </g>
    </g>
    <path class="st21" d="M718.4,185.2s.2,0,.2.2c0,.3.2.7.1.9,0,.9-.7,1-.9,1.8s.3,2,.5,2.6,1,1.9,1.3,2.7c.2.5.2,1.2.7,1.7.4.2,1.3,0,1.7,0,2.2-.6,3-.6,5.2,0s1.4.2,1.7,0c.8-.9.9-2.1,1.3-3.3.4-1,.7-1.7,1-2.9s.4,0,.3-.6-.2,0-.3-.2c-.1-.4-.5-1.6-.5-2s.2-1.4.5-1.6.3-.1.4-.2.2-.3.3-.4c.4-.2,1.5-.1,1.9,0s.2.3.4.4.3,0,.4.1c.7.7.7,3.1-.1,3.6s-.4.1-.6.2c-.5.2-.4.2-1,.3-1.1.3-1.1,1.4-1.4,2.3s-1,2.1-1.3,3-.4,1-.4,1.3c0,1,1.3,1.2,1.9,1.6s2.3,2.3,2.8,2.9.2,1.3,1.3,1.3.8-.4,1-.6c.4-.2.9-.5,1.3-.7,1-.5,3.4-1.4,3.8-2.5s.1-1.3.4-1.9c.7-.6,1.8-1.2,2.7-.7s.2.3.3.3c.2.1.4,0,.5.3.6.7.6,2.8,0,3.5s-.7.5-.8.5c-1.2.5-1.4-.4-2.4-.5s-1,0-1.3,0-.4.4-.5.5c-.9.5-1.9,1-2.8,1.5s-1.8.7-1.9,1.2.1,1.6.3,2.2c.5,1.8.7,2.5.6,4.5,0,.9-.6,2.1.2,2.8.4.3,1.3.3,1.7.5.6.2,1.7.8,2.4,1s1.9.6,2.6.4.9-.7,1.2-.8,1.3-.1,1.7,0,.9.8.9.9c.7,1,.3,2.6-.6,3.3-.8.3-1,.8-2,.4s-.9-.6-.9-.7c-.3-.4-.6-1.4-.8-1.9-.6-1-1.1-.8-2-1.1s-1.4-.5-2.1-.7-1.3-.6-2-.7c-1.5-.2-1.1.7-1.5,1.5-.8,1.6-2.3,3.2-3.6,4.3s-1.2.7-1.6,1.1c-.4.5-.3,1.1,0,1.6s.3.3.3.4c.5,1.4,1.4,4.9,2.6,5.5s1.2.4,1.6.6.4.6.5.9.2.1.3.2c0,.2,0,1,0,1.2s-.2,0-.3.2c-.1.3-.2.8-.4,1s-.8.6-.8.6c-.4.2-1.4.2-1.8,0s-1.1-1.2-1.2-1.3c-.3-.6-.1-1.5.1-2.1s.3-.2.3-.3c.2-.5.2-1.7,0-2.3s-1-2-1.3-2.6c-.6-1.5-.2-3.1-2.2-2.9s-2.9.6-4.7.4-1.9-.6-2.7-.4-.7,1.1-.9,1.7c-.4.9-1,2-1.3,2.9s-.8,2.1-.4,3.2,1.2,1.1.7,2.3-.2.1-.3.2c-.5,1-.6,1.5-1.9,1.5s-1.1-.2-1.6-.8-.3-.2-.4-.2c-.6-.8-.4-2.7.6-3.3s1.2-.3,1.8-.8.5-.8.7-1.2c.4-.8.9-2,1.2-2.9.2-.7.8-2,.7-2.7,0-1-1.5-1.4-2.1-1.9s-1.7-1.7-2-2.1c-.6-.7-.5-1.8-1.9-1.4s-1.6,1-2.3,1.4c-1.1.6-2.9,1.1-3.3,2.5s-.1.6-.3,1.1,0,.6-.2.7-.5.2-.7.3-.1.2-.2.3c-1.2.5-2.3-.4-3-1.4,0-.5-.1-1.2,0-1.8s.5-.8.6-.9c.6-.6,1.5-.9,2.3-.6s.1.3.3.3c.5.2,1.2.2,1.7,0,.8-.3,2.3-1.3,3.1-1.8s1.8-.7,2-1.4-.6-3-.6-4.1,0-2,0-2.9.5-1.7,0-2.4-2.2-.9-2.9-1.1-2-1-2.4-1-1.2,0-1.4,0-.1.2-.2.3c-.9.4-1.7,1.2-2.6.7s-.2-.3-.3-.4-.4-.1-.6-.3c-.5-.7-.5-2.5,0-3.2.7-1.1,2.9-1.3,3.5-.2s.3,1.4,1.3,2.1,1.7.6,2.6.9,1.7.9,2.1,1,1,0,1.2,0,.1-.2.2-.3c.6-.4.7-.4,1-1.2.9-2,2-3.5,3.8-4.8.5-.3.9-.1,1.2-.9s0-1.5-.2-2.3c-.4-1.1-1.1-2.7-1.6-3.6s-.2-.9-.7-1.1-1.2-.4-1.5-.6-.8-.8-.8-.8c-.2-.5-.2-2,0-2.5s.9-.9.9-.9c.5-.2,1.9-.3,2.3,0s.6.9.8,1.3Z"/>
    <path class="st21" d="M831.7,354s0,0,.1,0c0,.1,0,.4,0,.5,0,.5-.4.6-.5,1s.1,1.1.3,1.4.5,1,.7,1.4.1.7.4.9c.2.1.7,0,.9,0,1.2-.3,1.6-.3,2.8,0s.7.1.9,0c.4-.5.5-1.2.7-1.7s.4-.9.5-1.5.2,0,.1-.3-.1,0-.1-.1c0-.2-.3-.9-.3-1.1s.1-.7.3-.9.2,0,.2-.1,0-.2.2-.2c.2,0,.8,0,1,0s.1.1.2.2.2,0,.2,0c.4.4.4,1.6,0,1.9s-.2,0-.3.1c-.3.1-.2,0-.5.2-.6.2-.6.8-.8,1.2s-.5,1.1-.7,1.6-.2.6-.2.7c0,.5.7.6,1,.9s1.2,1.2,1.5,1.6,0,.7.7.7.4-.2.6-.3c.2-.1.5-.3.7-.4.5-.3,1.8-.7,2-1.3s0-.7.2-1c.4-.3.9-.6,1.5-.4s.1.2.2.2c0,0,.2,0,.3.1.3.4.3,1.5,0,1.9s-.4.3-.4.3c-.6.3-.8-.2-1.3-.3s-.5,0-.7,0-.2.2-.3.3c-.5.3-1,.5-1.5.8s-1,.4-1,.6,0,.9.1,1.2c.2.9.4,1.3.3,2.4,0,.5-.3,1.1,0,1.5s.7.2.9.3c.3.1.9.4,1.3.5s1,.3,1.4.2.5-.4.7-.4.7,0,.9,0,.5.4.5.5c.4.5.2,1.4-.3,1.8-.4.1-.6.4-1.1.2s-.5-.3-.5-.3c-.2-.2-.3-.8-.5-1-.3-.5-.6-.4-1.1-.6s-.7-.2-1.1-.4-.7-.3-1.1-.4c-.8,0-.6.4-.8.8-.4.8-1.2,1.7-1.9,2.3s-.7.4-.9.6-.2.6,0,.9.2.1.2.2c.3.7.8,2.6,1.4,3s.7.2.9.3.2.3.3.5.1,0,.1.1c0,.1,0,.5,0,.7s-.1,0-.1.1c0,.2,0,.4-.2.5s-.4.3-.4.3c-.2,0-.8,0-1,0s-.6-.7-.6-.7c-.1-.3,0-.8,0-1.1s.1,0,.2-.2c.1-.3.1-.9,0-1.2s-.6-1.1-.7-1.4c-.3-.8,0-1.7-1.2-1.5s-1.5.3-2.5.2-1-.3-1.5-.2-.4.6-.5.9c-.2.5-.5,1.1-.7,1.5s-.4,1.2-.2,1.7.6.6.4,1.2-.1,0-.1.1c-.3.5-.3.8-1,.8s-.6-.1-.9-.4-.2,0-.2-.1c-.3-.4-.2-1.5.3-1.8s.6-.2.9-.4.3-.4.4-.7c.2-.4.5-1.1.7-1.5s.4-1.1.4-1.4c0-.5-.8-.7-1.2-1s-.9-.9-1.1-1.1c-.3-.4-.3-1-1-.8s-.8.5-1.2.8c-.6.3-1.6.6-1.8,1.4s0,.3-.2.6,0,.3-.1.4-.2.1-.4.2,0,.1-.1.1c-.7.3-1.2-.2-1.6-.8,0-.3,0-.7,0-.9s.3-.4.3-.5c.3-.3.8-.5,1.3-.3s0,.1.2.2c.2.1.7.1.9,0,.4-.2,1.2-.7,1.7-1s1-.4,1.1-.7-.3-1.6-.3-2.2,0-1.1,0-1.5.3-.9,0-1.3-1.2-.5-1.5-.6-1.1-.5-1.3-.6-.6,0-.8,0,0,.1-.1.2c-.5.2-.9.6-1.4.4s-.1-.1-.2-.2-.2,0-.3-.2c-.3-.3-.3-1.3,0-1.7.4-.6,1.5-.7,1.9,0s.2.8.7,1.1.9.3,1.4.5.9.5,1.1.5.5,0,.7,0,0-.1.1-.2c.3-.2.4-.2.5-.6.5-1.1,1.1-1.9,2.1-2.6s.5,0,.7-.5,0-.8-.1-1.2c-.2-.6-.6-1.4-.8-1.9s0-.5-.4-.6-.6-.2-.8-.3-.4-.4-.4-.4c-.1-.3-.1-1.1,0-1.3s.5-.5.5-.5c.3-.1,1-.1,1.2,0s.3.5.4.7Z"/>
  </g>
  <polygon class="st11" points="227 176 40 283 15 386 227 176"/>
  <polygon class="st11" points="201.2 144.2 159 116 184 95 201.2 144.2"/>
  <polygon class="st11" points="227 176 323 26 372 15 227 176"/>
  <polygon class="st3" points="227 176 568 24 647.7 58.6 227 176"/>
  <polygon class="st11" points="227 176 13 506 20 547 227 176"/>
  <polygon class="st0" points="227 176 122 152 86 198 227 176"/>
  <circle class="st5" cx="226.5" cy="175.5" r="45.5"/>
  <path class="st9" d="M701.7,87.6C630.1,37.9,540.7,5.2,447.3,5.2,203.1,5.2,5.3,203.1,5.3,447.2s134.8,371.4,319.1,424.7"/>
  <path d="M183.2,608c13.9-8.8,33-13.9,44.9-10.4,11.9,3.4,24.7,5.4,37.8,10.4v4.5l-21.2-9.5s-12.4-4.1-22.5-4.1c-10.1,0-24.5,2.9-24.5,2.9l-16.8,10.1-15.9,7-21,5"/>
  <path class="st20" d="M96.8,642.2"/>
  <path class="st13" d="M96.7,648.6s40.7,25.4,44.5,20.9c0,0-17.5-41-17.2-40.5s-11.6,1.9-33.8,15.9l6.5,3.6Z"/>
  <path class="st13" d="M144,624s33.1-6.9,47-18.4c14-11.6,48.9-4.5,48.9-4.5l24,9.5-5.3,9.5s-17.6,2.9-111.6,4.9c-.4,0-3-1-3-1Z"/>
  <path class="st25" d="M185,560l1.7,5.1-1.7,4.9,2.1,2.9,1.3-3.6-1.3-10.6-2.1-15.7-1-16-3-4-6.2-4.1-.7-4.1,3.1-4.9-.6-6-3.4-1.6-3.8,2.6-1.3,11.1-7,4-4,3-1.8,11.7-2.2,13.3-2,15.2v7l2,.9,1-4v-9l6-25,3,8-1.4,15.9-2.5,6.3-1.1,8.1-3,6.8,1,11,2,7,2.3,5,2.2,5.2.5,4.2-1.9,7.1h1.1c0,0,.8,2.3,3.8-5.7l-2.4-14.4-1.6-8.6.3-7.3,2.7-7.7,2.1-7.1,2.6-3.7,1.8,5.9-.5,6.9.5,7-.5,11v12l-2,16,1,2,3.5-1.1-1.5-4.9,1.5-7.1,1.5-4.9v-4.4l1-7.6,1.2-6,.8-6v-4.7l1-3.1,1-6.2.9-6.3v-6.7c.1,0-3.6-9.4-3.6-9.4l-1.1-8.4,2.9-5.2.9,5.7,1,8.3,1,6,3,8Z"/>
  <path d="M154.6,572c-1.2.4-1.7,1.5-3.3-.2-2.9-3.1-1.1-6.3-.8-9.5.9-8.3,2.1-15.9,3.3-24.1.7-4.5.5-14.2,3.4-17.4,1.8-2,4.8-2,7.1-3.1,6.1-2.7,2.5-5.9,3.1-10.8.6-4.3,4.2-7.5,8.4-5,3.6,2.2,3.4,7.2,2,10.7-.5,1.3-2.9,4-2.8,4.7.5,3.4,8.3,3,10.2,8.9,1.5,4.6.6,12.3,1.1,17.5.7,6.9,1.5,13.9,2.2,20.8.2,1.8,1.1,3.6,1.1,5.5,0,2.5-2.1,7.2-5.1,6.4,0-1,1-1.8,1.1-2.8s-.9-1.2-1.1-2.5c-.3-2.5,1.1-5.1,1-6.2s-2.2-6.9-2.6-8,0-1.1-.6-1c.4,13.9-5.4,26.5-4.4,40.6l-.4.7c-.2.2-1,4.8-1.1,5.5s0,.5,0,.7c-1.3.9-3.2,13.8-2.9,15.9s1,2.2,1.1,3.3c0,.9-.4,1.6-.4,2-1,.7-2,.8-3.3.7-2.6-.1-3.4-1.9-3.3-4.4,0,0,.3-.4.4-.9,1.3-17.6,3.1-35.4,1.8-53,0-.6,0-1.2-.6-1.6-1.7,4.2-3.4,8.5-4.7,12.9-.7,2.4-2,5.8-2.1,8.1s1.2,5.4,1.7,8.1c.6,3.3.5,6.7,1.3,10,1.3,5.3,2.3,4.9.4,10.9s-1.7,3.1-1.6,4c-6.6,3.2-4.5-2.2-3.7-6.2.8-3.5,1-2.9,0-6.6-2.7-9.4-7.2-14.4-6.6-25,.1-2.6.6-7.1,1.1-9.7,1.6-8.5,7-23,6.2-31.2-.2-1.8-.9-3.6-1.2-5.3-.9,4.5-1.2,9.1-2.2,13.5s-3,9.1-3.3,12.4c-.1,1.7.6,4,.5,5.6,0,1.5-.7,3.4-.7,5ZM170.8,504.2c-1.6,1.8-1.3,8.9.4,10.2,3.7,2.9,7.2-6.4,4.4-9.6-1.1-1.3-3.5-2.1-4.8-.6ZM173.6,516.8c0,0-1.3,0-1.8-.2s-1.5-1.4-2-1.3-1.3,2.1-1.8,2.6c-2.4,2.5-5.2,2-7.8,3.2-3.9,1.9-3.2,10.4-3.8,14.1-.9,6-2.1,11.9-2.9,17.9s-2.9,14.9-1.4,16.3c1.1,1,.6-2.7.8-3.1s1-.5,1.1-.8c.2-.7-.5-4.2-.3-5.7.7-7.5,4-16.2,5.1-24.2s.1-6.4,1-6.7c1-.3,1.5.2,1.8,1.1.7,1.9,1.8,8.7,2,10.8.6,8.4-3.8,21.6-5.3,30.4-1.1,6.3-2.7,13.2-.9,19.4s6.6,13.6,5.9,22.2-.9,3.2-.7,4.9c.9,1.1,2-3.6,2.1-3.9,1.1-5.2-.5-5.7-1.3-10.2-.3-1.9-.2-4.2-.5-6.1-.4-2.7-1.8-5.7-2.1-8.2-.5-4,5-21.4,7.1-25.2.5-.9,2.9-3.3,3.8-2.1s.7,4,.7,4.7c.3,5-.4,10-.4,15,0,9.8.5,20.6-.4,30.3-.2,2.6-1.9,7.2-1.8,9.5s1.2,1.9,2.5,1.7c-1.7-5.6,0-11.9,1.2-17.6.5-2.7,1.7-5.5,2-8.2.5-4.2.3-8.8.8-13.1,1.2-9.4,4.8-19.3,4-28.9-.7-7.7-6.6-8.6-4-18.3.4-1.4,2.6-9.3,4.6-5.4l2.7,20.3,3.6,10.3c-.6-6.1-2.3-12.1-2.9-18.3s.2-13.7-1.2-17.8c-1.4-3.8-8.2-3.1-9.2-7.2s0-2.1-.2-2.2ZM180.9,549.7l-1.8-15c-.5,2.3-2,5.5-1.8,7.8.1,1.7,2.5,5.7,3.6,7.2ZM187.1,566.9c-2.2.3-.5,3.1-.4,4.4.6,0,.7-1.7.7-2,0-.8-.3-1.5-.4-2.4Z"/>
  <path d="M36.7,605.6l46.2,24.4s48.6,42,58.4,39.5l-1.7-3.7s-5.5,2.2-61.5-40.8c0,0-39.7-19.7-41.3-22.9s0,3.4,0,3.4Z"/>
  <polygon class="st25" points="89.2 623.2 78 634 74.2 651.6 75.4 665.1 80.3 675.5 89.2 681.7 100 680 107.2 672.2 112 661 117 667 121.2 673.5 124.7 679.1 126.7 686.6 134.7 686.1 141.2 687.3 146.6 687.3 134.7 681.3 131 670 124.7 656.4 122.8 648.8 127.9 646.6 129.4 643.5 121.2 637.6 109.5 634.3 98.1 630.7 95.2 628.1 100.9 625.4 103.2 619.3 101.5 614.9 99.4 612 94.5 612 91.5 614.3 89.2 623.2"/>
  <path d="M75.2,669.3c-3.1-10.8-4.2-25.7.9-36.1,3.1-6.2,8.2-5.8,11.6-9.8s.4-8.1,5-11.7c5.8-4.4,13,.2,12.4,7.2-.2,2.3-2.4,7.2-4.2,8.6-.7.5-3.3.7-2.4,1.6s6.1,2.4,7.1,2.6c9.3,2.6,12.2,1.6,20.7,7.4,2.2,1.5,7.9,3,5.2,7.1-1.5,2.3-6.9,2.5-6.8,4s3.1,9.6,3.7,11.1,1.8,2.7,2.5,4.2c1.5,3.5,3.3,11.3,5.6,13.4,2.6,2.3,7.2,3.4,10.1,5.1,2.7,1.6,2.7,3.8,7,2.8.4,1.5-1.1,2.4-2.4,2.4s-1.6-.6-2.6-.5c-5.8.3-8.3-.8-12.8-.9-2.6,0-7.3,1.9-9.5,0s-.5-6-1.9-7.6c-1.8-1.7-10.5-15.6-11.4-15.8-1.7-.4-3.9,7-4.5,8.3-8.1,16.9-28.3,13.4-33.2-3.5ZM96.7,617.9c-2.1,2.5-4.3,5.3-.6,7.7s7.4-7.1,5.4-10.7c-2.9-5.3-11.2-1-9.9,4.3,1.8-1.8,3.9-4.3,6.6-4.3s-.9,2.4-1.5,3.1ZM92.3,623c-.8-.7-.9.4-1.1.6-4,4.5-3.8,3.4-8.4,6.4-8.4,5.4-8.1,23.9-6.5,32.7,1.2,6.2,4.9,15.4,11.5,17.1,8.7,2.2,14.4-.8,18.1-8.8,1.6-3.4,3.3-8,4-11.3.1-.7,1.8-1.5,1.3-2.2s-6.8-3.2-7.5-3.3c-1.4-.1-3.7,2-4.9,3-2.9,2.5-5.4,6-8.3,8.4-1.4,1.2-3.1,2.9-4.9,1.9-.8-2.7,3-3.2,3.2-5.1s-1.5-4.3-1.3-7,.8-4.2,1.3-5.9c.4-1.3,2-4.3,2-5.1,0-1.7-4.5-2.8-3.8-5.5,1.6-1.5,8.8,5.6,10.2,6.7,2.6,1.9,5.1,3.9,7.9,5.4l15.6,6.7c-2.9-3.3-6.4-4.2-9.9-6.3-5.6-3.3-13.1-10.2-17.1-15.3-.5-.6-3.2-4-3.3-4.3-.5-1.2,1.7-.5,1.9-.7.4-.4.7-7.4,0-8.1ZM95.4,630.1c-3,.6,2.4,7.8,3.9,8.1s1.3-.8,2.3-.9c3-.3,10.2,0,13.2.6s5.9,5.5,6.3,5.6c1,.3,2.7-2.9,1.9-4.3s-16.9-4.6-20.1-5.6c-1.6-.5-7.1-3.6-7.5-3.5ZM110.8,639.2l-10.9-.5c1.6,1.6,3.5,5.8,6.2,4.5l4.8-4.1ZM118.4,646.8c1.3-1.8-2.7-5.3-5.6-4.5-7.8,2-2.7,7.8,2.4,6.3s3.1-1.6,3.2-1.7ZM120.3,647.3c1.5.4,6.8-1.1,7.6-2.1,1.2-1.5-.5-3.1-2.1-2.6l-5.6,4.7ZM94.2,645.9c-.9-.7-1.6,1.6-1.8,2.3-1,2.8-2.6,8.3-.3,10.6l7.4-7.9c-1.2-1.5-3.1-2.4-4.5-3.6s-.6-1.4-.7-1.4ZM124.1,658.8c-1.2-3.8,0-9.9-5.7-6.7-.7,1,3.3,5.2,4.2,5.9s.6.9,1.4.7ZM115.9,658.5c-.8-.6-2.3-1-3.2-.4l14.1,21.6,1.1,6.3c2.1.9,5-1.4,6.4-1.4s6.3,2.5,8.8,1.9c.3-1.3-.3-.8-.9-1.2-3.3-1.9-6.4-3.3-8.8-6.5-.6-.8-1.1-2.7-1.2-2.8-.3-.3-1-.3-.9.7.2,1.8.9,3.7.9,5.5-5.2-3.4-4.3-13-6.9-17.2s-6-3.8-8.2-5.2c-.7-.4-.9-1.2-1.2-1.4ZM131,675.1v.5c.3-.2.3-.3,0-.5Z"/>
  <polyline class="st20" points="144 624 142.6 622.7 154 620"/>
  <path d="M111.7,633.5s10.3-3.5,12.3-4.5v-1s-13.8,5.4-12.9,5.2l.6.4Z"/>
  <path d="M126.9,636s-4.9-11-7.2-18.4c0,0,1.3-1.1,1.2-1.5-.2-1.4,5.9,19.9,6.9,19.4l-1,.5Z"/>
  <path class="st15" d="M730,750c1,0,1.1-1.3,1-3-.2-2.3-4-2.2-6.3-2.2-7.4-.2-13.5,3.7-13.5,3.7-8.8,13.4-2.1,21.3-2,21.5,9.8,11.1,19.8,15.1,19.8,15.1,4.3,0,104-96,131.4-192,0,0-63.9,23.9-102.4,23-30.8-.8-54.6,1.2-70,7,0,0-33,63-53,88s-85,72-85,72c0,0,31,6,96-49,34.7-29.3,62.1-29.5,79.6-23.8,11.3,3.7,17.2,9.1,17.2,9.1,2.9,3.5,4.8,5.9,6.1,7.6,0,0,0,0,0,.1,1.6,2.1,1.2,4.3,1.4,7.4.1,1.8.5,3.5.8,5.3.3,2.2.6,4.1.8,5.3-2.9,6.3-6.8,9.5-9,11-2.2,1.5-3.6,1.9-4,2-6.1,1.6-11.3-2.6-12.5-3.6-1.9-1.6-2.2-2.7-2.3-3.1-.5-1.6,0-2.8,0-2.8.8-1.4,3.8.6,3.8.6"/>
  <path d="M743,756c0,0,2.4-2.1,4.2-5.6,0,0,1.2-2.5,1.8-5.4,2-10.3-7.3-20.3-24-27-15-6-42.5-.3-69,20,0,0-14,18-36,25,0,0-44,23.4-52.5,24.2-8.5.8-18.3-1.2-18.9-2.2s0-2.6,0-2.6c0,0,19.4,6.4,59.9-21,40.5-27.4,52.5-42.1,65.8-46.9,12.7-4.6,23.7-13.6,53.9-3.4,29.5,9.9,23.8,33.9,23.8,33.9-.3,1.1-1,3-2,4-.5.5-.4.4-1,1-.4.5-1.2,1.2-2,2,0,0-.6.5-1,1-1.4,1.7-2.9,3.1-3,3Z"/>
  <path class="st24" d="M300,329c2.3-.3,5.5-.9,9-2.6,3-1.4,5.3-3.1,6.9-4.5,0,0,3-1.9,6.5-1.8,5.9,0,12.4,7.3,18.9,6,5.2-1,10.6-14.7,16.8-17.2,6.2-2.5,12.7,1.1,19,0,9.1-1.5,18.9-13.6,20.2-22.7-6.5,4.2-10.4,11.9-16.9,17-10.9,3.8-20.9-5.4-30.5,5.5-7.1,8-6,17.4-21,11.5s3.5-.9,5.4-3c.3-.3,1.5-2.3,1.5-2.5-.1-2-12.7-3.2-15.7-.2-.5.5,0,1.9-.9,2.7-1.7,1.5-3.7,1.3-4.1,1.4-5,.8-11.7-7.6-11.2-4.5,2,12-20,10-4,15Z"/>
  <path class="st24" d="M306,341c-1,2-8.2,2.6-7,4.6,2,3.4,4.7,2.4,6.7,3.7,3.9-5.4,8.1-15.4,15.3-16.8,1.1-.2,2.2-.3,3.2-.2,7.5.4,14.7,6.7,23,4.5,7.4-2,11.8-17.1,21.5-18.4,9.3-1.3,16.9.4,22.4-10.1-4.3.7-6.1,3.6-10.7,4.7-5.5,1.3-14.7.3-19,2-5.3,2.2-8.4,11.2-12.7,14.2-7.1,5.1-13.8,1.5-20.5-.6-3.7-1.2-7.5-1.8-11.3-.3-4.9,1.9-6.8,5.7-10.6,6.1s-10.8-2-13.2-4.4c4,4,14,7.3,13,11Z"/>
  <path class="st24" d="M315,362c.7-.8,1.7-2.1,2.4-3.8.9-2.3.5-3.1,1.5-5.1.5-1.1,1.4-2.3,3.2-3.7,3.3-2.8,7-3.5,11-3.3,10,.4,22.8,6.4,30-4l11.3-17.8c-12.2-1-14.5,15.7-23.9,18.5-8.2,2.4-16.8-1.9-23.8-2.3-1.1,0-2,0-3.3.2-7.5,1.3-19.7,16.3-14.6,14.5s4.1,4.2,6.2,6.9Z"/>
  <path class="st6" d="M27,356"/>
  <rect class="st2" x="767" y="280" width="16" height="38" rx="8" ry="8"/>
  <rect class="st2" x="758.5" y="319.5" width="16" height="38" rx="8" ry="8" transform="translate(236.1 -310.1) rotate(26.9)"/>
  <rect class="st2" x="750.1" y="356.1" width="16" height="38" rx="8" ry="8" transform="translate(-23 50.6) rotate(-3.8)"/>
  <circle class="st7" cx="671" cy="259" r="6.5"/>
  <circle class="st7" cx="680" cy="273" r="6.5"/>
  <circle class="st7" cx="671" cy="288" r="6.5"/>
  <circle class="st7" cx="655" cy="295" r="6.5"/>
  <circle class="st7" cx="645" cy="308" r="6.5"/>
  <ellipse class="st12" cx="726.5" cy="207" rx="40" ry="31.5"/>
  <path class="st7" d="M725,207l9.2-22.7-9.2,22.7Z"/>
  <line class="st7" x1="745.8" y1="195.2" x2="725" y2="207"/>
  <circle class="st7" cx="734" cy="186" r="2.5"/>
  <circle class="st7" cx="746" cy="195" r="2.5"/>
  <path class="st7" d="M724.4,206.3l21.6,11.7-21.6-11.7Z"/>
  <line class="st7" x1="733.8" y1="228.3" x2="724.4" y2="206.3"/>
  <circle class="st7" cx="744.2" cy="217.5" r="2.5"/>
  <circle class="st7" cx="734" cy="228.5" r="2.5"/>
  <path class="st7" d="M725.2,207.3l-10.7,22.1,10.7-22.1Z"/>
  <line class="st7" x1="703.7" y1="217.7" x2="725.2" y2="207.3"/>
  <circle class="st7" cx="714.9" cy="227.7" r="2.5"/>
  <circle class="st7" cx="703.5" cy="217.9" r="2.5"/>
  <path class="st7" d="M725.4,207.7l-21.6-11.6,21.6,11.6Z"/>
  <line class="st7" x1="715.9" y1="185.8" x2="725.4" y2="207.7"/>
  <circle class="st7" cx="705.5" cy="196.5" r="2.5"/>
  <circle class="st7" cx="715.7" cy="185.6" r="2.5"/>
  <circle class="st7" cx="725" cy="207" r="11.5"/>
  <path class="st12" d="M682.5,307.8c22.1,0,40,14.1,40,31.5s-17.9,31.5-40,31.5"/>
  <polygon class="st4" points="736.4 456.8 726.9 462.2 717.5 456.7 717.6 445.8 727.1 440.4 736.5 445.9 736.4 456.8"/>
  <path class="st8" d="M770.1,418.5"/>
  <rect class="st12" x="796" y="449" width="67" height="51"/>
  <g>
    <path class="st2" d="M807.4,487.4l-.6-1.1c-2-3.9-.5-8.8,3.5-10.8l15.7-8.1,13.1-6.7c3.9-2,8.8-.5,10.8,3.5l.6,1.1c2,3.9.5,8.8-3.5,10.8l-28.7,14.8c-3.9,2-8.8.5-10.8-3.5Z"/>
    <rect class="st2" x="824.8" y="456.8" width="7.5" height="38" rx="3.7" ry="3.7" transform="translate(872.4 -478.6) rotate(62.8)"/>
    <line class="st2" x1="826.5" y1="457.5" x2="830.4" y2="465.2"/>
    <line class="st2" x1="836.5" y1="453.5" x2="838.5" y2="459.9"/>
    <line class="st2" x1="849.5" y1="452.5" x2="845.4" y2="460.3"/>
    <line class="st2" x1="856.5" y1="459.5" x2="849.1" y2="463"/>
    <line class="st2" x1="857.5" y1="466.5" x2="851.3" y2="468.5"/>
    <line class="st2" x1="857.5" y1="477" x2="850" y2="473.3"/>
    <line class="st2" x1="831.1" y1="493.6" x2="827.2" y2="485.9"/>
    <line class="st2" x1="821.1" y1="497.6" x2="819.1" y2="491.2"/>
    <line class="st2" x1="808.1" y1="498.6" x2="812.2" y2="490.7"/>
    <line class="st2" x1="801.1" y1="491.6" x2="808.5" y2="488"/>
    <line class="st2" x1="800.1" y1="484.6" x2="806.3" y2="482.5"/>
    <line class="st2" x1="800.1" y1="474.1" x2="807.6" y2="477.8"/>
    <line class="st2" x1="808.1" y1="466.5" x2="812.2" y2="473.3"/>
    <line class="st2" x1="816.2" y1="461.3" x2="820.1" y2="470.5"/>
    <line class="st2" x1="841.7" y1="488" x2="834.4" y2="482.5"/>
    <line class="st2" x1="850" y1="484.6" x2="843.7" y2="477.8"/>
  </g>
  <rect class="st12" x="796" y="336" width="67" height="51" rx="25.5" ry="25.5"/>
  <polygon class="st4" points="830.6 267 824 270.6 817.5 266.9 817.6 259.6 824.2 256 830.6 259.7 830.6 267"/>
  <path class="st22" d="M749,750l-6,6s3-2,6-5,3.1-5.9,3-6c-.1,0-2.7,4.7-3,5Z"/>
  <path class="st9" d="M133.5,758.6c61.9,61.4,144.2,109.1,236.2,125.3,240.4,42.4,469.6-118.1,512-358.5,35-198.4-68.2-389.2-240.5-473.6"/>
</svg>